<svg fill="none" height="40" width="136" xmlns="http://www.w3.org/2000/svg"><rect fill="#000" height="40" rx="4" width="136"/><g fill="#fff"><path d="M29.997 19.89a5.146 5.146 0 012.45-4.318 5.268 5.268 0 00-4.15-2.244c-1.746-.183-3.439 1.045-4.329 1.045-.907 0-2.277-1.027-3.752-.996a5.527 5.527 0 00-4.652 2.837c-2.01 3.482-.51 8.599 1.416 11.414.964 1.378 2.09 2.917 3.564 2.863 1.443-.06 1.981-.92 3.722-.92 1.725 0 2.23.92 3.735.885 1.548-.025 2.523-1.384 3.453-2.776a11.398 11.398 0 001.579-3.216 4.973 4.973 0 01-3.036-4.574zm-2.841-8.413a5.066 5.066 0 001.16-3.63 5.155 5.155 0 00-3.336 1.725 4.821 4.821 0 00-1.19 3.496 4.263 4.263 0 003.366-1.591z"/><path clip-rule="evenodd" d="M44.568 27.14h4.734l1.136 3.356h2.039l-4.484-12.418H45.91l-4.483 12.418h2.005zm4.243-1.55h-3.752l1.85-5.446h.052zm9.569 5c2.273 0 3.78-1.807 3.78-4.62 0-2.806-1.515-4.623-3.813-4.623a3.211 3.211 0 00-2.883 1.601h-.034v-1.506h-1.8v12.049h1.86v-4.485h.042a3.069 3.069 0 002.849 1.584zm-.524-7.658c1.446 0 2.393 1.205 2.393 3.038 0 1.85-.947 3.046-2.393 3.046-1.42 0-2.375-1.222-2.375-3.046 0-1.808.956-3.038 2.375-3.038zm10.49 7.658c2.272 0 3.778-1.807 3.778-4.62 0-2.806-1.515-4.623-3.812-4.623a3.211 3.211 0 00-2.883 1.601h-.035v-1.506h-1.798v12.049h1.858v-4.485h.043a3.069 3.069 0 002.849 1.584zm-.525-7.658c1.446 0 2.393 1.205 2.393 3.038 0 1.85-.947 3.046-2.393 3.046-1.42 0-2.375-1.222-2.375-3.046 0-1.808.955-3.038 2.375-3.038z" fill-rule="evenodd"/><path d="M78.709 27.036c.138 1.232 1.334 2.04 2.969 2.04 1.566 0 2.693-.808 2.693-1.919 0-.964-.68-1.54-2.289-1.936l-1.61-.388c-2.28-.55-3.338-1.617-3.338-3.348 0-2.142 1.867-3.614 4.517-3.614 2.625 0 4.424 1.472 4.485 3.614H84.26c-.113-1.239-1.137-1.987-2.634-1.987s-2.522.757-2.522 1.858c0 .878.655 1.395 2.255 1.79l1.369.336c2.547.603 3.605 1.626 3.605 3.443 0 2.323-1.85 3.778-4.793 3.778-2.754 0-4.613-1.42-4.733-3.667zM90.346 19.3v2.142h1.721v1.472h-1.721v4.991c0 .776.344 1.137 1.101 1.137.205-.004.409-.018.612-.043v1.463c-.34.064-.686.092-1.033.086-1.833 0-2.548-.689-2.548-2.444v-5.19h-1.316v-1.472h1.316V19.3z"/><path clip-rule="evenodd" d="M97.358 21.331c-2.616 0-4.294 1.79-4.294 4.639 0 2.856 1.662 4.638 4.294 4.638 2.634 0 4.295-1.782 4.295-4.638 0-2.849-1.67-4.639-4.295-4.639zm0 1.531c1.506 0 2.402 1.154 2.402 3.108 0 1.962-.896 3.106-2.402 3.106s-2.401-1.144-2.401-3.106c0-1.946.896-3.108 2.401-3.108z" fill-rule="evenodd"/><path d="M103.185 21.442h1.772v1.541H105a2.16 2.16 0 012.178-1.636c.214 0 .428.023.636.07v1.738a2.597 2.597 0 00-.835-.112 1.872 1.872 0 00-1.936 2.083v5.37h-1.858z"/><path clip-rule="evenodd" d="M112.485 30.608c2.048 0 3.649-1.128 3.899-2.771h-1.765a2.049 2.049 0 01-2.091 1.273 2.357 2.357 0 01-2.435-2.564v-.112h6.394v-.637c0-2.745-1.575-4.466-4.08-4.466-2.547 0-4.19 1.842-4.19 4.682 0 2.83 1.635 4.595 4.268 4.595zm2.143-5.473h-4.526a2.29 2.29 0 012.305-2.298 2.179 2.179 0 012.221 2.298z" fill-rule="evenodd"/><path d="M42.738 11.253h.798a1.002 1.002 0 001.125-.95c0-.551-.414-.907-1.116-.907a1.064 1.064 0 00-1.204.935h-.876a1.87 1.87 0 012.108-1.745c1.175 0 2.002.658 2.002 1.604a1.386 1.386 0 01-1.084 1.365v.07a1.39 1.39 0 011.327 1.443 1.993 1.993 0 01-2.228 1.774 1.983 1.983 0 01-2.241-1.765h.89c.053.57.577.939 1.35.939.774 0 1.28-.414 1.28-.997 0-.591-.476-.956-1.308-.956h-.823z"/><path clip-rule="evenodd" d="M48.504 12.08c-1.07.066-1.675.533-1.675 1.344a1.36 1.36 0 001.501 1.348 1.515 1.515 0 001.353-.708h.07v.633h.856v-3.076c0-.952-.636-1.514-1.765-1.514-1.022 0-1.75.496-1.841 1.27h.86c.1-.318.443-.5.939-.5.608 0 .922.268.922.744v.388zm1.22.583v.376a1.061 1.061 0 01-1.166.984c-.484 0-.835-.235-.835-.64 0-.398.28-.609.901-.65z" fill-rule="evenodd"/><path d="M52.968 10.943v3.755h-.889v-4.503h2.965v.748z"/><path clip-rule="evenodd" d="M58.57 14.771c1.136 0 1.86-.897 1.86-2.327 0-1.431-.724-2.324-1.87-2.324a1.564 1.564 0 00-1.414.819h-.066v-.745h-.855v6h.888v-2.179h.07c.276.5.817.795 1.386.756zm-.258-3.853c.753 0 1.204.575 1.204 1.526 0 .955-.45 1.53-1.207 1.53-.744 0-1.212-.588-1.212-1.526 0-.943.467-1.53 1.215-1.53z" fill-rule="evenodd"/><path d="M61.613 16.311v-.765c.097.012.193.018.29.017a.77.77 0 00.815-.629l.066-.22-1.63-4.519h.968l1.129 3.577h.07l1.125-3.577h.943l-1.679 4.69c-.385 1.095-.81 1.447-1.728 1.447-.075 0-.286-.009-.369-.021zm4.468-2.891h.885c.087.397.459.604.98.604.591 0 .954-.261.954-.666 0-.434-.326-.641-.955-.641h-.673v-.69h.662c.537 0 .81-.207.81-.584 0-.33-.264-.583-.81-.583-.497 0-.86.211-.918.567h-.857a1.578 1.578 0 011.775-1.32c1.07 0 1.682.485 1.682 1.245a.925.925 0 01-.71.922v.07c.507.066.886.501.88 1.014 0 .856-.728 1.422-1.84 1.422-.984 0-1.783-.45-1.865-1.36zm4.985 1.278v-4.503h.881v3.097h.07l2.076-3.097h.88v4.503h-.88v-3.114h-.067l-2.079 3.114zm8.759-3.755h-1.418v3.755h-.89v-3.755H76.1v-.748h3.725z"/><path clip-rule="evenodd" d="M82.66 14.784a1.83 1.83 0 001.953-1.303h-.857a1.079 1.079 0 01-1.07.546 1.189 1.189 0 01-1.199-1.29v-.05h3.18v-.31c0-1.414-.757-2.27-2.01-2.27a2.077 2.077 0 00-2.076 2.353 2.045 2.045 0 002.08 2.324zm1.1-2.753h-2.273a1.15 1.15 0 011.166-1.167 1.086 1.086 0 011.107 1.167zm4.62-1.836h2.03c.881 0 1.398.447 1.398 1.145a.968.968 0 01-.761.951v.07c.546.035.97.492.963 1.039 0 .785-.591 1.298-1.58 1.298h-2.05zm.88.682v1.166h.882c.537 0 .794-.206.794-.587 0-.351-.224-.579-.696-.579zm0 3.14v-1.32h.943c.6 0 .918.21.918.661 0 .426-.281.658-.806.658z" fill-rule="evenodd"/></g></svg>