<svg fill="none" height="80" width="80" xmlns="http://www.w3.org/2000/svg"><path d="M40 6.667C21.62 6.667 6.667 21.62 6.667 40S21.62 73.333 40 73.333 73.334 58.38 73.334 40c0-3.753-.654-7.353-1.804-10.723l-5.397 5.397c.35 1.72.534 3.503.534 5.326 0 14.703-11.963 26.667-26.667 26.667-14.703 0-26.666-11.964-26.666-26.667 0-14.703 11.963-26.667 26.666-26.667a26.502 26.502 0 0114.733 4.46l4.773-4.772C54.012 9.04 47.284 6.667 40 6.667zm30.977 4.31l-34.31 34.31L25.69 34.31l-4.713 4.713 15.69 15.69L75.69 15.69z" fill="#90cd60"/></svg>