<svg width="94" height="123" fill="none" xmlns="http://www.w3.org/2000/svg"><g clip-path="url(#clip0)"><rect width="94" height="122.2" rx="4.7" fill="url(#paint0_linear)"/><g style="mix-blend-mode:soft-light" opacity=".818"><mask id="a" style="mask-type:alpha" maskUnits="userSpaceOnUse" x="9" y="46" width="100" height="100"><path d="M59.337 145.308c27.364 0 49.546-22.182 49.546-49.545 0-27.364-22.182-49.546-49.545-49.546-27.364 0-49.546 22.182-49.546 49.546 0 27.363 22.182 49.545 49.545 49.545z" fill="#fff" opacity=".818"/></mask><g mask="url(#a)"><path d="M59.337 145.308c27.364 0 49.546-22.182 49.546-49.545 0-27.364-22.182-49.546-49.545-49.546-27.364 0-49.546 22.182-49.546 49.546 0 27.363 22.182 49.545 49.545 49.545z" stroke="#fff" stroke-width="5.875" opacity=".818"/><path fill-rule="evenodd" clip-rule="evenodd" d="M85.862 87.5a2.087 2.087 0 01-2.084-2.083c0-1.15.935-2.085 2.084-2.085s2.084.936 2.084 2.085c0 1.15-.935 2.084-2.084 2.084zm-5.39 19.532H38.02l-3.285-17.527c.16-.079.316-.165.465-.262l9.192 8.207c.247.22.571.34.9.308a1.22 1.22 0 00.85-.427l11.051-12.98a5.109 5.109 0 001.787.328c.63 0 1.23-.12 1.787-.327l10.922 12.83c.173.2.404.341.663.4l.664.15a1.23 1.23 0 001.087-.28l9.25-8.26c.135.089.276.17.42.246l-3.3 17.594zm-42.095 7.437v-4.986h41.738v4.986H38.377zM30.65 85.441c0-1.15.935-2.085 2.084-2.085 1.15 0 2.084.935 2.084 2.085a2.087 2.087 0 01-2.084 2.084 2.087 2.087 0 01-2.084-2.084zm28.327-8.573a2.683 2.683 0 012.68 2.68 2.683 2.683 0 01-2.68 2.68 2.682 2.682 0 01-2.68-2.68 2.683 2.683 0 012.68-2.68zm31.418 8.55a4.54 4.54 0 00-4.535-4.536 4.54 4.54 0 00-4.535 4.536c0 .683.157 1.33.429 1.913l-8.656 7.727-10.3-12.098a5.1 5.1 0 001.31-3.412c0-2.83-2.3-5.131-5.13-5.131a5.136 5.136 0 00-5.13 5.13c0 1.311.498 2.505 1.31 3.413l-10.07 11.827-8.27-7.385a4.506 4.506 0 00.452-1.961 4.54 4.54 0 00-4.535-4.536 4.54 4.54 0 00-4.535 4.536 4.54 4.54 0 004.102 4.513l3.496 18.53c.023.121.072.231.128.336v6.874c0 .676.548 1.225 1.225 1.225h44.19c.677 0 1.225-.549 1.225-1.225v-6.874c.055-.105.105-.215.127-.336l3.476-18.549a4.535 4.535 0 004.227-4.517z" fill="#fff"/></g></g><path d="M12.86 16.305c.11.035.214.087.313.157.104.07.193.153.268.253.08.094.141.203.186.327.05.124.074.258.074.402 0 .466-.149.83-.446 1.094-.293.258-.71.387-1.25.387H9.86V14.08h2.166c.223 0 .424.028.603.082.183.05.34.127.468.23.13.105.229.234.298.388.074.149.112.322.112.52a.995.995 0 01-.194.61c-.129.175-.28.299-.454.373v.022zm-2.016-1.376v1.02h1.064c.188 0 .337-.048.446-.142a.476.476 0 00.164-.38c0-.159-.052-.28-.156-.364-.1-.09-.246-.134-.44-.134h-1.078zm0 1.838v1.302h1.079c.506 0 .759-.218.759-.655 0-.223-.075-.387-.224-.491a.89.89 0 00-.535-.156h-1.08zm3.52.364c0-.292.04-.555.119-.788.08-.239.19-.44.335-.603a1.42 1.42 0 01.528-.387 1.78 1.78 0 01.707-.134c.248 0 .481.045.7.134.218.084.419.23.602.439l-.565.603a1.327 1.327 0 00-.357-.29.82.82 0 00-.372-.082.62.62 0 00-.551.297c-.13.199-.194.462-.194.789s.062.59.186.789c.124.198.315.297.573.297.253 0 .502-.13.745-.394l.573.573a1.707 1.707 0 01-1.355.625c-.258 0-.49-.042-.7-.126a1.507 1.507 0 01-.528-.365 1.75 1.75 0 01-.335-.588 2.59 2.59 0 01-.111-.789zm6.807.26h-2.352c.025.274.112.482.26.626a.8.8 0 00.581.216c.144 0 .293-.028.447-.082a1.82 1.82 0 00.416-.209l.41.603a2.034 2.034 0 01-.655.357 2.485 2.485 0 01-.707.097 1.94 1.94 0 01-.715-.126 1.528 1.528 0 01-.535-.38 1.739 1.739 0 01-.335-.595 2.44 2.44 0 01-.12-.789c0-.288.04-.548.12-.781.084-.233.2-.432.35-.596a1.54 1.54 0 01.535-.38 1.74 1.74 0 01.692-.133c.273 0 .509.047.707.141.204.09.372.216.506.38a1.6 1.6 0 01.298.595c.064.228.097.481.097.76v.297zm-.938-.61a1.005 1.005 0 00-.171-.572c-.104-.16-.283-.239-.536-.239a.645.645 0 00-.476.216c-.134.144-.211.343-.23.596h1.413zm.097-2.016a.482.482 0 01-.357-.826.483.483 0 01.357-.149c.129 0 .24.05.335.149a.482.482 0 01-.335.826zm-1.578 0a.491.491 0 01-.35-.142.47.47 0 010-.684.479.479 0 01.692 0c.1.094.15.208.15.342a.47.47 0 01-.15.342.482.482 0 01-.342.142zm6.67 4.242c-.264 0-.502-.045-.715-.134a1.528 1.528 0 01-.536-.38 1.768 1.768 0 01-.35-.595 2.417 2.417 0 01-.119-.782c0-.297.042-.563.127-.796.084-.238.203-.436.357-.595.154-.164.337-.288.55-.372.214-.09.447-.134.7-.134.253 0 .486.045.7.134.213.084.394.208.543.372.154.164.273.362.357.595.084.233.127.494.127.782 0 .297-.045.565-.134.803a1.702 1.702 0 01-.357.596c-.154.163-.338.29-.551.38a1.887 1.887 0 01-.7.126zM25.413 16a.625.625 0 00-.566.313c-.129.208-.193.471-.193.789 0 .357.067.635.2.833.135.194.328.29.581.29a.641.641 0 00.328-.082.75.75 0 00.245-.238c.065-.104.114-.223.149-.357.035-.134.052-.278.052-.431 0-.333-.067-.6-.2-.804a.662.662 0 00-.596-.313zm6.73.037H30.76v2.888h-.938v-3.64h3.26v3.64h-.938v-2.888zm3.379 2.97c-.263 0-.501-.045-.715-.134a1.528 1.528 0 01-.535-.38 1.766 1.766 0 01-.35-.595 2.414 2.414 0 01-.12-.782c0-.297.043-.563.127-.796.085-.238.204-.436.358-.595a1.49 1.49 0 01.55-.372c.213-.09.447-.134.7-.134.253 0 .486.045.7.134.212.084.394.208.542.372.154.164.273.362.358.595.084.233.126.494.126.782 0 .297-.045.565-.134.803a1.703 1.703 0 01-.357.596c-.154.163-.337.29-.55.38a1.887 1.887 0 01-.7.126zM35.515 16a.625.625 0 00-.565.313c-.13.208-.194.471-.194.789 0 .357.067.635.201.833.134.194.328.29.58.29a.641.641 0 00.328-.082.75.75 0 00.246-.238c.064-.104.114-.223.149-.357a1.75 1.75 0 00.052-.431c0-.333-.067-.6-.201-.804a.662.662 0 00-.596-.313zm3.4.037v2.888h-.938v-3.632h2.865v.744h-1.928zm4.028 2.97c-.263 0-.501-.045-.715-.134a1.53 1.53 0 01-.536-.38 1.766 1.766 0 01-.35-.595 2.414 2.414 0 01-.118-.782c0-.297.042-.563.126-.796.084-.238.203-.436.357-.595.154-.164.338-.288.551-.372.213-.09.447-.134.7-.134.253 0 .486.045.699.134.213.084.394.208.543.372.154.164.273.362.357.595.085.233.127.494.127.782 0 .297-.045.565-.134.803a1.702 1.702 0 01-.357.596c-.154.163-.337.29-.55.38a1.887 1.887 0 01-.7.126zM42.935 16a.625.625 0 00-.565.313c-.13.208-.194.471-.194.789 0 .357.067.635.201.833.134.194.328.29.58.29a.642.642 0 00.328-.082.75.75 0 00.246-.238c.064-.104.114-.223.148-.357.035-.134.052-.278.052-.431 0-.333-.067-.6-.2-.804a.662.662 0 00-.596-.313zm2.208 2.203h.373c.094-.104.17-.23.23-.38a2.56 2.56 0 00.142-.558c.04-.228.069-.5.089-.818.025-.323.05-.705.074-1.146h2.761v2.902h.365v1.816h-.841v-1.094h-2.367v1.094h-.826v-1.816zm2.739-2.18h-1.035c-.004.158-.012.332-.022.52a5.66 5.66 0 01-.044.566c-.02.189-.053.377-.097.566a2.116 2.116 0 01-.201.528h1.399v-2.18zm5.112 1.369h-2.352c.025.273.112.481.261.625a.8.8 0 00.58.216c.144 0 .293-.028.447-.082a1.82 1.82 0 00.417-.209l.409.603a2.034 2.034 0 01-.655.357 2.485 2.485 0 01-.707.097c-.263 0-.501-.042-.714-.126a1.528 1.528 0 01-.536-.38 1.739 1.739 0 01-.335-.595 2.44 2.44 0 01-.119-.789c0-.288.04-.548.119-.781.084-.233.201-.432.35-.596.149-.163.327-.29.536-.38a1.74 1.74 0 01.692-.133c.273 0 .508.047.707.141.203.09.372.216.506.38a1.6 1.6 0 01.297.595c.065.228.097.481.097.76v.297zm-.938-.61a1.005 1.005 0 00-.17-.573c-.105-.16-.284-.239-.537-.239a.645.645 0 00-.476.216c-.134.144-.21.343-.23.596h1.413zm2.17 2.225a.546.546 0 01-.559-.566c0-.178.06-.317.179-.417a.592.592 0 01.387-.149c.158 0 .287.055.387.164a.56.56 0 01.156.402.546.546 0 01-.164.402.513.513 0 01-.387.164zm0-2.136a.547.547 0 01-.559-.566c0-.183.06-.322.179-.416a.593.593 0 01.387-.15c.158 0 .287.055.387.164a.56.56 0 01.156.402.547.547 0 01-.164.402.514.514 0 01-.387.164zm4.223-.834v2.888h-.938v-3.632h2.865v.744h-1.927zm5.688 1.072c0 .332-.045.618-.134.856a1.724 1.724 0 01-.335.588 1.364 1.364 0 01-1.005.439 1.4 1.4 0 01-.498-.082 1.207 1.207 0 01-.38-.26h-.022v1.428l-.47.179c-.153.064-.31.129-.468.193v-5.157h.938v.313h.022c.139-.13.29-.226.454-.29a1.35 1.35 0 011.034.014c.169.07.318.182.447.335.129.15.23.345.305.588.074.238.111.524.111.856zm-.96-.015c-.005-.372-.07-.647-.194-.826A.591.591 0 0062.47 16a.731.731 0 00-.402.12c-.12.074-.221.163-.305.267v1.444c.084.104.186.193.305.268a.72.72 0 00.387.111.61.61 0 00.535-.268c.124-.178.186-.46.186-.848zm3.34 1.913c-.262 0-.5-.045-.714-.134a1.528 1.528 0 01-.536-.38 1.768 1.768 0 01-.35-.595 2.417 2.417 0 01-.118-.782c0-.297.042-.563.126-.796.084-.238.204-.436.357-.595.154-.164.338-.288.551-.372.213-.09.447-.134.7-.134.252 0 .486.045.699.134.213.084.394.208.543.372.154.164.273.362.357.595.085.233.127.494.127.782 0 .297-.045.565-.134.803a1.702 1.702 0 01-.357.596c-.154.163-.338.29-.55.38a1.887 1.887 0 01-.7.126zM66.51 16a.625.625 0 00-.565.313c-.13.208-.194.471-.194.789 0 .357.067.635.201.833.134.194.328.29.58.29a.641.641 0 00.328-.082.75.75 0 00.246-.238c.064-.104.114-.223.148-.357.035-.134.052-.278.052-.431 0-.333-.067-.6-.2-.804A.662.662 0 0066.51 16zm4.679 1.02a.965.965 0 01.461.364.703.703 0 01.09.224c.02.074.03.143.03.208a1.002 1.002 0 01-.461.886 1.58 1.58 0 01-.5.215 2.648 2.648 0 01-.61.067c-.287 0-.563-.044-.826-.134a1.74 1.74 0 01-.655-.402l.47-.602c.163.154.327.258.49.312.164.05.325.075.484.075.223 0 .39-.045.499-.134.109-.095.163-.201.163-.32 0-.149-.054-.25-.163-.305a.881.881 0 00-.424-.09h-.507v-.602h.507c.183 0 .317-.043.401-.127.085-.09.127-.178.127-.268a.345.345 0 00-.142-.283c-.089-.079-.225-.119-.409-.119-.139 0-.29.03-.454.09a1.234 1.234 0 00-.416.238 14.57 14.57 0 01-.224-.29c-.07-.105-.139-.206-.208-.306.208-.168.431-.29.67-.364.243-.08.496-.12.759-.12.238 0 .444.028.617.083.174.05.315.119.424.208a.782.782 0 01.253.305.85.85 0 01.082.372.856.856 0 01-.521.781l-.007.038zm4.805 1.905v-3.64h.93v3.64h-.93zm-.387-1.146c0 .198-.032.37-.097.513a.937.937 0 01-.275.357 1.1 1.1 0 01-.417.209 1.977 1.977 0 01-.535.067h-1.824v-3.64h.93v1.318h.856c.407 0 .735.1.983.298.253.198.38.49.38.878zm-.952-.015c0-.149-.05-.26-.15-.335a.547.547 0 00-.364-.119h-.752v.908h.76a.587.587 0 00.357-.104c.099-.075.149-.191.149-.35zm3.052 1.83c.129-.089.23-.186.305-.29a.755.755 0 00.156-.342.573.573 0 01-.372-.127c-.099-.084-.149-.21-.149-.379a.56.56 0 01.157-.402.511.511 0 01.394-.171.54.54 0 01.447.208c.114.134.17.313.17.536 0 .298-.081.553-.245.767a2.155 2.155 0 01-.603.535 5.106 5.106 0 01-.133-.17 3.663 3.663 0 01-.127-.164zm-66.26 8.413c-.264 0-.502-.045-.715-.134a1.528 1.528 0 01-.536-.38 1.765 1.765 0 01-.35-.595 2.415 2.415 0 01-.119-.782c0-.297.043-.563.127-.796.084-.238.203-.436.357-.595.154-.164.337-.288.55-.372.214-.09.447-.134.7-.134.253 0 .486.044.7.134.213.084.394.208.543.372.154.164.273.362.357.595.085.233.127.494.127.782 0 .297-.045.565-.134.803a1.703 1.703 0 01-.357.596c-.154.163-.338.29-.551.38a1.887 1.887 0 01-.7.126zM11.438 25a.625.625 0 00-.566.313c-.129.208-.193.471-.193.789 0 .357.067.635.2.833.135.194.328.29.581.29a.642.642 0 00.328-.082.75.75 0 00.245-.238c.065-.104.114-.223.15-.357a1.75 1.75 0 00.051-.431c0-.333-.067-.6-.2-.804a.662.662 0 00-.596-.313zm2.402 1.131c0-.292.04-.555.119-.788.079-.239.19-.44.334-.603a1.41 1.41 0 01.529-.387c.208-.09.444-.134.707-.134.248 0 .481.044.7.134.218.084.419.23.602.439l-.565.603a1.329 1.329 0 00-.358-.29.82.82 0 00-.372-.082.62.62 0 00-.55.297c-.13.199-.194.462-.194.789s.062.59.186.789c.124.198.315.297.573.297.253 0 .501-.13.744-.394l.573.573a1.707 1.707 0 01-1.354.625 1.86 1.86 0 01-.7-.126 1.507 1.507 0 01-.528-.365 1.75 1.75 0 01-.335-.588 2.59 2.59 0 01-.111-.789zm5.675 1.794v-.298l-.014-.007c-.16.148-.333.25-.521.305a1.727 1.727 0 01-.484.082c-.159 0-.313-.023-.462-.067a1.028 1.028 0 01-.67-.573 1.331 1.331 0 01-.103-.551 1.062 1.062 0 01.417-.886c.128-.099.275-.173.438-.223.169-.054.348-.082.536-.082.149 0 .29.013.424.038.14.02.286.064.44.134v-.246c0-.387-.224-.58-.67-.58-.169 0-.333.02-.492.059-.158.04-.32.1-.483.179l-.26-.692c.198-.1.411-.174.64-.224.228-.054.468-.082.721-.082.481 0 .846.107 1.094.32.248.214.372.534.372.96v2.434h-.923zm0-1.459a1.487 1.487 0 00-.312-.134c-.11-.04-.238-.06-.387-.06a.711.711 0 00-.44.135c-.113.084-.17.208-.17.372 0 .159.05.283.148.372.105.084.248.126.432.126a.891.891 0 00.387-.096 1.23 1.23 0 00.342-.239v-.476zm1.457.737h.372c.094-.104.17-.23.23-.38a2.56 2.56 0 00.142-.558c.04-.228.07-.5.089-.818.025-.323.05-.705.074-1.146h2.761v2.902h.365v1.816h-.841v-1.094h-2.366v1.094h-.826v-1.816zm2.738-2.18h-1.034c-.005.158-.013.332-.023.52a5.63 5.63 0 01-.044.566c-.02.189-.052.377-.097.566a2.116 2.116 0 01-.201.528h1.399v-2.18zm5.112-.722l-1.421 1.674 1.429 1.95h-1.042l-1.31-1.853v1.853h-.908V24.3h.908v1.607l1.34-1.607h1.004zm2.813 1.48a5.78 5.78 0 00-.186.29c-.06.095-.124.192-.193.291-.174.258-.348.521-.521.789-.169.263-.343.52-.521.774h-.938v-3.64h.938v2.218h.037c.06-.099.12-.193.179-.282.06-.09.119-.181.178-.276l1.064-1.66h.938v3.64h-.937v-2.143h-.038zm1.762 2.814c.13-.09.231-.186.306-.29a.785.785 0 00.156-.343.573.573 0 01-.372-.127c-.1-.084-.149-.21-.149-.379a.56.56 0 01.156-.402.51.51 0 01.395-.171c.188 0 .337.07.446.208.114.134.171.313.171.536 0 .298-.081.553-.245.767a2.157 2.157 0 01-.603.535 5.106 5.106 0 01-.134-.17 3.739 3.739 0 01-.127-.164zm5.49-.588a1.84 1.84 0 01-.715-.134 1.528 1.528 0 01-.536-.38 1.768 1.768 0 01-.35-.595 2.417 2.417 0 01-.118-.782c0-.297.042-.563.126-.796.084-.238.203-.436.357-.595.154-.164.337-.288.55-.372.214-.09.447-.134.7-.134.253 0 .487.044.7.134.213.084.394.208.543.372.154.164.273.362.357.595.085.233.127.494.127.782 0 .297-.045.565-.134.803a1.702 1.702 0 01-.357.596c-.154.163-.338.29-.551.38a1.887 1.887 0 01-.7.126zM38.88 25a.625.625 0 00-.566.313c-.129.208-.193.471-.193.789 0 .357.067.635.2.833.135.194.328.29.581.29a.641.641 0 00.328-.082.75.75 0 00.245-.238c.065-.104.114-.223.15-.357a1.75 1.75 0 00.051-.431c0-.333-.067-.6-.2-.804A.662.662 0 0038.88 25zm3.399-.223a.916.916 0 01.186-.179 1.418 1.418 0 01.506-.223c.094-.02.186-.03.275-.03.229 0 .44.04.633.12.198.079.367.195.506.35.144.148.255.334.335.557.08.224.119.477.119.76 0 .292-.045.555-.134.788a1.659 1.659 0 01-.365.588c-.154.159-.34.283-.558.372a1.929 1.929 0 01-.714.127c-.333 0-.613-.062-.841-.186a1.62 1.62 0 01-.558-.492 2.207 2.207 0 01-.305-.714 3.868 3.868 0 01-.09-.84c0-.353.025-.678.075-.976.054-.302.146-.573.275-.81.13-.239.3-.442.514-.611a2.54 2.54 0 01.818-.417c.13-.04.248-.072.357-.096.11-.025.216-.048.32-.067l.335-.075c.12-.025.248-.057.387-.097l.209.685c-.164.06-.308.104-.432.134-.12.03-.228.055-.328.074-.099.02-.193.04-.282.06a2.498 2.498 0 00-.648.245 1.517 1.517 0 00-.297.231 1.164 1.164 0 00-.216.305 1.27 1.27 0 00-.104.41l.022.007zm.833.32a.726.726 0 00-.587.283c-.154.183-.231.459-.231.826 0 .297.064.546.193.744.134.198.335.298.603.298.263 0 .456-.105.58-.313.13-.208.194-.476.194-.804 0-.302-.064-.55-.194-.744a.63.63 0 00-.558-.29zm3.687.84c0 .264-.01.52-.03.767a1.937 1.937 0 01-.148.663 1.04 1.04 0 01-.38.461c-.173.114-.417.171-.73.171a.971.971 0 01-.118-.007.952.952 0 01-.12-.008l-.03-.751c.16-.02.284-.05.373-.09a.398.398 0 00.194-.208c.044-.094.071-.223.081-.387.01-.164.015-.377.015-.64v-1.615h2.761v3.632h-.938v-2.902h-.93v.915zm5.89.455h-2.352c.025.273.112.481.26.625a.8.8 0 00.581.216c.144 0 .293-.028.447-.082a1.82 1.82 0 00.416-.209l.41.603a2.033 2.033 0 01-.655.357 2.484 2.484 0 01-.707.097 1.94 1.94 0 01-.715-.126 1.528 1.528 0 01-.535-.38 1.739 1.739 0 01-.335-.595 2.44 2.44 0 01-.12-.789c0-.288.04-.548.12-.781.084-.233.2-.432.35-.596a1.54 1.54 0 01.535-.38c.209-.088.44-.133.692-.133.273 0 .509.047.707.141.204.09.373.216.506.38a1.6 1.6 0 01.298.595c.065.228.097.481.097.76v.297zm-.938-.61a1.004 1.004 0 00-.171-.573c-.104-.16-.283-.238-.536-.238a.645.645 0 00-.476.215c-.134.144-.21.343-.23.596h1.413zm1.336 1.421h.372c.094-.104.17-.23.23-.38a2.56 2.56 0 00.142-.558c.04-.228.07-.5.089-.818.025-.323.05-.705.074-1.146h2.761v2.902h.365v1.816h-.841v-1.094h-2.367v1.094h-.825v-1.816zm2.738-2.18h-1.034c-.005.158-.013.332-.023.52a5.63 5.63 0 01-.044.566c-.02.189-.052.377-.097.566a2.116 2.116 0 01-.201.528h1.399v-2.18zm5.112 1.369h-2.351c.024.273.111.481.26.625a.8.8 0 00.58.216c.144 0 .293-.028.447-.082a1.82 1.82 0 00.417-.209l.409.603a2.034 2.034 0 01-.655.357 2.485 2.485 0 01-.707.097c-.263 0-.5-.042-.714-.126a1.528 1.528 0 01-.536-.38 1.739 1.739 0 01-.335-.595 2.442 2.442 0 01-.119-.789c0-.288.04-.548.12-.781.084-.233.2-.432.349-.596.149-.163.327-.29.536-.38a1.76 1.76 0 01.692-.133c.273 0 .508.047.707.141.203.09.372.216.506.38a1.6 1.6 0 01.297.595c.065.228.097.481.097.76v.297zm-.938-.61a1.004 1.004 0 00-.17-.573c-.105-.16-.283-.238-.536-.238a.645.645 0 00-.477.215c-.134.144-.21.343-.23.596h1.413zm3.948 2.143v-1.51h-1.414v1.51h-.938v-3.64h.938v1.385h1.414v-1.384h.938v3.639h-.938zm4.97-1.533h-2.352c.025.273.112.481.26.625a.8.8 0 00.581.216c.144 0 .293-.028.447-.082a1.82 1.82 0 00.416-.209l.41.603a2.034 2.034 0 01-.655.357 2.484 2.484 0 01-.707.097 1.94 1.94 0 01-.715-.126 1.528 1.528 0 01-.535-.38 1.739 1.739 0 01-.335-.595 2.44 2.44 0 01-.12-.789c0-.288.04-.548.12-.781.084-.233.2-.432.35-.596a1.53 1.53 0 01.535-.38c.209-.088.44-.133.692-.133.273 0 .509.047.707.141.204.09.372.216.506.38a1.6 1.6 0 01.298.595c.064.228.097.481.097.76v.297zm-.938-.61a1.005 1.005 0 00-.171-.573c-.104-.16-.283-.238-.536-.238a.645.645 0 00-.476.215c-.134.144-.211.343-.231.596h1.414zm3.947 2.143v-1.51h-1.414v1.51h-.937v-3.64h.937v1.385h1.414v-1.384h.938v3.639h-.938zm4.07-2.143a5.78 5.78 0 00-.186.29 54.049 54.049 0 00-.714 1.08c-.17.262-.343.52-.522.773h-.937v-3.64h.937v2.218h.038c.059-.099.119-.193.178-.282.06-.09.12-.181.179-.276l1.064-1.66h.938v3.64h-.938v-2.143h-.037zm4.992.61h-2.352c.025.273.112.481.26.625a.8.8 0 00.58.216c.145 0 .294-.028.447-.082a1.82 1.82 0 00.417-.209l.41.603a2.033 2.033 0 01-.656.357 2.484 2.484 0 01-.706.097c-.263 0-.502-.042-.715-.126a1.528 1.528 0 01-.536-.38 1.739 1.739 0 01-.335-.595 2.44 2.44 0 01-.119-.789c0-.288.04-.548.12-.781.084-.233.2-.432.35-.596a1.53 1.53 0 01.535-.38c.208-.088.44-.133.692-.133.273 0 .509.047.707.141.203.09.372.216.506.38a1.6 1.6 0 01.298.595c.064.228.096.481.096.76v.297zm-.938-.61a1.004 1.004 0 00-.171-.573c-.105-.16-.283-.238-.536-.238a.645.645 0 00-.476.215c-.134.144-.211.343-.231.596h1.414zm2.154 2.225a.546.546 0 01-.558-.566c0-.178.06-.317.178-.417a.596.596 0 01.387-.149c.159 0 .288.055.387.164a.56.56 0 01.156.402.546.546 0 01-.163.402.513.513 0 01-.387.164zm-69.306 7.89h-1.995l-.357 1.028H9.519l1.838-4.845h1.116l1.846 4.845h-1.057l-.364-1.027zm-1.005-2.834a7.704 7.704 0 01-.164.483c-.03.09-.06.176-.09.26a2.95 2.95 0 01-.059.187l-.402 1.116h1.444l-.439-1.25-.06-.164a2.248 2.248 0 00-.074-.216 12.76 12.76 0 00-.074-.23 6.716 6.716 0 01-.06-.186h-.022zm5.082 1.957a.965.965 0 01.462.364.703.703 0 01.089.224c.02.074.03.144.03.208a1.002 1.002 0 01-.461.886 1.582 1.582 0 01-.5.215 2.648 2.648 0 01-.61.067c-.287 0-.563-.044-.825-.134a1.74 1.74 0 01-.655-.401l.468-.603c.164.154.328.258.492.312.163.05.325.075.483.075.224 0 .39-.045.499-.134a.414.414 0 00.164-.32c0-.149-.055-.25-.164-.305a.881.881 0 00-.424-.09h-.506v-.602h.506c.183 0 .317-.043.402-.127.084-.09.126-.178.126-.268a.345.345 0 00-.141-.283c-.09-.079-.226-.119-.41-.119-.139 0-.29.03-.454.09a1.234 1.234 0 00-.416.238 14.57 14.57 0 01-.224-.29 12.544 12.544 0 00-.208-.306c.208-.168.432-.29.67-.364.243-.08.496-.12.759-.12.238 0 .444.028.618.083.173.05.315.119.424.208a.782.782 0 01.253.305.85.85 0 01.082.372.856.856 0 01-.52.781l-.009.038zm4.805 1.905v-3.64h.93v3.64h-.93zm-.387-1.146c0 .198-.032.37-.096.513a.937.937 0 01-.276.358 1.098 1.098 0 01-.416.208 1.977 1.977 0 01-.536.067h-1.823v-3.64h.93v1.318h.856c.406 0 .734.1.982.298.253.198.38.49.38.878zm-.952-.015c0-.149-.05-.26-.149-.335a.547.547 0 00-.365-.119h-.751v.908h.759a.587.587 0 00.357-.104c.1-.075.149-.191.149-.35zm7.091 1.16v-.297l-.015-.007c-.159.149-.332.25-.52.305a1.727 1.727 0 01-.484.082c-.16 0-.313-.023-.462-.067a1.028 1.028 0 01-.67-.573 1.331 1.331 0 01-.104-.551 1.07 1.07 0 01.417-.886c.13-.099.275-.173.44-.223a1.73 1.73 0 01.535-.082c.149 0 .29.013.424.038.139.02.285.064.44.134v-.246c0-.387-.224-.58-.67-.58-.17 0-.333.02-.492.059-.159.04-.32.1-.483.179l-.26-.693c.198-.099.41-.173.64-.223.227-.054.468-.082.72-.082.482 0 .847.107 1.095.32.248.214.372.534.372.96v2.434h-.923zm0-1.458a1.487 1.487 0 00-.312-.134c-.11-.04-.238-.06-.387-.06a.71.71 0 00-.44.135c-.114.084-.17.208-.17.372 0 .158.049.283.148.372.104.084.248.126.432.126a.89.89 0 00.387-.096c.134-.065.248-.144.342-.238v-.477zm3.532-2.173c.164 0 .318.02.462.06.144.04.268.099.372.178.11.075.194.172.253.29.064.12.097.259.097.417a.759.759 0 01-.127.425.875.875 0 01-.312.305c.173.07.31.178.409.327a.86.86 0 01.156.506c0 .332-.114.603-.342.811-.228.209-.553.313-.975.313h-1.823v-3.632h1.83zm-.907.737v.647h.781c.124 0 .22-.03.29-.089a.32.32 0 00.104-.245c0-.1-.032-.177-.096-.231-.065-.055-.162-.082-.29-.082h-.79zm0 1.332v.834h.774c.337 0 .506-.14.506-.417 0-.144-.047-.248-.142-.313a.586.586 0 00-.357-.104h-.781zm5.222-.58a5.78 5.78 0 00-.186.29 54.049 54.049 0 00-.714 1.08c-.17.262-.343.52-.521.773h-.938v-3.64h.938v2.218h.037a8.25 8.25 0 01.178-.282c.06-.09.12-.181.179-.276l1.064-1.66h.938v3.64h-.938v-2.143h-.037zm3.86 2.143v-.298l-.014-.007c-.159.149-.333.25-.521.305a1.727 1.727 0 01-.484.082c-.159 0-.312-.023-.461-.067a1.027 1.027 0 01-.67-.573 1.33 1.33 0 01-.104-.551 1.062 1.062 0 01.417-.886c.129-.099.275-.173.439-.223a1.73 1.73 0 01.535-.082c.15 0 .29.013.425.038.139.02.285.064.439.134v-.246c0-.387-.224-.58-.67-.58-.169 0-.332.02-.491.059a2.5 2.5 0 00-.484.179l-.26-.693c.198-.099.411-.173.64-.223.228-.054.468-.082.721-.082.482 0 .846.107 1.094.32.248.214.373.534.373.96v2.434h-.923zm0-1.459a1.486 1.486 0 00-.312-.134 1.124 1.124 0 00-.387-.06.711.711 0 00-.439.135c-.114.084-.171.208-.171.372 0 .158.05.283.149.372.104.084.248.126.431.126a.891.891 0 00.387-.096c.134-.065.248-.144.343-.238v-.477zm5.371 2.553h-.84v-1.094h-2.83v-3.64h.93v2.918h1.437v-2.917h.945v2.917h.357v1.816zm2.905-3.237a5.852 5.852 0 00-.186.29 9.7 9.7 0 01-.193.29c-.174.258-.348.521-.521.789-.169.263-.343.52-.521.774h-.938v-3.64h.938v2.218h.037c.06-.099.12-.193.179-.282.06-.09.119-.181.178-.276l1.065-1.66h.937v3.64h-.938v-2.143h-.037zm3.407 2.225c-.263 0-.501-.045-.714-.134a1.528 1.528 0 01-.536-.38 1.766 1.766 0 01-.35-.595 2.414 2.414 0 01-.119-.782c0-.297.042-.563.127-.796.084-.238.203-.436.357-.595.154-.164.337-.288.55-.372.214-.09.447-.134.7-.134.253 0 .486.044.7.134.213.084.394.208.543.372.154.164.273.362.357.595.084.233.126.494.126.782 0 .297-.044.565-.133.803a1.703 1.703 0 01-.358.596 1.6 1.6 0 01-.55.38 1.887 1.887 0 01-.7.126zM50.915 34a.625.625 0 00-.566.313c-.129.208-.193.471-.193.789 0 .357.067.635.2.833.134.194.328.29.581.29a.641.641 0 00.327-.082.75.75 0 00.246-.238c.065-.104.114-.223.149-.357.035-.134.052-.278.052-.431 0-.333-.067-.6-.201-.804a.662.662 0 00-.595-.313zm4.82 2.925v-1.51H54.32v1.51h-.938v-3.64h.938v1.385h1.414v-1.384h.938v3.639h-.938zm4.084 0v-1.51h-1.414v1.51h-.938v-3.64h.938v1.385h1.414v-1.384h.938v3.639h-.938zm3.385.082c-.263 0-.501-.045-.715-.134a1.53 1.53 0 01-.535-.38 1.766 1.766 0 01-.35-.595 2.414 2.414 0 01-.12-.782c0-.297.043-.563.127-.796.085-.238.204-.436.357-.595.154-.164.338-.288.551-.372.213-.09.447-.134.7-.134.253 0 .486.044.7.134.213.084.394.208.542.372.154.164.273.362.358.595.084.233.126.494.126.782 0 .297-.045.565-.134.803a1.702 1.702 0 01-.357.596c-.154.163-.337.29-.55.38a1.887 1.887 0 01-.7.126zM63.196 34a.625.625 0 00-.565.313c-.13.208-.194.471-.194.789 0 .357.067.635.201.833.134.194.328.29.58.29a.642.642 0 00.328-.082.75.75 0 00.246-.238c.064-.104.114-.223.148-.357.035-.134.053-.278.053-.431 0-.333-.067-.6-.201-.804a.662.662 0 00-.596-.313zm4.806.782a5.78 5.78 0 00-.186.29 54.049 54.049 0 00-.714 1.08c-.17.262-.343.52-.522.773h-.937v-3.64h.937v2.218h.038c.059-.099.119-.193.178-.282.06-.09.12-.181.179-.276l1.064-1.66h.938v3.64h-.938v-2.143h-.037zm-1.184-3.066a.73.73 0 00.157.35c.084.089.203.133.357.133.164 0 .283-.052.357-.156.08-.11.12-.218.12-.327h.662c0 .109-.02.228-.06.357a1.028 1.028 0 01-.186.357.993.993 0 01-.35.275 1.176 1.176 0 01-.543.112c-.223 0-.41-.037-.558-.112a1.07 1.07 0 01-.357-.275 1.145 1.145 0 01-.194-.357 1.378 1.378 0 01-.052-.357h.647zM11.744 44.31l.491-1.005c.169-.332.335-.67.499-1.012h.922v3.632h-.93v-1.89h-.022l-.275.543-.722 1.354-.7-1.332-.297-.58h-.015v1.905h-.93v-3.632h.922l.521 1.012c.174.338.342.673.506 1.005h.03zm5.931.082h-2.351c.024.273.111.481.26.625a.8.8 0 00.58.216c.144 0 .293-.028.447-.082.154-.055.293-.124.417-.209l.41.603a2.034 2.034 0 01-.656.358 2.484 2.484 0 01-.707.096c-.263 0-.5-.042-.714-.126a1.528 1.528 0 01-.536-.38 1.739 1.739 0 01-.335-.595 2.44 2.44 0 01-.119-.789c0-.288.04-.548.12-.781.084-.234.2-.432.349-.596a1.53 1.53 0 01.536-.38 1.76 1.76 0 01.692-.133c.273 0 .508.047.707.141.203.09.372.216.506.38a1.6 1.6 0 01.297.595c.065.228.097.481.097.76v.297zm-.937-.61a1.005 1.005 0 00-.172-.573c-.104-.16-.282-.239-.535-.239a.645.645 0 00-.477.216c-.134.144-.21.343-.23.596h1.414zm3.337-.745v2.888h-.945v-2.888h-1.065v-.744h3.089v.744h-1.08zm4.81 1.355h-2.352c.025.273.111.481.26.625a.8.8 0 00.58.216c.144 0 .293-.028.447-.082a1.82 1.82 0 00.417-.209l.41.603a2.033 2.033 0 01-.656.358 2.484 2.484 0 01-.707.096c-.263 0-.5-.042-.714-.126a1.528 1.528 0 01-.536-.38 1.739 1.739 0 01-.335-.595 2.44 2.44 0 01-.119-.789c0-.288.04-.548.12-.781.084-.234.2-.432.35-.596.148-.163.326-.29.535-.38a1.76 1.76 0 01.692-.133c.273 0 .508.047.707.141.203.09.372.216.506.38a1.6 1.6 0 01.298.595c.064.228.096.481.096.76v.297zm-.938-.61a1.004 1.004 0 00-.171-.573c-.105-.16-.283-.239-.536-.239a.645.645 0 00-.476.216c-.134.144-.211.343-.231.596h1.414zm3.248 2.225a1.84 1.84 0 01-.715-.134 1.528 1.528 0 01-.536-.38 1.768 1.768 0 01-.35-.595 2.417 2.417 0 01-.119-.782c0-.297.043-.563.127-.796.084-.238.203-.436.357-.595.154-.164.338-.288.55-.372.214-.09.447-.134.7-.134.253 0 .487.044.7.134.213.084.394.208.543.372.154.164.273.362.357.595.085.233.127.494.127.782 0 .297-.045.565-.134.803a1.702 1.702 0 01-.357.596c-.154.163-.338.29-.551.38a1.887 1.887 0 01-.7.126zM27.187 43a.625.625 0 00-.566.313c-.128.208-.193.471-.193.789 0 .357.067.635.2.833.135.194.328.29.581.29a.641.641 0 00.328-.082.75.75 0 00.245-.238c.065-.104.114-.223.15-.357a1.75 1.75 0 00.051-.431c0-.333-.067-.6-.2-.804a.662.662 0 00-.596-.313zm5.78 1.109c0 .332-.044.618-.134.856a1.723 1.723 0 01-.335.588 1.364 1.364 0 01-1.004.439 1.4 1.4 0 01-.499-.082 1.206 1.206 0 01-.38-.26h-.022v1.428a44.8 44.8 0 00-.468.179c-.154.064-.31.129-.47.193v-5.157h.938v.313h.023c.139-.13.29-.226.454-.29a1.35 1.35 0 011.034.014c.169.07.318.182.447.335.128.15.23.345.305.588.074.238.111.524.111.856zm-.96-.015c-.005-.372-.07-.647-.193-.826A.592.592 0 0031.3 43a.731.731 0 00-.402.12 1.22 1.22 0 00-.305.267v1.444c.085.104.186.193.305.268a.716.716 0 00.387.111.612.612 0 00.536-.267c.124-.18.186-.462.186-.849zm3.341 1.913c-.263 0-.5-.045-.714-.134a1.528 1.528 0 01-.536-.38 1.765 1.765 0 01-.35-.595 2.414 2.414 0 01-.119-.782c0-.297.043-.563.127-.796.084-.238.203-.436.357-.595.154-.164.337-.288.55-.372.214-.09.447-.134.7-.134.253 0 .486.044.7.134.213.084.394.208.543.372.154.164.273.362.357.595.084.233.127.494.127.782 0 .297-.045.565-.134.803a1.703 1.703 0 01-.357.596c-.154.163-.338.29-.551.38a1.887 1.887 0 01-.7.126zM35.341 43a.625.625 0 00-.566.313c-.129.208-.193.471-.193.789 0 .357.067.635.2.833.135.194.328.29.581.29a.642.642 0 00.328-.082.75.75 0 00.245-.238c.065-.104.114-.223.15-.357a1.75 1.75 0 00.051-.431c0-.333-.067-.6-.2-.804A.662.662 0 0035.34 43zm3.711.938c0 .263-.01.518-.03.766a1.937 1.937 0 01-.148.663 1.04 1.04 0 01-.38.461c-.173.114-.416.171-.73.171a.969.969 0 01-.118-.007.952.952 0 01-.12-.008l-.029-.751c.159-.02.283-.05.372-.09a.398.398 0 00.194-.208c.044-.094.072-.223.081-.387.01-.164.015-.377.015-.64v-1.615h2.761v3.632h-.938v-2.902h-.93v.915zm4.305 2.069c-.263 0-.501-.045-.715-.134a1.528 1.528 0 01-.535-.38 1.765 1.765 0 01-.35-.595 2.414 2.414 0 01-.12-.782c0-.297.043-.563.127-.796.085-.238.204-.436.358-.595a1.49 1.49 0 01.55-.372c.214-.09.447-.134.7-.134.253 0 .486.044.7.134.213.084.394.208.542.372.154.164.273.362.358.595.084.233.126.494.126.782 0 .297-.044.565-.134.803a1.703 1.703 0 01-.357.596c-.154.163-.337.29-.55.38a1.887 1.887 0 01-.7.126zM43.349 43a.625.625 0 00-.565.313c-.13.208-.194.471-.194.789 0 .357.067.635.201.833.134.194.328.29.58.29a.641.641 0 00.328-.082.75.75 0 00.246-.238c.064-.104.114-.223.149-.357a1.75 1.75 0 00.052-.431c0-.333-.067-.6-.201-.804a.662.662 0 00-.596-.313zm3.4.037v2.888h-.938v-3.632h2.865v.744h-1.928zm4.712.745a5.853 5.853 0 00-.186.29 9.7 9.7 0 01-.193.29c-.174.258-.347.521-.521.789-.169.263-.342.52-.521.774h-.938v-3.64h.938v2.218h.037c.06-.099.12-.193.179-.282.06-.09.119-.181.178-.276l1.065-1.66h.937v3.64H51.5v-2.143h-.038zm4.092 0a5.78 5.78 0 00-.186.29 54.049 54.049 0 00-.714 1.08c-.17.262-.343.52-.521.773h-.938v-3.64h.938v2.218h.037a8.25 8.25 0 01.178-.282c.06-.09.12-.181.179-.276l1.064-1.66h.938v3.64h-.938v-2.143h-.037zm2.313 2.225a.546.546 0 01-.558-.566c0-.178.06-.317.178-.417a.595.595 0 01.387-.148c.159 0 .288.054.387.163a.56.56 0 01.156.402.546.546 0 01-.163.402.513.513 0 01-.387.164z" fill="#fff"/><g clip-path="url(#clip1)"><rect width="94" height="122.2" rx="4.7" fill="url(#paint1_linear)"/><g style="mix-blend-mode:soft-light" opacity=".818"><mask id="b" style="mask-type:alpha" maskUnits="userSpaceOnUse" x="9" y="46" width="100" height="100"><path d="M59.337 145.308c27.364 0 49.546-22.182 49.546-49.545 0-27.364-22.182-49.546-49.545-49.546-27.364 0-49.546 22.182-49.546 49.546 0 27.363 22.182 49.545 49.545 49.545z" fill="#fff" opacity=".818"/></mask><g mask="url(#b)"><path d="M59.337 145.308c27.364 0 49.546-22.182 49.546-49.545 0-27.364-22.182-49.546-49.545-49.546-27.364 0-49.546 22.182-49.546 49.546 0 27.363 22.182 49.545 49.545 49.545z" stroke="#fff" stroke-width="5.875" opacity=".818"/><g style="mix-blend-mode:soft-light" opacity=".818" fill-rule="evenodd" clip-rule="evenodd" fill="#fff"><path d="M47.919 94.496l9.962 2.154c.77.166 1.37.767 1.537 1.535l2.159 9.945 4.981-9.032a2.012 2.012 0 011.985-1.025l10.77 1.216-6.764-6.732a2.002 2.002 0 01-.464-2.123l3.85-10.27-10.29 3.842a2.01 2.01 0 01-2.126-.462l-6.554-6.566 1.031 10.595a2.002 2.002 0 01-1.03 1.95l-9.047 4.973zm12.83 21.297a2.007 2.007 0 01-1.963-1.58l-3.019-13.917-13.94-3.013a2.003 2.003 0 01-.544-3.716l12.588-6.919-1.447-14.862a2.005 2.005 0 011.143-2.008 2.012 2.012 0 012.278.398l9.606 9.622 13.205-4.931a2.01 2.01 0 012.124.46c.557.556.736 1.384.461 2.12l-4.94 13.182 9.924 9.878a2 2 0 01.393 2.288 2.01 2.01 0 01-2.036 1.124l-15.155-1.71-6.92 12.548a2.007 2.007 0 01-1.758 1.036zm-25.685 21.35a2.004 2.004 0 01-1.42-3.422L48.5 118.89a2.01 2.01 0 012.84 0 2.002 2.002 0 010 2.835l-14.856 14.831a2.002 2.002 0 01-1.42.587z" opacity=".818"/><path d="M34.337 123.254a2 2 0 01-1.42-.588 2 2 0 010-2.834l14.856-14.831a2.01 2.01 0 012.84 0 2.002 2.002 0 010 2.835l-14.856 14.83a2 2 0 01-1.42.588zm-14.747.107a2.002 2.002 0 01-1.42-.588 2.002 2.002 0 010-2.835l14.855-14.829a2.011 2.011 0 012.841 0 2.003 2.003 0 010 2.835l-14.855 14.828a2 2 0 01-1.42.589z" opacity=".818"/></g></g></g><path d="M12.255 19.007a2.19 2.19 0 01-.93-.186 1.958 1.958 0 01-.663-.521 2.382 2.382 0 01-.409-.79 3.563 3.563 0 01-.134-.996c0-.357.045-.69.134-.997a2.35 2.35 0 01.41-.797c.183-.223.406-.397.67-.52a2.1 2.1 0 01.93-.194c.332 0 .63.06.892.178.268.12.494.29.678.514.188.218.33.481.424.789.099.307.149.647.149 1.02 0 .376-.05.719-.15 1.026-.094.308-.235.57-.424.789a1.853 1.853 0 01-.677.506 2.162 2.162 0 01-.9.179zm0-4.116a.973.973 0 00-.491.12c-.14.079-.256.19-.35.334a1.549 1.549 0 00-.208.514 2.851 2.851 0 00-.067.64c0 .233.022.449.067.647.05.194.121.365.215.514.095.144.211.258.35.342.139.08.303.12.491.12a.928.928 0 00.491-.127c.144-.09.26-.206.35-.35.094-.149.164-.32.209-.514a2.57 2.57 0 00.074-.625c0-.233-.025-.449-.074-.647a1.549 1.549 0 00-.209-.514.973.973 0 00-.848-.454zm5.224 4.034v-1.51h-1.414v1.51h-.937v-3.64h.937v1.385h1.414v-1.384h.938v3.639h-.938zm2.976-1.987c0 .263-.01.518-.03.766a1.937 1.937 0 01-.149.663 1.04 1.04 0 01-.38.461c-.173.114-.416.171-.729.171a.971.971 0 01-.119-.007.952.952 0 01-.119-.008l-.03-.751c.16-.02.283-.05.372-.09a.398.398 0 00.194-.208c.045-.094.072-.223.082-.387.01-.164.015-.377.015-.64v-1.615h2.76v3.632h-.937v-2.902h-.93v.915zm4.758 1.987v-.298l-.015-.007c-.158.148-.332.25-.52.305a1.727 1.727 0 01-.484.082c-.16 0-.313-.023-.462-.067a1.027 1.027 0 01-.67-.573 1.33 1.33 0 01-.104-.551 1.07 1.07 0 01.417-.886c.13-.099.276-.173.44-.223.168-.054.346-.082.535-.082.149 0 .29.013.424.038.14.02.285.064.44.134v-.246c0-.387-.224-.58-.67-.58-.17 0-.333.02-.492.059-.159.04-.32.1-.483.179l-.26-.692c.198-.1.41-.174.64-.224a3.11 3.11 0 01.721-.082c.481 0 .846.107 1.094.32.248.214.372.534.372.96v2.434h-.923zm0-1.459a1.486 1.486 0 00-.312-.134c-.11-.04-.238-.06-.387-.06a.711.711 0 00-.44.135c-.114.084-.17.208-.17.372 0 .159.05.283.148.372.105.084.248.126.432.126a.891.891 0 00.387-.096 1.23 1.23 0 00.342-.239v-.476zm4.053-.684a5.853 5.853 0 00-.186.29 9.7 9.7 0 01-.193.29c-.174.258-.347.521-.521.789-.169.263-.342.52-.52.774h-.939v-3.64h.938v2.218h.037c.06-.099.12-.193.179-.282.06-.09.119-.181.178-.276l1.065-1.66h.937v3.64h-.937v-2.143h-.037zm-1.183-3.066a.73.73 0 00.157.35c.084.089.203.133.357.133.163 0 .282-.052.357-.156a.551.551 0 00.119-.327h.662c0 .109-.02.228-.06.357a1.03 1.03 0 01-.185.357.992.992 0 01-.35.275 1.177 1.177 0 01-.543.112 1.23 1.23 0 01-.558-.112 1.071 1.071 0 01-.358-.275 1.145 1.145 0 01-.193-.357 1.382 1.382 0 01-.052-.357h.647zm5.268 5.209v-1.51h-1.414v1.51H31v-3.64h.938v1.385h1.414v-1.384h.938v3.639h-.938zm1.748-2.694h2.016v.848h-2.017v-.848zm6.056-.93l-1.421 1.674 1.428 1.95h-1.041l-1.31-1.853v1.853h-.908V15.3h.908v1.607l1.34-1.607h1.004zm1.072 5.045l.476-1.31-1.399-3.743h.975l.543 1.623.305 1.026h.03l.327-1.026.551-1.623h.938l-1.846 5.053h-.9zm6.531-3.237c0 .332-.044.618-.134.856a1.723 1.723 0 01-.335.588 1.364 1.364 0 01-1.004.439 1.4 1.4 0 01-.499-.082 1.206 1.206 0 01-.38-.26h-.022v1.428l-.468.179a42.9 42.9 0 01-.47.193v-5.157h.938v.313h.023a1.44 1.44 0 01.454-.29 1.35 1.35 0 011.034.014c.169.07.318.182.447.335.129.15.23.345.305.588.074.238.111.524.111.856zm-.96-.015c-.005-.372-.07-.647-.193-.826A.591.591 0 0047.09 16a.731.731 0 00-.401.12 1.22 1.22 0 00-.306.267v1.444c.085.104.186.193.306.268a.72.72 0 00.387.111.61.61 0 00.535-.268c.124-.178.186-.46.186-.848zm1.622.037c0-.292.04-.555.12-.788.079-.239.19-.44.334-.603a1.41 1.41 0 01.529-.387c.208-.09.444-.134.707-.134.248 0 .48.045.7.134.217.084.418.23.602.439l-.566.603a1.326 1.326 0 00-.357-.29.82.82 0 00-.372-.082.62.62 0 00-.55.297c-.13.199-.194.462-.194.789s.062.59.186.789c.124.198.315.297.573.297.253 0 .501-.13.744-.394l.573.573a1.707 1.707 0 01-1.354.625 1.86 1.86 0 01-.7-.126 1.506 1.506 0 01-.528-.365 1.75 1.75 0 01-.335-.588 2.59 2.59 0 01-.112-.789zm-37.418 5.867c.342 0 .657.052.945.157.288.104.546.253.774.446l-.566.715a1.814 1.814 0 00-.595-.343 1.786 1.786 0 00-.618-.111c-.243 0-.421.05-.536.149a.466.466 0 00-.163.357c0 .089.025.166.074.23.05.06.114.112.194.157.084.044.178.084.282.119.105.034.214.07.328.104.178.05.37.109.573.178.203.065.392.154.565.268.174.114.318.26.432.44.114.173.171.396.171.67 0 .237-.044.448-.134.632a1.236 1.236 0 01-.387.461 1.744 1.744 0 01-.595.283 2.93 2.93 0 01-.781.097c-.367 0-.715-.062-1.042-.186a2.437 2.437 0 01-.834-.514l.596-.7c.193.174.404.306.632.395.233.09.46.134.677.134.566 0 .849-.188.849-.566a.42.42 0 00-.223-.38c-.144-.093-.397-.19-.76-.29a8.043 8.043 0 01-.692-.23 2.044 2.044 0 01-.506-.283 1.224 1.224 0 01-.312-.402 1.37 1.37 0 01-.104-.565c0-.224.047-.422.141-.596a1.32 1.32 0 01.38-.446c.158-.124.344-.218.558-.283.213-.064.439-.097.677-.097zm5.754 3.111c0 .332-.044.618-.134.856a1.723 1.723 0 01-.335.588 1.365 1.365 0 01-1.004.439 1.4 1.4 0 01-.499-.082 1.206 1.206 0 01-.38-.26h-.022v1.428l-.468.179a42.9 42.9 0 01-.47.193v-5.157h.938v.313h.023a1.44 1.44 0 01.454-.29 1.35 1.35 0 011.034.015c.169.069.317.18.447.334.128.15.23.345.305.588.074.238.111.524.111.856zm-.96-.015c-.005-.372-.07-.647-.193-.826a.591.591 0 00-.514-.268.731.731 0 00-.402.12 1.22 1.22 0 00-.305.267v1.444c.085.104.186.193.305.268.12.074.248.111.387.111a.612.612 0 00.536-.268c.124-.178.186-.46.186-.848zm4.926.298h-2.351c.025.273.111.481.26.625a.8.8 0 00.58.216c.145 0 .293-.028.447-.082a1.82 1.82 0 00.417-.209l.41.603a2.034 2.034 0 01-.656.357 2.485 2.485 0 01-.707.097c-.262 0-.5-.042-.714-.126a1.528 1.528 0 01-.536-.38 1.739 1.739 0 01-.335-.595 2.442 2.442 0 01-.119-.789c0-.288.04-.548.12-.781.084-.233.2-.432.35-.596.148-.163.326-.29.535-.38a1.74 1.74 0 01.692-.133c.273 0 .509.047.707.141.203.09.372.216.506.38a1.6 1.6 0 01.298.595c.064.228.096.481.096.76v.297zm-.937-.61a1.004 1.004 0 00-.171-.573c-.105-.16-.283-.238-.536-.238a.645.645 0 00-.476.215c-.134.144-.211.343-.231.596h1.414zm1.529.35c0-.293.04-.556.119-.79.079-.238.19-.438.334-.602a1.41 1.41 0 01.529-.387c.208-.09.444-.134.707-.134.248 0 .481.044.7.134.218.084.419.23.602.439l-.566.603a1.329 1.329 0 00-.357-.29.82.82 0 00-.372-.082.62.62 0 00-.55.297c-.13.199-.194.462-.194.789s.062.59.186.789c.124.198.315.297.573.297.253 0 .501-.13.744-.394l.573.573a1.707 1.707 0 01-1.354.625 1.86 1.86 0 01-.7-.126 1.507 1.507 0 01-.528-.365 1.75 1.75 0 01-.335-.588 2.59 2.59 0 01-.111-.789zm3.718-1.839h.938v3.632h-.938v-3.632zm-.09-.997a.55.55 0 01.946-.394c.11.109.164.24.164.394a.53.53 0 01-.164.387.53.53 0 01-.387.164.547.547 0 01-.558-.55zm4.053 4.629v-.298l-.015-.007c-.159.148-.332.25-.52.305a1.727 1.727 0 01-.485.082 1.61 1.61 0 01-.46-.067 1.027 1.027 0 01-.67-.573 1.331 1.331 0 01-.105-.551 1.07 1.07 0 01.417-.886c.129-.099.275-.173.439-.223a1.73 1.73 0 01.536-.082c.149 0 .29.013.424.038.139.02.285.064.44.134v-.246c0-.387-.224-.58-.67-.58-.17 0-.333.02-.492.059-.159.04-.32.1-.484.179l-.26-.692c.198-.1.412-.174.64-.224.228-.054.469-.082.722-.082.481 0 .846.107 1.094.32.248.214.372.534.372.96v2.434h-.923zm0-1.459a1.487 1.487 0 00-.313-.134 1.122 1.122 0 00-.386-.06.71.71 0 00-.44.135c-.114.084-.17.208-.17.372 0 .159.049.283.148.372.104.084.248.126.432.126a.89.89 0 00.387-.096 1.23 1.23 0 00.342-.239v-.476zm1.776 1.459v-4.912l.938-.38v5.292h-.938zm3.786-4.845h3.416v.849H36.54v1.027h1.704v.855H36.54v1.258h2.515v.856h-3.498V23.08zm3.95 3.096c0-.332.043-.62.127-.863.084-.248.196-.452.335-.61.139-.164.295-.286.469-.365.178-.08.36-.12.543-.12.189 0 .352.033.491.098.14.06.266.143.38.253h.03V23.02l.937-.38v5.284h-.938v-.313h-.022a1.31 1.31 0 01-.461.298 1.487 1.487 0 01-1.034-.007 1.157 1.157 0 01-.44-.313 1.617 1.617 0 01-.305-.566 2.815 2.815 0 01-.111-.848zm.96 0c0 .367.063.633.187.796a.608.608 0 00.513.246.73.73 0 00.395-.112c.124-.08.23-.17.32-.275v-1.444a1.304 1.304 0 00-.306-.26.696.696 0 00-.394-.12.59.59 0 00-.528.298c-.124.194-.186.484-.186.871zm3.29-1.883h.938v3.632h-.938v-3.632zm-.09-.997a.546.546 0 01.558-.558.53.53 0 01.388.164c.109.109.163.24.163.394a.53.53 0 01-.163.387.53.53 0 01-.387.164.547.547 0 01-.558-.55zm3.204.997h.76v.722h-.76v1.682c0 .174.03.295.09.365.06.064.169.096.327.096.06 0 .124-.002.194-.007.074-.01.159-.02.253-.03l.074.73c-.129.04-.273.074-.431.104-.154.03-.3.044-.44.044-.307 0-.55-.08-.729-.238-.173-.159-.26-.422-.26-.789v-1.957h-.543v-.722h.558v-.84l.907-.358v1.198zm1.682 0h.938v3.632h-.938v-3.632zm-.089-.997a.55.55 0 01.945-.394c.11.109.164.24.164.394a.53.53 0 01-.164.387.53.53 0 01-.387.164.547.547 0 01-.558-.55zm3.598 4.71c-.263 0-.5-.044-.714-.133a1.53 1.53 0 01-.536-.38 1.766 1.766 0 01-.35-.595 2.414 2.414 0 01-.119-.782c0-.297.042-.563.127-.796.084-.238.203-.436.357-.595.154-.164.337-.288.55-.372.214-.09.447-.134.7-.134.253 0 .486.044.7.134.213.084.394.208.543.372.154.164.273.362.357.595.084.233.127.494.127.782 0 .297-.045.565-.134.803a1.702 1.702 0 01-.358.596 1.6 1.6 0 01-.55.38 1.887 1.887 0 01-.7.126zM52.055 25a.625.625 0 00-.566.313c-.129.208-.193.471-.193.789 0 .357.067.635.2.833.135.194.328.29.581.29a.641.641 0 00.328-.082.75.75 0 00.245-.238c.065-.104.114-.223.15-.357a1.75 1.75 0 00.051-.431c0-.333-.067-.6-.2-.804a.662.662 0 00-.596-.313zm5.69 2.925h-.944v-2.091c0-.258-.05-.457-.15-.596-.098-.139-.26-.208-.483-.208a.674.674 0 00-.431.141.695.695 0 00-.231.38 3.04 3.04 0 00-.03.156.957.957 0 00-.015.171v2.047h-.938v-3.632h.938v.387h.03c.129-.149.283-.263.461-.342.184-.08.36-.12.529-.12.446 0 .769.132.967.395.199.258.298.608.298 1.05v2.262z" fill="#fff"/></g></g><defs><linearGradient id="paint0_linear" x1="0" y1="0" x2="102.358" y2="39.369" gradientUnits="userSpaceOnUse"><stop stop-color="#B24592"/><stop offset="1" stop-color="#F15F79"/></linearGradient><linearGradient id="paint1_linear" x1="47" y1="0" x2="47" y2="122.2" gradientUnits="userSpaceOnUse"><stop stop-color="#33D9D1"/><stop offset="1" stop-color="#8DEBC8"/></linearGradient><clipPath id="clip0"><path fill="#fff" d="M0 0h94v122.2H0z"/></clipPath><clipPath id="clip1"><path fill="#fff" d="M0 0h94v122.2H0z"/></clipPath></defs></svg>