<svg fill="none" height="40" width="136" xmlns="http://www.w3.org/2000/svg"><linearGradient id="a" gradientUnits="userSpaceOnUse" x1="21.762" x2="3.584" y1="-4.762" y2=".349"><stop offset="0" stop-color="#00a0ff"/><stop offset=".007" stop-color="#00a1ff"/><stop offset=".26" stop-color="#00beff"/><stop offset=".512" stop-color="#00d2ff"/><stop offset=".76" stop-color="#00dfff"/><stop offset="1" stop-color="#00e3ff"/></linearGradient><linearGradient id="b" gradientUnits="userSpaceOnUse" x1="36.848" x2="14.587" y1="10.539" y2="10.539"><stop offset="0" stop-color="#ffe000"/><stop offset=".409" stop-color="#ffbd00"/><stop offset=".775" stop-color="orange"/><stop offset="1" stop-color="#ff9c00"/></linearGradient><linearGradient id="c" gradientUnits="userSpaceOnUse" x1="14.996" x2="1.142" y1="13.762" y2="37.952"><stop offset="0" stop-color="#ff3a44"/><stop offset="1" stop-color="#c31162"/></linearGradient><linearGradient id="d" gradientUnits="userSpaceOnUse" x1="6.348" x2="12.484" y1="5.416" y2="16.23"><stop offset="0" stop-color="#32a071"/><stop offset=".069" stop-color="#2da771"/><stop offset=".476" stop-color="#15cf74"/><stop offset=".801" stop-color="#06e775"/><stop offset="1" stop-color="#00f076"/></linearGradient><rect fill="#000" height="40" rx="4" width="136"/><path clip-rule="evenodd" d="M47.6 24v1.8h4.3c-.1 1-.5 1.8-1 2.3-.6.6-1.6 1.3-3.3 1.3-2.7 0-4.7-2.1-4.7-4.8s2.1-4.8 4.7-4.8c1.4 0 2.5.6 3.3 1.3l1.3-1.3c-1.1-1-2.5-1.8-4.5-1.8-3.6 0-6.7 3-6.7 6.6s3.1 6.6 6.7 6.6c2 0 3.4-.6 4.6-1.9 1.2-1.2 1.6-2.9 1.6-4.2 0-.4 0-.8-.1-1.1zm11.1-1.3c-2.4 0-4.3 1.8-4.3 4.3 0 2.4 1.9 4.3 4.3 4.3S63 29.5 63 27c0-2.6-1.9-4.3-4.3-4.3zm5 4.3c0-2.5 1.9-4.3 4.3-4.3s4.3 1.7 4.3 4.3c0 2.5-1.9 4.3-4.3 4.3s-4.3-1.9-4.3-4.3zm1.9-.1c0 1.5 1.1 2.6 2.4 2.6s2.4-1.1 2.4-2.6c0-1.6-1.1-2.6-2.4-2.6s-2.4 1.1-2.4 2.6zm-9.3 0c0 1.5 1.1 2.6 2.4 2.6s2.4-1.1 2.4-2.6c0-1.6-1.1-2.6-2.4-2.6s-2.4 1.1-2.4 2.6zm33.1-4.2c2.2 0 3.2 1.7 3.6 2.7l.2.5-5.7 2.4c.5.9 1.1 1.3 2.1 1.3s1.6-.5 2.1-1.2l1.4 1c-.4.7-1.6 1.9-3.5 1.9-2.4 0-4.2-1.9-4.2-4.3 0-2.6 1.8-4.3 4-4.3zm-2.2 4.1c0-1.6 1.3-2.5 2.2-2.5.7 0 1.4.4 1.6.9zm-2.8 4.1h-1.9V18.4h1.9zm-4.9-7.3c-.5-.5-1.3-1-2.3-1-2.1 0-4.1 1.9-4.1 4.3s1.9 4.2 4.1 4.2c1 0 1.8-.5 2.2-1h.1v.6c0 1.6-.9 2.5-2.3 2.5-1.1 0-1.9-.8-2.1-1.5l-1.6.7c.5 1.1 1.7 2.5 3.8 2.5 2.2 0 4-1.3 4-4.4v-7.6h-1.8zm-4.6 3.3c0 1.5 1.1 2.6 2.4 2.6s2.3-1.1 2.3-2.6-1-2.6-2.3-2.6-2.4 1.1-2.4 2.6zm26.8-8.5h-4.5v12.5h1.9v-4.7h2.6c2.1 0 4.1-1.5 4.1-3.9s-2-3.9-4.1-3.9zm-2.6 6h2.7c1.3 0 2.1-1.1 2.2-2.2 0-.9-.8-2.1-2.2-2.1h-2.7zm14.2-1.8c-1.4 0-2.8.6-3.3 1.9l1.7.7c.4-.7 1-.9 1.7-.9 1 0 1.9.6 2 1.6v.1c-.3-.2-1.1-.5-1.9-.5-1.8 0-3.6 1-3.6 2.8 0 1.7 1.5 2.8 3.1 2.8 1.3 0 1.9-.6 2.4-1.2h.1v1h1.8v-4.8c-.2-2.2-1.9-3.5-4-3.5zm-1.7 5.8c0 .8.9 1.1 1.5 1.1 1 0 2-.8 2.2-2l-.149-.06c-.436-.178-.832-.34-1.551-.34-.9 0-2 .3-2 1.3zm12-5.5l-2.1 5.4h-.1l-2.2-5.4h-2l3.3 7.6-1.9 4.2h1.9l5.1-11.8zm-14.9 8h-1.9V18.4h1.9z" fill="#fff" fill-rule="evenodd"/><path clip-rule="evenodd" d="M15.288 8.442c-.276.266-.46.708-.46 1.239v19.55c0 .53.184.973.46 1.238l.092.089 11.408-10.97v-.176z" fill="url(#a)" fill-rule="evenodd"/><path clip-rule="evenodd" d="M30.56 23.304l-3.772-3.626v-.266l3.772-3.627.092.089 4.508 2.477c1.288.707 1.288 1.857 0 2.565z" fill="url(#b)" fill-rule="evenodd"/><path clip-rule="evenodd" d="M30.652 23.215L26.788 19.5l-11.5 11.058c.46.442 1.104.442 1.932.088z" fill="url(#c)" fill-rule="evenodd"/><path clip-rule="evenodd" d="M30.652 15.784L17.22 8.442c-.828-.442-1.472-.354-1.932.089l11.5 10.969z" fill="url(#d)" fill-rule="evenodd"/><path clip-rule="evenodd" d="M30.56 23.127l-13.34 7.254c-.736.442-1.38.354-1.84 0l-.092.088.092.089c.46.354 1.104.442 1.84 0z" fill="#000" fill-rule="evenodd" opacity=".2"/><path clip-rule="evenodd" d="M15.288 30.381c-.276-.265-.368-.708-.368-1.238v.088c0 .53.184.973.46 1.238v-.088zM35.16 20.65l-4.6 2.477.092.088 4.508-2.477c.645-.353.92-.796.92-1.238 0 .442-.367.796-.92 1.15z" fill="#000" fill-rule="evenodd" opacity=".12"/><g fill="#fff"><path clip-rule="evenodd" d="M17.22 8.53l17.94 9.82c.553.354.92.708.92 1.15 0-.442-.275-.884-.92-1.238l-17.94-9.82c-1.287-.707-2.3-.088-2.3 1.327v.089c0-1.416 1.013-2.035 2.3-1.327z" fill-rule="evenodd" opacity=".25"/><path clip-rule="evenodd" d="M41.4 15.3h.8V14h4.6v1.3h.7v-2h-.7V8h-4v3c0 1.1-.3 1.9-.8 2.3h-.6zm1.5-2c.4-.6.6-1.4.6-2.3h-.1V8.8h2.5v4.5z" fill-rule="evenodd"/><path d="M41.4 15.3h-.312v.313h.312zm.8 0v.313h.313V15.3zm0-1.3v-.313h-.312V14zm4.6 0h.313v-.313H46.8zm0 1.3h-.312v.313h.312zm.7 0v.313h.313V15.3zm0-2h.313v-.313H47.5zm-.7 0h-.312v.313h.312zm0-5.3h.313v-.313H46.8zm-4 0v-.313h-.312V8zm-.8 5.3v.313h.11l.086-.069zm-.6 0v-.313h-.312v.313zm2.1-2.3h.313v-.313H43.5zm-.6 2.3l-.26-.173-.324.485h.584zm.5-2.3h-.312v.312h.312zm0-2.2v-.313h-.312V8.8zm2.5 0h.313v-.313H45.9zm0 4.5v.312h.313V13.3zm-3.8 1.688h-.7v.625h.7zm.1 0h-.1v.625h.1zM41.888 14v1.3h.625V14zm4.912-.313h-4.6v.626h4.6zm.313 1.613V14h-.625v1.3zm.387-.313h-.7v.626h.7zm-.312-1.687v2h.625v-2zm-.388.313h.7v-.625h-.7zM46.488 8v5.3h.625V8zm-3.688.313h4v-.626h-4zM43.113 11V8h-.625v3zm-.917 2.544c.608-.487.917-1.404.917-2.544h-.625c0 1.06-.291 1.743-.683 2.056zm-.796.069h.6v-.625h-.6zm.313 1.687v-2h-.625v2zm1.475-4.3c0 .857-.191 1.592-.548 2.127l.52.346c.444-.665.653-1.53.653-2.473zm.212.312h.1v-.625h-.1zM43.088 8.8V11h.625V8.8zm2.812-.313h-2.5v.625h2.5zm.313 4.813V8.8h-.625v4.5zm-3.313.312h3v-.625h-3z"/><path clip-rule="evenodd" d="M51.2 14.1c.9 0 1.6-.3 2.2-.9s.9-1.3.9-2.2-.3-1.6-.9-2.2-1.3-.9-2.2-.9-1.6.3-2.2.9-.9 1.3-.9 2.2.3 1.6.9 2.2 1.3.9 2.2.9zm0-.7c-.6 0-1.2-.3-1.6-.7-.5-.4-.7-1-.7-1.7s.3-1.3.7-1.7c.4-.5 1-.7 1.6-.7s1.2.3 1.6.7c.5.4.7 1 .7 1.7s-.3 1.3-.7 1.7c-.4.5-1 .7-1.6.7z" fill-rule="evenodd"/><path d="M49.6 12.7l.221-.22-.012-.013-.013-.01zm0-3.4l.221.222.013-.013.01-.013zm3.2 0l-.22.222.012.012.013.01zm0 3.4l-.22-.22-.013.012-.01.013zm.38.28c-.542.54-1.162.808-1.98.808v.625c.983 0 1.763-.333 2.422-.992zm.808-1.98c0 .818-.267 1.438-.808 1.98l.442.441c.658-.658.991-1.438.991-2.42zm-.808-1.979c.54.542.808 1.162.808 1.98h.625c0-.983-.333-1.763-.991-2.422zm-1.98-.808c.818 0 1.438.267 1.98.808l.442-.442c-.66-.658-1.439-.991-2.421-.991zm-1.978.808c.54-.54 1.161-.808 1.979-.808v-.625c-.983 0-1.763.333-2.421.991zm-.809 1.98c0-.818.267-1.438.809-1.98l-.442-.442c-.66.66-.992 1.439-.992 2.421zm.809 1.978c-.542-.54-.809-1.161-.809-1.979h-.625c0 .983.333 1.763.992 2.421zm1.979.809c-.818 0-1.438-.267-1.98-.809l-.441.442c.658.66 1.438.992 2.42.992zm-1.821-.866c.447.447 1.123.791 1.82.791v-.625c-.502 0-1.026-.256-1.379-.608zM48.588 11c0 .757.218 1.464.817 1.944l.39-.488c-.4-.321-.582-.814-.582-1.456zm.792-1.921a2.725 2.725 0 00-.792 1.92h.625a2.1 2.1 0 01.609-1.478zm1.82-.792c-.665 0-1.368.223-1.843.817l.488.39c.324-.405.821-.582 1.356-.582zm1.821.792c-.447-.448-1.123-.792-1.82-.792v.625c.502 0 1.026.256 1.379.609zm.792 1.92c0-.757-.218-1.464-.817-1.943l-.39.488c.4.32.582.813.582 1.456zm-.791 1.922c.453-.453.791-1.13.791-1.921h-.625a2.1 2.1 0 01-.608 1.479zm-1.821.791c.665 0 1.368-.223 1.844-.817l-.488-.39c-.325.405-.822.582-1.356.582z"/><path clip-rule="evenodd" d="M58.2 14.1c-.9 0-1.6-.3-2.2-.9s-.9-1.3-.9-2.2.3-1.6.9-2.2 1.3-.9 2.2-.9 1.6.3 2.2 1l-.5.5c-.4-.5-1-.8-1.7-.8s-1.2.2-1.7.7c-.5.4-.7 1-.7 1.7s.2 1.3.7 1.7c.4.4 1 .7 1.7.7s1.3-.3 1.8-.9l.5.5c-.3.3-.6.6-1 .8s-.8.3-1.3.3zm5.5-.1h-.8V8.7h-1.7V8h4.1v.7h-1.7V14zm6.9-6l-2.3 5.1c-.3.7-.8 1.1-1.4 1.1-.2 0-.4 0-.6-.1l.2-.7c.1.1.3.1.4.1.2 0 .3 0 .4-.1s.2-.2.3-.4l.2-.5-2-4.4h.9l1.5 3.4 1.4-3.4h1zm.9 6V8h4.3v6H75V8.7h-2.8V14zm5.7 0V8h.8v2.6h3V8h.8v6H81v-2.7h-3V14z" fill-rule="evenodd" stroke="#fff" stroke-width=".625"/><path clip-rule="evenodd" d="M85.9 14.1c.9 0 1.6-.3 2.2-.9.5-.6.8-1.3.9-2.2 0-.9-.3-1.6-.9-2.2s-1.3-.9-2.2-.9-1.6.3-2.2.9-.9 1.3-.9 2.2.3 1.6.9 2.2 1.3.9 2.2.9zm-.1-.7c-.6 0-1.2-.3-1.6-.7s-.7-1-.7-1.7.3-1.3.7-1.7c.4-.5 1-.7 1.6-.7s1.2.3 1.6.7c.5.4.7 1 .7 1.7s-.3 1.3-.7 1.7c-.4.5-1 .7-1.6.7z" fill-rule="evenodd"/><path d="M88.1 13.2l.222.221.01-.01.009-.01zM89 11l.311.035.002-.017V11zm-4.8 1.7l.222-.22zm0-3.4l.222.222.012-.013.01-.013zm3.2 0l-.22.222.012.012.014.01zm0 3.4l-.22-.22-.012.012-.011.013zm.48.28c-.541.54-1.162.808-1.98.808v.625c.984 0 1.763-.333 2.422-.992zm.81-2.014c-.093.844-.371 1.485-.83 2.034l.48.4c.543-.65.865-1.409.971-2.365zm-.81-1.945c.541.542.808 1.162.808 1.98h.625c0-.983-.332-1.763-.991-2.422zm-1.98-.808c.818 0 1.439.267 1.98.808l.442-.442c-.659-.658-1.438-.991-2.421-.991zm-1.978.808c.541-.54 1.162-.808 1.979-.808v-.625c-.983 0-1.762.333-2.421.991zm-.809 1.98c0-.818.268-1.438.809-1.98l-.442-.442c-.659.66-.992 1.439-.992 2.421zm.809 1.978c-.541-.54-.809-1.161-.809-1.979h-.625c0 .983.333 1.763.992 2.421zm1.979.809c-.817 0-1.438-.267-1.98-.809l-.441.442c.659.66 1.438.992 2.42.992zm-1.921-.866c.447.447 1.123.791 1.82.791v-.625c-.502 0-1.026-.256-1.378-.608zM83.188 11c0 .79.339 1.468.792 1.92l.442-.441a2.1 2.1 0 01-.609-1.48zm.792-1.921a2.725 2.725 0 00-.792 1.92h.625a2.1 2.1 0 01.609-1.478zm1.82-.792c-.665 0-1.368.223-1.843.817l.488.39c.324-.405.821-.582 1.356-.582zm1.822.792c-.448-.448-1.124-.792-1.821-.792v.625c.502 0 1.026.256 1.379.609zm.791 1.92c0-.757-.218-1.464-.817-1.943l-.39.488c.4.32.582.813.582 1.456zm-.791 1.922c.453-.453.791-1.13.791-1.921h-.625a2.1 2.1 0 01-.608 1.479zm-1.821.791c.665 0 1.368-.223 1.844-.817l-.488-.39c-.325.405-.822.582-1.356.582z"/><path clip-rule="evenodd" d="M92.1 14V8h2.2c.5 0 .9.2 1.2.5s.5.7.5 1.2c0 .237-.062.412-.138.623l-.061.177c-.1.2-.3.4-.6.5.3.1.5.3.7.5s.3.5.3.9c0 .5-.2.9-.5 1.2-.4.3-.8.5-1.3.5h-2.3zm.8-3.4h1.4c.3 0 .5-.1.7-.3s.3-.4.3-.6-.1-.4-.3-.6-.4-.3-.7-.3h-1.4zm1.6 2.7H93v-2h1.5c.3 0 .5.1.7.3s.3.5.3.7c0 .3-.1.5-.3.7s-.4.3-.7.3z" fill-rule="evenodd"/><path d="M92.1 8v-.313h-.312V8zm3.762 2.323l-.294-.105-.001.003zm0 0l.295.106v-.003zm-.061.177l.28.14.009-.02.007-.021zm-.6.5l-.1-.296-.889.296.89.296zm.5 2.6l.187.25.018-.013.016-.016zm-3.6.5h-.313v.313h.313zm.8-3.5h-.313v.312h.313zM95 9.1l.22-.221zm-2.1-.3v-.313h-.313V8.8zm.1 4.5h-.313v.312H93zm0-2v-.313h-.313v.313zm2.2 1.7l-.221-.221zm-3.413-5v6h.625V8zm2.513-.313h-2.2v.625h2.2zm1.42.592a1.969 1.969 0 00-1.42-.592v.625c.408 0 .73.161.979.409zm.592 1.421c0-.592-.24-1.069-.591-1.421l-.442.442c.247.248.408.57.408.979zm-.156.729c.074-.21.156-.431.156-.729h-.625c0 .177-.043.304-.12.518zm0-.003l-.59-.205zm-.06.173l.06-.17-.589-.211c-.02.055-.042.117-.064.183zm-.798.697c.38-.126.645-.384.781-.656l-.559-.28a.712.712 0 01-.42.343zm.823-.017c-.195-.194-.443-.449-.823-.576l-.197.593c.22.074.372.22.578.425zm.391 1.121c0-.448-.112-.842-.391-1.121l-.442.442c.12.12.208.327.208.679zm-.591 1.421a1.97 1.97 0 00.591-1.421h-.625c0 .408-.16.731-.408.979zm-1.521.591c.594 0 1.06-.241 1.487-.562l-.375-.5c-.372.28-.707.437-1.112.437zm-2.3 0h2.3v-.625h-2.3zM91.788 14v.1h.625V14zm2.513-3.713h-1.4v.625h1.4zm.479-.208a.73.73 0 01-.219.16.62.62 0 01-.26.048v.625c.186 0 .355-.031.514-.102a1.35 1.35 0 00.407-.29zm.208-.38c0 .089-.042.214-.208.38l.442.442c.234-.234.391-.51.391-.821zm-.208-.378c.166.166.208.29.208.379h.625c0-.312-.157-.587-.391-.821zm-.48-.209a.63.63 0 01.261.048.76.76 0 01.219.16l.442-.441a1.35 1.35 0 00-.407-.29 1.243 1.243 0 00-.514-.102zm-1.4 0h1.4v-.625h-1.4zm.313 1.488V8.8h-.625v1.8zm-.212 3.012h1.5v-.625H93zm-.313-2.312v2h.625v-2zm1.813-.313H93v.625h1.5zm.92.392a1.35 1.35 0 00-.406-.29 1.245 1.245 0 00-.514-.102v.625c.113 0 .194.019.26.048a.73.73 0 01.219.16zm.392.92a1.39 1.39 0 00-.391-.92l-.442.442a.772.772 0 01.208.479zm-.391.922c.118-.119.22-.25.29-.407.07-.158.101-.328.101-.514h-.625a.622.622 0 01-.048.26.73.73 0 01-.16.219zm-.921.391c.186 0 .355-.031.514-.102a1.35 1.35 0 00.406-.29l-.441-.441a.73.73 0 01-.219.16.62.62 0 01-.26.048z"/></g></svg>