<svg fill="none" height="67" width="70" xmlns="http://www.w3.org/2000/svg"><path d="M33.333 0C14.953 0 0 14.953 0 33.333s14.953 33.334 33.333 33.334 33.334-14.954 33.334-33.334c0-3.753-.654-7.352-1.804-10.722l-5.397 5.397c.35 1.72.534 3.502.534 5.325C60 48.037 48.037 60 33.333 60 18.63 60 6.667 48.037 6.667 33.333c0-14.703 11.963-26.666 26.666-26.666a26.501 26.501 0 0114.733 4.46l4.772-4.773C47.345 2.374 40.617 0 33.334 0zM64.31 4.31L30 38.62 19.023 27.643l-4.713 4.714L30 48.047 69.023 9.023z" fill="#2462f2"/></svg>