<svg fill="none" height="128" width="128" xmlns="http://www.w3.org/2000/svg"><path d="M64 12c-28.6 0-51.8 23.3-51.8 52s23.2 52 51.8 52 51.8-23.3 51.8-52S92.6 12 64 12zm0 81c-16 0-28.9-13-28.9-29S48 35 64 35s28.9 13 28.9 29S80 93 64 93z" fill="#f7f7fb"/><path d="M115.8 64H92.9c0 5-1.2 10-3.9 14.6-2.6 4.5-6.2 8-10.4 10.5L90 108.9c15.5-9 25.8-25.7 25.8-44.9z" fill="#f37778"/><path d="M90 108.9l-3.832-6.656c-7.741 7.151-17.66 11.975-28.646 13.353 0 0 17.456 2.292 32.478-6.697z" fill="#c8c9cd"/><path d="M38.2 18.9l11.5 20c4.2-2.4 9.1-3.8 14.3-3.8 5.3 0 10.3 1.5 14.6 4l11.5-20C82.4 14.6 73.5 12 64 12c-9.4 0-18.2 2.5-25.8 6.9z" fill="#f37778"/><path d="M90.1 19.1l-3.863 6.72C96.485 35.321 102.9 48.915 102.9 64h12.9c0-30.5-25.7-44.9-25.7-44.9z" fill="#c8c9cd"/><path d="M115.8 64h-12.9c0 15.118-6.444 28.738-16.733 38.244L90 108.9a51.935 51.935 0 0015.808-14.205c6.258-8.572 9.963-19.14 9.992-30.567V64z" fill="#c56264"/><path d="M35.2 63.8H12.4c0 8.9 2.2 17.9 6.9 26.2 4.7 8.1 11.3 14.5 18.8 18.9L49.6 89c-9.3-5.3-14.5-15.1-14.4-25.2z" fill="#f37778"/><path d="M64 12c-2.152 0-4.303.191-6.361.387l-.123.015c11.022 1.381 20.967 6.228 28.72 13.417L90.1 19.1c-7.684-4.491-16.564-7.09-26.042-7.1H64z" fill="#c56264"/><path d="M64 119C33.8 119 9.2 94.3 9.2 64S33.8 9 64 9c30.2 0 54.8 24.7 54.8 55S94.2 119 64 119zm0-104c-26.9 0-48.8 22-48.8 49s21.9 49 48.8 49 48.8-22 48.8-49S90.9 15 64 15zm0 80.9c-17.6 0-31.8-14.3-31.8-31.9S46.4 32.1 64 32.1 95.8 46.4 95.8 64 81.6 95.9 64 95.9zm0-57.8c-14.3 0-25.8 11.6-25.8 25.9S49.7 89.9 64 89.9 89.8 78.3 89.8 64 78.3 38.1 64 38.1z" fill="#454b54"/></svg>