<svg fill="none" height="96" width="96" xmlns="http://www.w3.org/2000/svg"><path d="M84.896 53.765c.288-.592.544-1.214.764-1.865 2.528-7.46-1.295-16.395-9.343-18.552-.87-10.93-8.55-18.426-17.224-19.705-9.927-1.464-19.021 4.842-22.047 14.865-3.647-1.292-7.2-1.135-10.55.823-1.52.703-2.91 1.74-4.157 3.104-1.83 2.002-3.021 4.53-3.506 7.195-.718.113-1.424.226-2.089.464-3.878 1.391-6.325 4.254-6.997 8.566-.417 2.686.426 5.364.896 6.446 1.858 4.277 6.165 6.7 10.542 6.06.218-.032.535.066.722.223.231 6.835 3.55 12.88 8.529 16.334 7.988 5.54 18.265 3.834 24.75-3.765 2.778 2.842 6.084 4.222 9.968 3.721 3.862-.498 6.861-2.63 9.049-6.095 1.01.272 1.969.664 2.96.772 3.88.424 7.03-1.118 9.342-4.608.885-1.335 1.722-3.066 1.722-6.1 0-3.124-1.24-5.973-3.33-7.883z" fill="#c7ede6"/><path d="M69.319 47.922H80.61a4.693 4.693 0 00.964-9.286c.025-.198.041-.399.041-.603a4.86 4.86 0 00-4.86-4.86 4.847 4.847 0 00-3.876 1.936 5.36 5.36 0 00-6.019-4.912c-2.284.28-4.172 2.045-4.593 4.307-.134.726-.12 1.43.014 2.09a3.333 3.333 0 00-2.453-1.074 3.35 3.35 0 00-3.34 3.13 4.499 4.499 0 00-2.61.18c-1.765.664-3.023 2.327-3.097 4.212a4.694 4.694 0 004.69 4.882h10.818" fill="#fdfcef"/><path d="M80.61 48.402H69.32a.48.48 0 010-.96h11.29a4.218 4.218 0 004.214-4.213 4.228 4.228 0 00-3.347-4.124.48.48 0 01-.378-.528c.02-.18.037-.36.037-.544a4.385 4.385 0 00-4.38-4.38c-1.38 0-2.655.636-3.494 1.745a.479.479 0 01-.86-.253 4.903 4.903 0 00-1.777-3.407 4.857 4.857 0 00-3.705-1.064c-2.079.254-3.797 1.865-4.18 3.917a4.956 4.956 0 00.013 1.907.48.48 0 01-.823.422 2.841 2.841 0 00-2.1-.92 2.877 2.877 0 00-2.862 2.682.478.478 0 01-.582.437 3.984 3.984 0 00-2.335.16c-1.602.601-2.723 2.12-2.787 3.78a4.183 4.183 0 001.173 3.09 4.176 4.176 0 003.037 1.293h10.815a.48.48 0 010 .96H55.47a5.131 5.131 0 01-3.73-1.587 5.132 5.132 0 01-1.44-3.793c.08-2.042 1.45-3.907 3.41-4.641a4.98 4.98 0 012.368-.288 3.841 3.841 0 013.749-3.054c.658 0 1.3.172 1.866.49 0-.371.034-.743.103-1.113.457-2.46 2.514-4.391 5.005-4.696a5.795 5.795 0 014.43 1.275 5.874 5.874 0 011.957 3.066 5.284 5.284 0 013.566-1.368 5.347 5.347 0 015.334 5.579 5.197 5.197 0 013.694 4.957 5.177 5.177 0 01-5.173 5.173z" fill="#472b29"/><path d="M66.599 37.585c-1.736-.115-3.23 1.084-3.337 2.677a2.66 2.66 0 00.024.582 2.041 2.041 0 00-1.4-.672c-1.042-.068-1.941.62-2.072 1.555a2.973 2.973 0 00-.59-.1c-1.52-.1-2.827.95-2.921 2.344" fill="#fdfcef"/><path d="M56.303 44.21h-.016a.238.238 0 01-.223-.256c.102-1.523 1.517-2.68 3.176-2.566.131.009.26.025.392.051.263-.928 1.203-1.573 2.27-1.505.409.027.79.154 1.117.367l.004-.053c.115-1.723 1.73-3.013 3.592-2.901a.238.238 0 01.223.255c-.007.131-.1.245-.255.224-1.599-.097-2.984.996-3.083 2.454-.011.179-.004.357.022.53a.24.24 0 01-.417.195 1.815 1.815 0 00-1.236-.592c-.909-.056-1.704.534-1.817 1.349a.248.248 0 01-.106.167.232.232 0 01-.195.031 2.824 2.824 0 00-.544-.092c-1.397-.102-2.58.86-2.666 2.12a.238.238 0 01-.238.222z" fill="#472b29"/><path d="M82.51 39.186c-1.63-.77-3.517-.225-4.213 1.216-.086.179-.15.364-.192.551" fill="#fdfcef"/><path d="M78.105 41.193a.24.24 0 01-.234-.293 2.73 2.73 0 01.211-.603c.752-1.556 2.784-2.152 4.532-1.327a.24.24 0 01-.205.435c-1.513-.713-3.257-.218-3.894 1.103a2.21 2.21 0 00-.176.499.24.24 0 01-.234.186z" fill="#472b29"/><path d="M17.373 46.12H7.745a.48.48 0 010-.96h9.628a.48.48 0 010 .96zm2.767 0h-1.388a.48.48 0 010-.96h1.389a.48.48 0 010 .96zm3.892 0h-2.444a.48.48 0 010-.96h2.444a.48.48 0 010 .96zm.001 1.79H14.8a.48.48 0 010-.96h9.232a.48.48 0 010 .96zm-10.895 0h-.556a.48.48 0 010-.96h.556a.48.48 0 010 .96zm-2.282 0H9.46a.48.48 0 010-.96h1.397a.48.48 0 010 .96zm8.77-3.58H14.8a.48.48 0 010-.96h4.826a.48.48 0 010 .96zm0-1.79H18.42a.48.48 0 010-.96h1.207a.48.48 0 010 .96zm-3.138 7.16h-1.689a.48.48 0 010-.96h1.689a.48.48 0 010 .96zm51.937-28.806h-9.63a.48.48 0 010-.96h9.63a.48.48 0 010 .96zm2.766 0h-1.389a.48.48 0 010-.96h1.388a.48.48 0 01.001.96zm3.892 0H72.64a.48.48 0 010-.96h2.444a.48.48 0 010 .96zm-1.945-3.58h-9.231a.48.48 0 010-.96h9.231a.48.48 0 010 .96zm-10.894 0h-.557a.48.48 0 010-.96h.557a.48.48 0 010 .96zm-2.282 0h-1.398a.48.48 0 010-.96h1.398a.48.48 0 010 .96zm10.716 1.789h-4.826a.48.48 0 010-.96h4.826a.48.48 0 010 .96z" fill="#fff"/><path d="M70.678 17.314H69.47a.48.48 0 010-.96h1.208a.48.48 0 010 .96zm-6.224 1.789h-1.689a.48.48 0 010-.96h1.689a.48.48 0 010 .96z" fill="#fff"/><path d="M52.546 23.488c-1.16-1.088-2.975-1.088-4.172 0l-16.36 15.019v24.631a3.081 3.081 0 003.083 3.084H65.86a3.081 3.081 0 003.084-3.084V38.507z" fill="#fdfcef"/><path d="M63.349 63.945h-25.74a3.25 3.25 0 01-3.24-3.241V40.89a3.25 3.25 0 013.24-3.24h25.74a3.25 3.25 0 013.24 3.24v19.812a3.25 3.25 0 01-3.24 3.242z" fill="#efeddf"/><path d="M63.35 64.353H37.608a3.653 3.653 0 01-3.649-3.65V40.892a3.653 3.653 0 013.649-3.649h25.74a3.653 3.653 0 013.648 3.65v19.812a3.651 3.651 0 01-3.648 3.649zM37.608 38.058a2.836 2.836 0 00-2.833 2.833v19.813a2.836 2.836 0 002.833 2.833h25.74a2.836 2.836 0 002.832-2.833V40.89a2.836 2.836 0 00-2.833-2.833z" fill="#472b29"/><path d="M53.853 52.364l-1.27-1.16c-1.161-1.09-2.975-1.09-4.172 0l-1.27 1.16-15.127-13.858v24.632c0 1.197.652 2.213 1.632 2.72.073.037.181.074.254.11h.037a.522.522 0 00.254.072c.036 0 .073 0 .073.037.073.036.145.036.218.036.036 0 .108 0 .145.037.036 0 .108 0 .145.036h31.415c.036 0 .108 0 .145-.036.036 0 .108 0 .145-.037.073 0 .145-.036.218-.036.036 0 .073 0 .073-.037.073-.036.145-.036.254-.073h.036c.073-.036.182-.073.255-.108a3.032 3.032 0 001.632-2.721V38.506z" fill="#f8ab97"/><path d="M32.6 65.54l14.953-13.542s1.383-1.63 2.952-1.556c1.568.074 3.158 1.922 3.158 1.922l14.485 13.402" fill="#ee8670"/><path d="M67.871 66.065L53.385 52.664c-.046-.05-1.529-1.748-2.9-1.814-1.339-.027-2.608 1.399-2.62 1.413l-14.992 13.58-.547-.605L47.28 51.697c.024-.035 1.48-1.765 3.245-1.66 1.724.08 3.38 1.98 3.448 2.061l14.455 13.368z" fill="#472b29"/><path d="M32.291 38.207l-.55.602 15.127 13.858.551-.602zm21.371 14.565a.41.41 0 01-.276-.71l1.711-1.566a.409.409 0 01.552.602l-1.71 1.567a.41.41 0 01-.277.107zm3.416-3.129a.41.41 0 01-.276-.71l.654-.599a.41.41 0 01.552.602l-.654.6a.406.406 0 01-.276.107zm1.975-1.713a.41.41 0 01-.278-.707l9.736-9.016a.408.408 0 01.556.599l-9.737 9.016a.405.405 0 01-.277.109z" fill="#472b29"/><path d="M65.86 66.894H35.097c-.548 0-1.09-.126-1.61-.373a1.746 1.746 0 01-.142-.061 3.027 3.027 0 01-.24-.143 3.653 3.653 0 01-1.668-2.36l-.026-.124a3.745 3.745 0 01-.07-.695V38.212l16.58-15.22c1.448-1.315 3.68-1.311 5.085.006L69.617 38.21v24.927c0 .238-.028.468-.07.692l-.021.112a3.678 3.678 0 01-1.55 2.3l-.119.073a3.045 3.045 0 01-.235.14 2.635 2.635 0 01-.19.083 3.66 3.66 0 01-1.572.356zm1.032-1.586l.408.557-.295-.604c.041-.021.083-.05.126-.077l.097-.06c.5-.336.85-.851.98-1.453.043-.228.063-.377.063-.533V38.802L52.092 23.984c-.902-.847-2.335-.843-3.265.001L32.686 38.802v24.336c0 .155.02.303.047.448.148.686.497 1.202 1 1.538l-.267.626.363-.565c.042.027.085.055.13.079l.106.044c.338.16.685.242 1.032.242H65.86c.347 0 .696-.082 1.032-.242z" fill="#472b29"/><path d="M38.628 71.103h3.399c2.025 0 3.668-1.607 3.668-3.59 0-1.73-1.25-3.172-2.914-3.513.02-.152.033-.304.033-.46 0-2.054-1.701-3.719-3.8-3.719a3.815 3.815 0 00-3.028 1.482c-.177-2.286-2.263-4.05-4.704-3.757-1.784.214-3.261 1.564-3.59 3.294a4.08 4.08 0 00.011 1.598 2.637 2.637 0 00-1.918-.822c-1.388 0-2.522 1.058-2.611 2.395a3.595 3.595 0 00-2.038.137c-1.38.507-2.364 1.779-2.421 3.222-.082 2.047 1.59 3.733 3.665 3.733h8.456zm-6.219 0h.346z" fill="#fdfcef"/><path d="M42.026 71.583h-3.398a.48.48 0 010-.96h3.398c1.758 0 3.187-1.395 3.187-3.11 0-1.462-1.063-2.742-2.53-3.043a.48.48 0 01-.38-.528c.016-.133.028-.266.028-.403 0-1.785-1.49-3.238-3.32-3.238a3.322 3.322 0 00-2.649 1.294.478.478 0 01-.857-.256 3.568 3.568 0 00-1.315-2.5 3.745 3.745 0 00-2.853-.818c-1.58.19-2.887 1.385-3.176 2.907-.09.476-.087.95.009 1.412a.481.481 0 01-.819.427 2.142 2.142 0 00-1.57-.672c-1.122 0-2.06.856-2.132 1.947a.482.482 0 01-.58.437 3.081 3.081 0 00-1.771.12c-1.212.444-2.06 1.565-2.107 2.789-.034.84.27 1.64.859 2.25.61.635 1.436.984 2.327.984h8.455a.48.48 0 010 .96h-8.454a4.202 4.202 0 01-3.02-1.278 4.001 4.001 0 01-1.126-2.954c.065-1.608 1.164-3.076 2.736-3.653a4.028 4.028 0 011.805-.235c.332-1.34 1.564-2.328 3.01-2.328.473 0 .938.109 1.357.31.01-.23.035-.463.08-.695.365-1.93 2.012-3.443 4.003-3.682a4.71 4.71 0 013.577 1.03 4.54 4.54 0 011.485 2.209 4.287 4.287 0 012.729-.967c2.36 0 4.279 1.883 4.279 4.198l-.002.098c1.694.533 2.883 2.1 2.883 3.877 0 2.245-1.861 4.071-4.148 4.071zm-9.271 0h-.345a.48.48 0 010-.96h.345a.48.48 0 010 .96z" fill="#472b29"/><path d="M40.387 66.012a.24.24 0 01-.234-.293c.035-.159.09-.313.164-.46.579-1.174 2.182-1.606 3.572-.965a.239.239 0 01.117.319.24.24 0 01-.318.117c-1.156-.534-2.476-.202-2.94.743a1.534 1.534 0 00-.126.352.242.242 0 01-.235.187zm-4.952 5.571h-1.062a.48.48 0 010-.96h1.062a.48.48 0 010 .96z" fill="#472b29"/><path d="M50.78 39.478h-.002a4.458 4.458 0 00-3.173 1.315 4.465 4.465 0 00-1.319 3.175c0 1.198.467 2.326 1.315 3.176a4.462 4.462 0 003.175 1.319h.003a4.497 4.497 0 004.492-4.49 4.497 4.497 0 00-4.49-4.495zm1.494 6.644a4.958 4.958 0 00-1.31-.222l.001-1.743 1.726.001a5.58 5.58 0 01-.417 1.964zm.201.472c.3.12.596.277.88.469a4.02 4.02 0 01-1.802.858c.368-.385.678-.83.922-1.327zm-1.509-2.812l.001-1.441a5.01 5.01 0 001.415-.259c.186.533.291 1.104.31 1.702zm1.626-2.177a5.303 5.303 0 00-1.035-1.586 4 4 0 011.992 1.03 4.58 4.58 0 01-.957.556zm1.047 5.2a4.968 4.968 0 00-1.013-.555 5.97 5.97 0 00.442-2.093l1.731.003a4.01 4.01 0 01-1.16 2.645zm-.905-4.853c.376-.16.737-.373 1.075-.632a4.03 4.03 0 01.991 2.464l-1.731-.001a6.011 6.011 0 00-.335-1.831zm-1.767.012l.001-1.987a4.844 4.844 0 011.273 1.757c-.41.136-.838.214-1.274.23zm-.002 4.312c.404.017.793.08 1.154.189a4.79 4.79 0 01-1.155 1.497zm-1.886.317c.243.496.552.941.921 1.327a4.016 4.016 0 01-1.801-.86c.28-.19.576-.348.88-.467zm-.59-2.437c.022.732.17 1.435.438 2.093-.348.138-.69.324-1.014.553a4.014 4.014 0 01-1.156-2.648zm2.1 1.743a4.999 4.999 0 00-1.31.221 5.608 5.608 0 01-.416-1.964l1.726.001zm-1.622-4.296a4.638 4.638 0 01-.956-.556 4.005 4.005 0 011.993-1.028c-.43.45-.78.982-1.037 1.584zm.21.478c.456.154.93.241 1.414.26l-.001 1.44h-1.726c.02-.6.126-1.17.313-1.7zm1.414-.117a4.659 4.659 0 01-1.273-.23 4.875 4.875 0 011.275-1.757zm-2.839-.647c.34.26.7.474 1.072.633a6.05 6.05 0 00-.336 1.83l-1.732-.001a4.031 4.031 0 01.996-2.462zm2.837 4.959l-.001 1.685a4.8 4.8 0 01-1.153-1.497 4.53 4.53 0 011.154-.188z" fill="#b7b4a5"/><path d="M66.62 67.481c-5.567-2.807-7.832-9.588-5.062-15.147 2.77-5.559 9.528-7.79 15.094-4.983 5.566 2.807 7.832 9.589 5.061 15.148-2.77 5.56-9.528 7.79-15.094 4.982z" fill="#bd977c"/><path d="M71.69 69.179a11.71 11.71 0 01-5.287-1.268c-5.792-2.92-8.159-10.004-5.275-15.79a11.571 11.571 0 016.758-5.863c2.98-.99 6.168-.752 8.981.666 5.792 2.921 8.159 10.004 5.275 15.79a11.574 11.574 0 01-6.758 5.863c-1.21.402-2.454.602-3.695.602zm-.108-22.563c-1.14 0-2.282.182-3.394.552a10.623 10.623 0 00-6.2 5.38c-2.65 5.313-.474 11.82 4.848 14.504a10.703 10.703 0 008.248.613 10.625 10.625 0 006.2-5.38c2.649-5.314.474-11.82-4.849-14.505a10.756 10.756 0 00-4.853-1.164z" fill="#472b29"/><path d="M77.204 47.732l-1.034-.518a.857.857 0 01-.38-1.147.857.857 0 011.146-.381l1.034.518c.42.21.592.727.381 1.147a.857.857 0 01-1.147.381z" fill="#836f61"/><path d="M77.584 48.182c-.182 0-.367-.04-.541-.127l-1.033-.519a1.207 1.207 0 01-.608-.703 1.208 1.208 0 01.768-1.534c.308-.102.637-.08.928.065l1.033.518c.29.145.505.396.608.704a1.21 1.21 0 01-1.155 1.597zm-.22-.771a.498.498 0 00.665-.22.495.495 0 00-.222-.664l-1.033-.519a.49.49 0 00-.377-.026.492.492 0 00-.066.91z" fill="#472b29"/><path d="M71.797 66.746a9.517 9.517 0 100-19.035 9.517 9.517 0 000 19.035z" fill="#fdfcee"/><path d="M78.52 47.374a.36.36 0 01-.053-.715 2.138 2.138 0 001.59-1.153 2.115 2.115 0 00.117-1.626 2.12 2.12 0 00-1.067-1.234 2.109 2.109 0 00-1.627-.117 2.12 2.12 0 00-1.233 1.068c-.332.661-.322 1.357.025 1.959a.36.36 0 11-.623.36c-.474-.819-.49-1.757-.046-2.642a2.83 2.83 0 011.65-1.427 2.836 2.836 0 012.177.156c.68.342 1.187.927 1.427 1.65a2.853 2.853 0 01-2.284 3.718.467.467 0 01-.052.003z" fill="#472b29"/><path d="M76.593 58.664c.134.003.254-.021.292-.174.037-.15-.026-.255-.164-.32-.031-.014-.06-.031-.092-.046l-2.784-1.379c.059-.061.105-.111.154-.158.369-.357.734-.716 1.108-1.067.115-.108.174-.207.078-.359-.09-.144-.204-.134-.341-.086-.485.167-.972.328-1.458.49-.06.02-.122.036-.2.058l.061-3.186c.003-.135-.022-.255-.172-.295-.16-.043-.242.054-.305.183-.314.64-1.52 3.773-1.52 3.773s-3.443-.16-4.216-.175c-.146-.003-.286.004-.326.182-.038.164.069.239.198.294.032.014.062.033.093.048l2.799 1.388c-.05.056-.09.103-.133.145-.384.371-.766.743-1.152 1.111-.095.091-.183.18-.103.32.087.155.216.11.345.066.551-.186 1.102-.37 1.674-.56.003.07.007.123.006.177a1610.2 1610.2 0 01-.054 3.029c-.003.142.016.269.18.307.161.039.237-.064.299-.193.17-.355 1.538-3.48 1.538-3.48s3.683-.103 4.195-.093z" fill="#cdcbbd"/><path d="M70.726 62.629a.505.505 0 01-.11-.014c-.337-.08-.33-.395-.328-.498.02-.979.036-1.958.054-2.936l-1.425.478c-.124.04-.41.139-.574-.153-.155-.274.043-.463.138-.554.313-.3.625-.6.937-.902l.163-.159-2.567-1.272c-.003 0-.041-.022-.043-.023-.361-.158-.385-.375-.35-.534.077-.338.395-.334.518-.33l2.32.042a.192.192 0 01-.005.385h-.004l-2.319-.043a.375.375 0 00-.13.01c-.008.046.006.065.082.098.025.01.049.024.073.037l2.827 1.403a.193.193 0 01.056.302l-.049.054a1.54 1.54 0 01-.092.099l-.215.208c-.312.303-.624.605-.938.904a.445.445 0 00-.078.086c.03.015.086-.007.121-.018l1.678-.562a.182.182 0 01.17.024c.05.035.08.09.084.15l.002.063c.002.045.005.086.004.125-.018 1.019-.035 2.024-.055 3.029-.002.086.008.106.011.11.047.009.066-.005.103-.082.087-.18.3-.735.487-1.223.183-.476.34-.886.404-1.014a.193.193 0 01.257-.088.191.191 0 01.088.257c-.055.113-.224.555-.389.982-.2.52-.407 1.057-.5 1.252-.098.203-.235.307-.406.307zm5.984-3.773h-.02l-.96-.023c-.423-.01-.858-.022-1.133-.027a.192.192 0 01.004-.385h.004c.274.005.71.016 1.134.027.366.01.722.018.96.023.082.007.094-.009.096-.01.016-.058.021-.082-.053-.118l-.058-.028-2.822-1.4a.193.193 0 01-.053-.305l.05-.052c.04-.04.073-.076.108-.11l.233-.227c.291-.282.581-.565.877-.842.059-.056.064-.077.064-.079l-.041-.066c0-.001-.014-.006-.094.021-.38.132-.763.26-1.144.386l-.314.105c-.044.015-.09.027-.139.04l-.07.02a.186.186 0 01-.17-.033.194.194 0 01-.075-.155l.06-3.186c.002-.08-.01-.1-.011-.1-.042-.01-.064 0-.1.076-.314.64-.629 1.278-.945 1.917a.194.194 0 01-.258.086.192.192 0 01-.088-.257c.316-.637.631-1.277.945-1.916.154-.312.376-.324.528-.283.213.057.319.22.313.484l-.057 2.924.258-.087c.38-.127.761-.254 1.14-.385.096-.032.383-.13.569.166.195.311-.034.528-.109.6-.295.278-.583.56-.873.84l-.197.192 2.547 1.262a2.13 2.13 0 01.09.046c.223.105.324.308.266.54-.036.146-.145.32-.462.32z" fill="#472b29"/><path d="M69.329 52.39c-.1-.154-.362-.163-.586-.021-.224.143-.325.386-.227.54l2.462 4.794 3.32 4.244c.1.154.362.163.586.021.224-.143.325-.386.227-.54l-2.462-4.794zm2.726 5.156a.447.447 0 11-.482-.754.447.447 0 01.482.754z" fill="#ee3e54"/><g fill="#472b29"><path d="M74.56 62.31a.607.607 0 01-.14-.016.504.504 0 01-.324-.218l-3.307-4.226-2.486-4.832a.49.49 0 01-.051-.365.801.801 0 01.361-.486.807.807 0 01.593-.125c.134.03.246.102.317.206l3.314 4.238 2.486 4.831a.49.49 0 01.052.365.802.802 0 01-.362.487.831.831 0 01-.452.14zm-5.493-9.802a.37.37 0 00-.194.064c-.128.081-.16.187-.153.209l2.472 4.812 3.297 4.207c.027.032.138.047.265-.033.128-.082.16-.188.153-.21l-2.472-4.812-3.296-4.207c-.004-.006-.01-.011-.013-.017-.007-.007-.029-.013-.059-.013zm2.747 5.348a.687.687 0 11-.002-1.374.687.687 0 01.002 1.374zm0-.895a.208.208 0 10.112.383.209.209 0 00-.113-.383z"/><path d="M62.158 57.983a.336.336 0 01-.336-.323c-.005-.12-.005-.175-.005-.298 0-5.445 4.43-9.877 9.876-9.877 3.077 0 5.965 1.386 7.726 3.707a.336.336 0 11-.534.406c-1.636-2.154-4.324-3.44-7.191-3.44-5.075 0-9.205 4.128-9.205 9.203 0 .111 0 .16.005.27a.336.336 0 01-.321.35c-.006.002-.011.002-.015.002zm.14 1.378a.336.336 0 01-.332-.279l-.032-.2a.336.336 0 01.663-.104l.03.19a.335.335 0 01-.33.394z"/><path d="M71.693 67.239a9.836 9.836 0 01-9.614-7.603.336.336 0 01.655-.154 9.164 9.164 0 008.959 7.085c5.074 0 9.204-4.13 9.204-9.204a9.12 9.12 0 00-.912-3.998.336.336 0 11.606-.292 9.785 9.785 0 01.978 4.29c0 5.445-4.43 9.876-9.876 9.876zm8.136-14.527a.336.336 0 01-.286-.16 10.49 10.49 0 00-.234-.36.336.336 0 01.555-.379c.086.127.17.256.25.386a.334.334 0 01-.109.462.331.331 0 01-.176.051zm-7.979-2.713a.24.24 0 01-.24-.24v-1.715a.24.24 0 01.48 0v1.715a.24.24 0 01-.24.24z"/><path d="M71.848 67.147a.24.24 0 01-.24-.24v-1.715a.24.24 0 01.48 0v1.715a.24.24 0 01-.24.24zm9.219-9.173h-1.715a.24.24 0 010-.48h1.715a.24.24 0 010 .48zm-17.147 0h-1.715a.24.24 0 010-.48h1.714a.24.24 0 010 .48zm6.762 4.465l-.015-.001a.095.095 0 01-.08-.11l.291-1.879c.008-.051.048-.094.11-.08a.095.095 0 01.08.11l-.292 1.879a.095.095 0 01-.094.08zm6.274-3.903c-.005 0-.012 0-.018-.002l-1.733-.33a.096.096 0 01-.076-.112c.011-.051.06-.089.112-.076l1.733.329c.053.01.086.06.077.112a.098.098 0 01-.095.079zm-8.384.929a.096.096 0 01-.082-.046.096.096 0 01.032-.132l1.142-.697a.097.097 0 01.132.032.096.096 0 01-.032.132l-1.142.697a.094.094 0 01-.05.014zm5.596-3.557a.096.096 0 01-.049-.18l1.118-.652a.096.096 0 01.098.166l-1.118.652a.1.1 0 01-.049.014zm-5.965.575a.126.126 0 01-.02-.001l-1.395-.285a.095.095 0 01-.075-.113c.01-.052.067-.082.113-.075l1.395.284a.095.095 0 01.075.114.095.095 0 01-.093.077zm4.6-2.884a.095.095 0 01-.091-.123l.373-1.306a.097.097 0 01.119-.067c.05.015.08.067.065.12l-.374 1.306a.095.095 0 01-.092.07zm5.585-1.356a.24.24 0 01-.141-.434l.78-.57a.24.24 0 11.283.388l-.78.57a.243.243 0 01-.142.046zM64.595 63.995a.24.24 0 01-.156-.423l.578-.492c.1-.085.252-.074.339.027s.074.252-.027.339l-.577.491a.24.24 0 01-.157.058zm12.961 1.066a.24.24 0 01-.182-.084l-.411-.481a.24.24 0 01.366-.312l.41.48a.24.24 0 01-.183.397zm-11.84-13.895a.24.24 0 01-.182-.084l-.394-.463a.24.24 0 01.366-.312l.394.463a.24.24 0 01-.184.396z"/></g></svg>