<svg fill="none" height="32" viewBox="0 0 32 32" width="32" xmlns="http://www.w3.org/2000/svg"><path d="m0 0h32v32h-32z" fill="#fff"/><path d="m12.5272 9.87568c0-.48363.3921-.87568.8757-.87568h13.9361c.4836 0 .8757.39205.8757.87568v2.60192c0 .4836-.3921.8757-.8757.8757h-13.9361c-.4836 0-.8757-.3921-.8757-.8757z" stroke="currentColor" stroke-width="1.5"/><rect fill="currentColor" height="2" rx=".875676" width="5" x="17.7" y="16"/><g stroke="currentColor" stroke-width="1.5"><path d="m14.2787 13.3784h12.2595v9.946c0 .4836-.3921.8756-.8757.8756h-10.5081c-.4836 0-.8757-.392-.8757-.8756z"/><path d="m10.55 14h-5.00004" stroke-linecap="round"/><path d="m10.55 18h-6.00004" stroke-linecap="round"/><path d="m10.55 22h-7.50004" stroke-linecap="round"/></g></svg>