<svg fill="none" height="15" viewBox="0 0 8 15" width="8" xmlns="http://www.w3.org/2000/svg"><path d="m.890625 14.1484c.203125 0 .374995-.0781.507815-.2109l6.19531-6.05469c.14844-.14843.22656-.32812.22656-.52343 0-.20313-.07812-.39063-.22656-.52344l-6.1875-6.046878c-.14063-.140624-.3125-.21875-.515625-.21875-.40625 0-.710937.3125-.710937.718748 0 .1875.078124.375.203124.50782l5.687498 5.5625-5.687498 5.56252c-.125.1328-.203124.3125-.203124.5078 0 .4062.304687.7187.710937.7187z" fill="#fff"/></svg>