<svg fill="none" height="15" viewBox="0 0 16 15" width="16" xmlns="http://www.w3.org/2000/svg"><g fill="currentColor"><path d="m9.57891 0h-7.89474c-.868419 0-1.578945.710526-1.578945 1.57895v9.47365l2.368425-2.36839h7.10526c.86839 0 1.57899-.71053 1.57899-1.57895v-5.52631c0-.868424-.7106-1.57895-1.57899-1.57895zm0 7.10526h-7.10526-.63158l-.1579.1579v-5.68421h7.89474z"/><path d="m14.3157 3.94727h-3.9473v1.57894h3.9473v5.68419l-.1579-.1579h-.6315-7.10531v-3.15787h-1.57895v3.15787c0 .8684.71053 1.579 1.57895 1.579h7.10531l2.3684 2.3684v-9.47369c0-.86842-.7106-1.57894-1.579-1.57894z"/></g></svg>