<svg fill="none" height="24" viewBox="0 0 24 24" width="24" xmlns="http://www.w3.org/2000/svg"><path d="m4 3c-1.104 0-2 .895-2 2v3c1.104 0 2 .895 2 2s-.896 2-2 2v3c0 1.105.896 2 2 2h16c1.104 0 2-.895 2-2v-3c-1.104 0-2-.895-2-2s.896-2 2-2v-3c0-1.105-.896-2-2-2zm0 2h16v1.53711c-1.195.692-2 1.98489-2 3.46289s.805 2.7709 2 3.4629v1.5371h-16v-1.5371c1.195-.692 2-1.9849 2-3.4629s-.805-2.77089-2-3.46289zm.90039 14 12.43941 2.9297c.21.05.4111.0703.6211.0703 1.21 0 2.3094-.8098 2.6094-2.0098l.25-.9902h-2.0605l-.1289.5c-.09.35-.4601.5705-.8301.4805l-4.1817-.9805z" fill="currentColor"/></svg>