<?xml version="1.0" encoding="utf-8"?><svg xmlns="http://www.w3.org/2000/svg" xmlns:xlink="http://www.w3.org/1999/xlink"><symbol fill="none" viewBox="0 0 6 9" id="arrow-back" xmlns="http://www.w3.org/2000/svg"><path d="M5.05.29a.991.991 0 010 1.401L2.415 4.326 5.05 6.96a.99.99 0 01-1.401 1.401L.274 4.986a.933.933 0 010-1.32L3.649.29a.99.99 0 011.4 0z" fill="currentColor"/></symbol><symbol fill="none" viewBox="0 0 9 14" id="arrow-next" xmlns="http://www.w3.org/2000/svg"><path d="M.863 12.758a1.48 1.48 0 010-2.138L5.008 6.6.863 2.58a1.48 1.48 0 010-2.138 1.594 1.594 0 012.204 0l5.31 5.15c.575.558.575 1.46 0 2.015l-5.31 5.15c-.609.59-1.596.59-2.204 0z" fill="currentColor"/></symbol><symbol fill="none" viewBox="0 0 9 14" id="arrow-prev" xmlns="http://www.w3.org/2000/svg"><path d="M8.151 1.242a1.48 1.48 0 010 2.138L4.006 7.4l4.145 4.02a1.48 1.48 0 010 2.138c-.608.59-1.596.59-2.204 0L.636 8.408a1.393 1.393 0 010-2.015l5.31-5.15a1.594 1.594 0 012.205 0z" fill="currentColor"/></symbol><symbol fill="none" viewBox="0 0 7 11" id="btn-right" xmlns="http://www.w3.org/2000/svg"><path d="M.38 10.631a1.233 1.233 0 010-1.781L3.834 5.5.38 2.15a1.233 1.233 0 010-1.781 1.328 1.328 0 011.837 0L6.64 4.66a1.161 1.161 0 010 1.68L2.217 10.63a1.328 1.328 0 01-1.837 0z" fill="currentColor"/></symbol><symbol fill="none" viewBox="0 0 14 14" id="close-video" xmlns="http://www.w3.org/2000/svg"><g fill="currentColor"><path d="M13.007 0L0 13.007.992 14 14 .992z"/><path d="M14 13.008L.992 0 0 .993 13.007 14z"/></g></symbol><symbol fill="none" viewBox="0 0 16 16" id="forward" xmlns="http://www.w3.org/2000/svg"><path d="M9.333 12.047l1-1L7.286 8l3.047-3.047-1-1L5.286 8z" fill="currentColor"/></symbol><symbol fill="none" viewBox="0 0 28 28" id="mark" xmlns="http://www.w3.org/2000/svg"><path clip-rule="evenodd" d="M14 0c-.814 0-1.474.66-1.474 1.474v11.052H1.474a1.474 1.474 0 000 2.948h11.052v11.052a1.474 1.474 0 002.948 0V15.474h11.052a1.474 1.474 0 000-2.948H15.474V1.474C15.474.66 14.814 0 14 0z" fill="currentColor" fill-rule="evenodd"/></symbol></svg>