<?xml version="1.0" encoding="utf-8"?><svg xmlns="http://www.w3.org/2000/svg" xmlns:xlink="http://www.w3.org/1999/xlink"><symbol fill="none" viewBox="0 0 9 14" id="arrow-next" xmlns="http://www.w3.org/2000/svg"><path d="M.863 12.758a1.48 1.48 0 010-2.138L5.008 6.6.863 2.58a1.48 1.48 0 010-2.138 1.594 1.594 0 012.204 0l5.31 5.15c.575.558.575 1.46 0 2.015l-5.31 5.15c-.609.59-1.596.59-2.204 0z" fill="currentColor"/></symbol><symbol fill="none" viewBox="0 0 9 14" id="arrow-prev" xmlns="http://www.w3.org/2000/svg"><path d="M8.151 1.242a1.48 1.48 0 010 2.138L4.006 7.4l4.145 4.02a1.48 1.48 0 010 2.138c-.608.59-1.596.59-2.204 0L.636 8.408a1.393 1.393 0 010-2.015l5.31-5.15a1.594 1.594 0 012.205 0z" fill="currentColor"/></symbol><symbol fill="none" viewBox="0 0 28 28" id="mark" xmlns="http://www.w3.org/2000/svg"><path clip-rule="evenodd" d="M14 0c-.814 0-1.474.66-1.474 1.474v11.052H1.474a1.474 1.474 0 000 2.948h11.052v11.052a1.474 1.474 0 002.948 0V15.474h11.052a1.474 1.474 0 000-2.948H15.474V1.474C15.474.66 14.814 0 14 0z" fill="currentColor" fill-rule="evenodd"/></symbol></svg>