<svg fill="none" height="40" viewBox="0 0 136 40" width="136" xmlns="http://www.w3.org/2000/svg"><rect fill="#000" height="40" rx="4" width="136"/><g fill="#fff"><path d="m29.997 19.8897c.0228-1.7642.9476-3.3937 2.4506-4.3177-.9525-1.3603-2.4906-2.1918-4.1504-2.2438-1.7462-.1833-3.4391 1.0449-4.329 1.0449-.907 0-2.2771-1.0267-3.7524-.9963-1.9412.0627-3.707 1.1396-4.6514 2.8367-2.0111 3.482-.511 8.5994 1.4155 11.414.9639 1.3782 2.0904 2.9177 3.5644 2.8631 1.4424-.0598 1.9811-.9197 3.7222-.9197 1.7249 0 2.2303.9197 3.7342.885 1.5478-.0251 2.523-1.3843 3.453-2.7756.6926-.9821 1.2255-2.0674 1.579-3.2159-1.8382-.7775-3.0335-2.5788-3.0357-4.5747z"/><path d="m27.1563 11.4766c.844-1.0131 1.2597-2.31525 1.159-3.62992-1.2892.13541-2.4802.75161-3.3355 1.72582-.8446.9612-1.2724 2.2187-1.1893 3.4955 1.3065.0134 2.5471-.5731 3.3658-1.5914z"/><path clip-rule="evenodd" d="m44.5684 27.1397h4.7334l1.1357 3.3564h2.0391l-4.4834-12.418h-2.083l-4.4834 12.418h2.0048zm4.2422-1.5489h-3.752l1.8506-5.4472h.0518z" fill-rule="evenodd"/><path clip-rule="evenodd" d="m58.3809 30.5905c2.2724 0 3.7783-1.8076 3.7783-4.621 0-2.8057-1.5146-4.6221-3.8125-4.6221-1.1824-.0382-2.29.5768-2.8828 1.6006h-.0342v-1.5059h-1.7988v12.0488h1.8584v-4.4844h.043c.5676 1.0303 1.674 1.6455 2.8486 1.584zm-.5244-7.6589c1.4453 0 2.3926 1.2051 2.3926 3.0381h-.0001c0 1.8496-.9472 3.0459-2.3925 3.0459-1.4199 0-2.375-1.2217-2.375-3.0459 0-1.8076.9551-3.0381 2.375-3.0381z" fill-rule="evenodd"/><path clip-rule="evenodd" d="m68.3457 30.5905c2.2725 0 3.7788-1.8076 3.7788-4.621 0-2.8057-1.5151-4.6221-3.813-4.6221-1.1824-.0382-2.29.5768-2.8828 1.6006h-.0342v-1.5059h-1.7988v12.0488h1.8584v-4.4844h.043c.5676 1.0303 1.674 1.6455 2.8486 1.584zm-.5244-7.6589c1.4453 0 2.3926 1.2051 2.3926 3.0381 0 1.8496-.9473 3.0459-2.3926 3.0459-1.4199 0-2.375-1.2217-2.375-3.0459 0-1.8076.9551-3.0381 2.375-3.0381z" fill-rule="evenodd"/><path d="m78.709 27.0362c.1377 1.2314 1.334 2.04 2.9688 2.04 1.5664 0 2.6933-.8086 2.6933-1.919 0-.9638-.6796-1.541-2.289-1.9365l-1.6094-.3877c-2.2803-.5508-3.3389-1.6172-3.3389-3.3476 0-2.1426 1.8672-3.6143 4.5176-3.6143 2.625 0 4.4239 1.4717 4.4844 3.6143h-1.876c-.1123-1.2393-1.1367-1.9873-2.6338-1.9873s-2.5215.7568-2.5215 1.8584c0 .8779.6543 1.3945 2.2549 1.79l1.3682.3359c2.5478.6025 3.6054 1.626 3.6054 3.4424 0 2.3232-1.8496 3.7783-4.793 3.7783-2.7539 0-4.6132-1.4209-4.7334-3.667z"/><path d="m90.3457 19.2998v2.1426h1.7217v1.4717h-1.7217v4.9912c0 .7754.3447 1.1367 1.1016 1.1367.2044-.0036.4084-.0179.6113-.043v1.4629c-.3403.0636-.6861.0924-1.0322.0859-1.833 0-2.5479-.6885-2.5479-2.4443v-5.1894h-1.3164v-1.4717h1.3164v-2.1426z"/><path clip-rule="evenodd" d="m97.3584 21.3311c-2.6162 0-4.2939 1.79-4.2939 4.6386 0 2.8565 1.6611 4.6387 4.2939 4.6387 2.6338 0 4.2946-1.7822 4.2946-4.6387 0-2.8486-1.6696-4.6386-4.2946-4.6386zm0 1.5312c1.5059 0 2.4014 1.1533 2.4014 3.1074 0 1.9619-.8955 3.1065-2.4014 3.1065s-2.4014-1.1446-2.4014-3.1065c0-1.9453.8955-3.1074 2.4014-3.1074z" fill-rule="evenodd"/><path d="m103.185 21.442h1.772v1.541h.043c.247-.992 1.156-1.6747 2.178-1.6357.214-.0008.428.0225.636.0693v1.7383c-.27-.0826-.552-.1205-.835-.1123-.546-.0222-1.075.1956-1.447.5961-.372.4004-.551.9436-.489 1.4869v5.3701h-1.858z"/><path clip-rule="evenodd" d="m112.485 30.6084c2.048 0 3.649-1.1279 3.899-2.7715h-1.765c-.339.8401-1.189 1.3579-2.091 1.2734-.676.0249-1.33-.2419-1.796-.7325-.466-.4907-.699-1.1579-.639-1.8319v-.1123h6.394v-.6367c0-2.7451-1.575-4.4658-4.08-4.4658-2.547 0-4.19 1.8418-4.19 4.6816 0 2.831 1.635 4.5957 4.268 4.5957zm2.143-5.4736h-4.526c-.002-.6113.241-1.1978.674-1.6293s1.02-.6722 1.631-.6686c.607-.013 1.191.2276 1.613.6638.421.4361.642 1.0284.608 1.6341z" fill-rule="evenodd"/><path d="m42.7383 11.2534h.7978c.2777.0346.5572-.0485.7709-.2292.2136-.1806.342-.4424.3541-.722 0-.55026-.414-.90573-1.1162-.90573-.2843-.03972-.5725.03715-.7993.21314-.2267.176-.3727.43619-.4048.72139h-.876c.0305-.51805.2748-1.00019.6746-1.33111.3998-.33091.9192-.48085 1.4338-.41397 1.1748 0 2.002.65771 2.002 1.60448.0057.6536-.4461 1.2224-1.084 1.3648v.0703c.764.0339 1.3571.6787 1.3272 1.4428-.0549.5331-.3221 1.0217-.7414 1.3554-.4193.3338-.9553.4847-1.4872.4186-.533.0726-1.0727-.0743-1.4952-.4072-.4226-.3329-.6918-.8232-.746-1.3585h.8897c.0537.5708.5781.939 1.3515.939.7735 0 1.2784-.4135 1.2784-.9965 0-.5913-.4756-.9556-1.3067-.9556h-.8232z"/><path clip-rule="evenodd" d="m48.5039 12.0796c-1.0703.0664-1.6748.5337-1.6748 1.3442.0015.3843.1655.7501.4515 1.0069.286.2567.6672.3805 1.0495.3408.5453.0252 1.062-.2449 1.3525-.707h.0703v.6328h.8565v-3.0767c0-.9512-.6367-1.5132-1.7656-1.5132-1.0215 0-1.75.4961-1.8409 1.2696h.8604c.0996-.3184.4424-.5005.9385-.5005.6084 0 .9218.2685.9218.7441v.3887zm1.2197.583v.3765c-.0194.287-.1545.5538-.3743.7393-.2198.1856-.5055.274-.7917.245-.4834 0-.835-.2358-.835-.6411 0-.397.2813-.6079.9014-.6494z" fill-rule="evenodd"/><path d="m52.9678 10.9434v3.7548h-.8887v-4.5029h2.9649v.748z"/><path clip-rule="evenodd" d="m58.5693 14.7714c1.1368 0 1.8604-.8969 1.8604-2.3276 0-1.4312-.7237-2.3242-1.8692-2.3242-.5877-.0145-1.134.3019-1.414.8189h-.0664v-.7442h-.8555v6h.8887v-2.1792h.0703c.2755.5002.816.7952 1.3857.7563zm-.2568-3.8534c.7529 0 1.2031.5747 1.2031 1.5258 0 .9551-.4502 1.5298-1.207 1.5298-.7441 0-1.2119-.5874-1.2119-1.5259 0-.9428.4678-1.5297 1.2158-1.5297z" fill-rule="evenodd"/><path d="m61.6133 16.311v-.7651c.0962.0122.1931.0178.29.0166.3921.029.7431-.2418.8145-.6284l.0664-.2193-1.6299-4.5195h.9678l1.1289 3.5767h.0703l1.125-3.5767h.9424l-1.6787 4.689c-.3848 1.0957-.8105 1.4473-1.7285 1.4473-.0742-.0001-.2852-.0084-.3682-.0206z"/><path d="m66.0811 13.4197h.8847c.0869.397.459.604.9795.604.5918 0 .9551-.2607.9551-.666 0-.4341-.3262-.6411-.9551-.6411h-.6738v-.6904h.6621c.5371 0 .8105-.2066.8105-.583 0-.3306-.2646-.583-.8105-.583-.4971 0-.8604.2109-.918.5664h-.8564c.1332-.8498.9223-1.4363 1.7744-1.3189 1.0703 0 1.6826.4839 1.6826 1.2447.0103.4365-.2861.8209-.7109.9218v.0704c.508.0655.8866.5009.8808 1.0131 0 .856-.7285 1.4224-1.8408 1.4224-.9834 0-1.7822-.4507-1.8642-1.3604z"/><path d="m71.0664 14.6982v-4.5029h.8809v3.0972h.0703l2.0752-3.0972h.8808v4.503h-.8808v-3.1138h-.0664l-2.0791 3.1138z"/><path d="m79.8253 10.9433h-1.418v3.7549h-.8897v-3.7549h-1.418v-.748h3.7257z"/><path clip-rule="evenodd" d="m82.6608 14.7843c.8802.0951 1.7023-.4535 1.9522-1.3028h-.8565c-.213.3822-.6358.5979-1.0703.5459-.3354.0041-.6569-.1337-.8853-.3794s-.3424-.5764-.3139-.9106v-.0498h3.1797v-.3101c0-1.414-.7569-2.27-2.0098-2.27-.602-.0051-1.1765.2512-1.5749.7025-.3983.4514-.5812 1.0534-.5013 1.6501-.0821.595.1015 1.196.5021 1.6436.4005.4475.9776.6964 1.578.6806zm1.0996-2.7537h-2.2734c-.0044-.3107.1171-.6098.3367-.8295s.5187-.3413.8293-.337c.3062-.0069.601.1159.8119.338.2109.2222.3182.523.2955.8285z" fill-rule="evenodd"/><path clip-rule="evenodd" d="m88.3799 10.1953h2.0303c.8808 0 1.3974.4463 1.3974 1.145.0028.4569-.3144.8535-.7607.9512v.0703c.5461.0345.9694.4909.9629 1.0381 0 .7856-.5909 1.2983-1.5791 1.2983h-2.0508zm.8808.6822v1.166h.8809c.5371 0 .794-.2066.794-.5874 0-.3511-.2237-.5787-.6954-.5787zm0 3.1386v-1.3193h.9424c.5997 0 .918.2109.918.6616 0 .4258-.2812.6577-.8066.6577z" fill-rule="evenodd"/></g></svg>