<svg fill="none" height="80" viewBox="0 0 80 80" width="80" xmlns="http://www.w3.org/2000/svg"><path d="m40.0003 6.6665c-18.38 0-33.33331 14.9533-33.33331 33.3333s14.95331 33.3334 33.33331 33.3334 33.3334-14.9534 33.3334-33.3334c0-3.7533-.6534-7.3526-1.8034-10.7226l-5.3972 5.3971c.35 1.72.5339 3.5022.5339 5.3255 0 14.7034-11.9633 26.6667-26.6667 26.6667-14.7033 0-26.6666-11.9633-26.6666-26.6667 0-14.7033 11.9633-26.6666 26.6666-26.6666 5.4434 0 10.5064 1.6463 14.7331 4.4596l4.7721-4.7721c-5.4933-3.98003-12.2218-6.3542-19.5052-6.3542zm30.9766 4.3099-34.3099 34.3099-10.9766-10.9766-4.7135 4.7136 15.6901 15.6901 39.0234-39.0235z" fill="#90cd60"/></svg>