<svg width="94" height="123" viewBox="0 0 94 123" fill="none" xmlns="http://www.w3.org/2000/svg">
<g clip-path="url(#clip0)">
<rect width="94" height="122.2" rx="4.7" fill="url(#paint0_linear)"/>
<g style="mix-blend-mode:soft-light" opacity="0.818274">
<g style="mix-blend-mode:soft-light" opacity="0.818274">
<mask id="mask0" style="mask-type:alpha" maskUnits="userSpaceOnUse" x="9" y="46" width="100" height="100">
<g style="mix-blend-mode:soft-light" opacity="0.818274">
<g style="mix-blend-mode:soft-light" opacity="0.818274">
<path d="M59.3375 145.308C86.7009 145.308 108.883 123.126 108.883 95.7626C108.883 68.3992 86.7009 46.2168 59.3375 46.2168C31.9741 46.2168 9.79163 68.3992 9.79163 95.7626C9.79163 123.126 31.9741 145.308 59.3375 145.308Z" fill="white"/>
</g>
</g>
</mask>
<g mask="url(#mask0)">
<g style="mix-blend-mode:soft-light" opacity="0.818274">
<path d="M59.3375 145.308C86.7009 145.308 108.883 123.126 108.883 95.7626C108.883 68.3992 86.7009 46.2168 59.3375 46.2168C31.9741 46.2168 9.79163 68.3992 9.79163 95.7626C9.79163 123.126 31.9741 145.308 59.3375 145.308Z" stroke="white" stroke-width="5.875"/>
</g>
<g style="mix-blend-mode:soft-light">
<path fill-rule="evenodd" clip-rule="evenodd" d="M85.8621 87.5008C84.7128 87.5008 83.7775 86.5655 83.7775 85.417C83.7775 84.2677 84.7128 83.3323 85.8621 83.3323C87.0107 83.3323 87.946 84.2677 87.946 85.417C87.9452 86.5663 87.0107 87.5008 85.8621 87.5008ZM80.4724 107.032H38.0204L34.7349 89.5054C34.895 89.4262 35.0511 89.3396 35.1997 89.2432L44.392 97.4503C44.6387 97.6709 44.963 97.7902 45.2922 97.7583C45.6214 97.7362 45.9277 97.5827 46.1417 97.3311L57.1932 84.3518C57.7511 84.5593 58.3507 84.6785 58.9797 84.6785C59.6095 84.6785 60.2099 84.5593 60.767 84.3518L71.6894 97.1816C71.8618 97.3825 72.0929 97.523 72.3519 97.5819L73.016 97.7322C73.3999 97.8179 73.8076 97.7158 74.1033 97.4512L83.3535 89.1918C83.4883 89.2808 83.6288 89.3625 83.7726 89.4376L80.4724 107.032ZM38.3765 114.469V109.483H80.1154V114.469H38.3765ZM30.6506 85.4407C30.6506 84.2913 31.5859 83.356 32.7352 83.356C33.8846 83.356 34.8191 84.2913 34.8191 85.4407C34.8191 86.59 33.8837 87.5253 32.7352 87.5253C31.5859 87.5253 30.6506 86.59 30.6506 85.4407ZM58.9781 76.8676C60.4566 76.8676 61.6582 78.07 61.6582 79.5478C61.6582 81.0255 60.4558 82.2271 58.9781 82.2271C57.5003 82.2271 56.2987 81.0247 56.2987 79.5478C56.2987 78.07 57.5012 76.8676 58.9781 76.8676ZM90.3958 85.4178C90.3958 82.9165 88.3618 80.8825 85.8613 80.8825C83.3609 80.8825 81.3261 82.9165 81.3261 85.4178C81.3261 86.1015 81.4829 86.7485 81.7549 87.3309L73.0985 95.0585L62.7994 82.9598C63.6114 82.0523 64.1097 80.8588 64.1097 79.5478C64.1097 76.7181 61.8085 74.417 58.9789 74.417C56.1501 74.417 53.8489 76.7181 53.8489 79.5478C53.8489 80.858 54.3472 82.0515 55.1592 82.9598L45.088 94.7865L36.8171 87.402C37.1039 86.8065 37.2697 86.1432 37.2697 85.4407C37.2697 82.9394 35.2357 80.9054 32.7352 80.9054C30.2348 80.9054 28.2 82.9394 28.2 85.4407C28.2 87.7957 30.0036 89.735 32.3023 89.9539L35.7985 108.484C35.8214 108.605 35.8704 108.715 35.9259 108.82V115.694C35.9259 116.37 36.4741 116.919 37.1512 116.919H81.3408C82.0179 116.919 82.5661 116.37 82.5661 115.694V108.82C82.6208 108.715 82.6706 108.605 82.6927 108.484L86.1693 89.9351C88.526 89.7766 90.3958 87.8137 90.3958 85.4178Z" fill="white"/>
</g>
</g>
</g>
</g>
<path d="M12.8603 16.3053C12.9694 16.3401 13.0736 16.3922 13.1728 16.4616C13.277 16.5311 13.3663 16.6154 13.4407 16.7146C13.5201 16.8089 13.5821 16.918 13.6268 17.0421C13.6764 17.1661 13.7012 17.3 13.7012 17.4439C13.7012 17.9103 13.5524 18.2749 13.2547 18.5378C12.962 18.7958 12.5452 18.9248 12.0045 18.9248H9.86129V14.0803H12.0268C12.2501 14.0803 12.451 14.1076 12.6296 14.1621C12.8131 14.2117 12.9694 14.2886 13.0984 14.3928C13.2274 14.497 13.3266 14.626 13.3961 14.7798C13.4705 14.9286 13.5077 15.1023 13.5077 15.3007C13.5077 15.5339 13.4432 15.7373 13.3142 15.9109C13.1852 16.0846 13.0339 16.2086 12.8603 16.283V16.3053ZM10.8436 14.9286V15.9481H11.9077C12.0963 15.9481 12.2451 15.901 12.3542 15.8067C12.4634 15.7125 12.518 15.586 12.518 15.4272C12.518 15.2685 12.4659 15.1469 12.3617 15.0626C12.2625 14.9733 12.1161 14.9286 11.9226 14.9286H10.8436ZM10.8436 16.7667V18.069H11.9226C12.4287 18.069 12.6817 17.8507 12.6817 17.4141C12.6817 17.1909 12.6073 17.0272 12.4584 16.923C12.3146 16.8188 12.136 16.7667 11.9226 16.7667H10.8436ZM14.3638 17.1314C14.3638 16.8387 14.4035 16.5757 14.4829 16.3425C14.5623 16.1044 14.6739 15.9035 14.8178 15.7398C14.9617 15.5711 15.1378 15.4421 15.3461 15.3528C15.5545 15.2635 15.7902 15.2189 16.0531 15.2189C16.3012 15.2189 16.5343 15.2635 16.7526 15.3528C16.9709 15.4371 17.1718 15.5835 17.3554 15.7919L16.7898 16.3946C16.6608 16.2557 16.5418 16.159 16.4326 16.1044C16.3235 16.0498 16.1995 16.0226 16.0605 16.0226C15.8224 16.0226 15.6388 16.1218 15.5099 16.3202C15.3809 16.5187 15.3164 16.7816 15.3164 17.109C15.3164 17.4365 15.3784 17.6994 15.5024 17.8979C15.6264 18.0963 15.8174 18.1955 16.0754 18.1955C16.3284 18.1955 16.5765 18.0641 16.8196 17.8011L17.3926 18.3741C17.0354 18.7909 16.5839 18.9992 16.0382 18.9992C15.7802 18.9992 15.5471 18.9571 15.3387 18.8727C15.1353 18.7884 14.9592 18.6668 14.8103 18.5081C14.6665 18.3444 14.5548 18.1484 14.4755 17.9202C14.4011 17.687 14.3638 17.4241 14.3638 17.1314ZM21.1708 17.3918H18.8192C18.844 17.6647 18.9308 17.873 19.0797 18.0169C19.2285 18.1608 19.422 18.2327 19.6601 18.2327C19.804 18.2327 19.9528 18.2054 20.1066 18.1509C20.2604 18.0963 20.3993 18.0268 20.5233 17.9425L20.9326 18.5453C20.7193 18.714 20.501 18.833 20.2778 18.9025C20.0595 18.967 19.8238 18.9992 19.5708 18.9992C19.3079 18.9992 19.0697 18.9571 18.8564 18.8727C18.648 18.7834 18.4694 18.6569 18.3206 18.4932C18.1767 18.3295 18.0651 18.131 17.9857 17.8979C17.9063 17.6647 17.8667 17.4017 17.8667 17.109C17.8667 16.8213 17.9063 16.5608 17.9857 16.3277C18.0701 16.0945 18.1867 15.896 18.3355 15.7323C18.4843 15.5686 18.6629 15.4421 18.8713 15.3528C19.0797 15.2635 19.3103 15.2189 19.5634 15.2189C19.8362 15.2189 20.0719 15.266 20.2703 15.3602C20.4737 15.4495 20.6424 15.5761 20.7764 15.7398C20.9103 15.9035 21.0095 16.1019 21.074 16.3351C21.1385 16.5633 21.1708 16.8163 21.1708 17.0942V17.3918ZM20.2331 16.7816C20.2281 16.5534 20.1711 16.3624 20.062 16.2086C19.9578 16.0498 19.7792 15.9705 19.5262 15.9705C19.3476 15.9705 19.1888 16.0424 19.0499 16.1863C18.9159 16.3301 18.839 16.5286 18.8192 16.7816H20.2331ZM20.3299 14.7649C20.1909 14.7649 20.0719 14.7178 19.9727 14.6235C19.8784 14.5243 19.8313 14.4102 19.8313 14.2812C19.8313 14.1473 19.8784 14.0331 19.9727 13.9389C20.0719 13.8397 20.1909 13.7901 20.3299 13.7901C20.4588 13.7901 20.5705 13.8397 20.6647 13.9389C20.759 14.0331 20.8061 14.1473 20.8061 14.2812C20.8061 14.4102 20.759 14.5243 20.6647 14.6235C20.5705 14.7178 20.4588 14.7649 20.3299 14.7649ZM18.7522 14.7649C18.6183 14.7649 18.5017 14.7178 18.4025 14.6235C18.3032 14.5243 18.2536 14.4102 18.2536 14.2812C18.2536 14.1473 18.3032 14.0331 18.4025 13.9389C18.5017 13.8397 18.6183 13.7901 18.7522 13.7901C18.8812 13.7901 18.9953 13.8397 19.0945 13.9389C19.1938 14.0331 19.2434 14.1473 19.2434 14.2812C19.2434 14.4102 19.1938 14.5243 19.0945 14.6235C18.9953 14.7178 18.8812 14.7649 18.7522 14.7649ZM25.4213 19.0067C25.1583 19.0067 24.9202 18.962 24.7069 18.8727C24.4985 18.7834 24.3199 18.6569 24.1711 18.4932C24.0223 18.3295 23.9057 18.131 23.8213 17.8979C23.742 17.6647 23.7023 17.4042 23.7023 17.1165C23.7023 16.8188 23.7444 16.5534 23.8288 16.3202C23.9131 16.0821 24.0322 15.8836 24.186 15.7249C24.3398 15.5612 24.5233 15.4371 24.7367 15.3528C24.95 15.2635 25.1832 15.2189 25.4362 15.2189C25.6892 15.2189 25.9224 15.2635 26.1357 15.3528C26.349 15.4371 26.5301 15.5612 26.6789 15.7249C26.8327 15.8886 26.9518 16.087 27.0361 16.3202C27.1205 16.5534 27.1626 16.8139 27.1626 17.1016C27.1626 17.3993 27.118 17.6672 27.0287 17.9053C26.9444 18.1385 26.8253 18.3369 26.6715 18.5006C26.5177 18.6643 26.3341 18.7909 26.1208 18.8802C25.9075 18.9645 25.6743 19.0067 25.4213 19.0067ZM25.4138 16.0002C25.1658 16.0002 24.9773 16.1044 24.8483 16.3128C24.7193 16.5211 24.6548 16.7841 24.6548 17.1016C24.6548 17.4588 24.7218 17.7366 24.8557 17.9351C24.9897 18.1285 25.1832 18.2253 25.4362 18.2253C25.5602 18.2253 25.6693 18.198 25.7636 18.1434C25.8628 18.0839 25.9447 18.0045 26.0092 17.9053C26.0737 17.8011 26.1233 17.682 26.158 17.5481C26.1927 17.4141 26.2101 17.2703 26.2101 17.1165C26.2101 16.7841 26.1431 16.5162 26.0092 16.3128C25.8752 16.1044 25.6768 16.0002 25.4138 16.0002ZM32.1447 16.0374H30.7605V18.9248H29.8229V15.2858H33.0823V18.9248H32.1447V16.0374ZM35.5228 19.0067C35.2598 19.0067 35.0217 18.962 34.8084 18.8727C34.6 18.7834 34.4214 18.6569 34.2726 18.4932C34.1237 18.3295 34.0072 18.131 33.9228 17.8979C33.8434 17.6647 33.8037 17.4042 33.8037 17.1165C33.8037 16.8188 33.8459 16.5534 33.9303 16.3202C34.0146 16.0821 34.1337 15.8836 34.2875 15.7249C34.4412 15.5612 34.6248 15.4371 34.8381 15.3528C35.0515 15.2635 35.2846 15.2189 35.5377 15.2189C35.7907 15.2189 36.0238 15.2635 36.2372 15.3528C36.4505 15.4371 36.6316 15.5612 36.7804 15.7249C36.9342 15.8886 37.0533 16.087 37.1376 16.3202C37.222 16.5534 37.2641 16.8139 37.2641 17.1016C37.2641 17.3993 37.2195 17.6672 37.1302 17.9053C37.0458 18.1385 36.9268 18.3369 36.773 18.5006C36.6192 18.6643 36.4356 18.7909 36.2223 18.8802C36.009 18.9645 35.7758 19.0067 35.5228 19.0067ZM35.5153 16.0002C35.2673 16.0002 35.0788 16.1044 34.9498 16.3128C34.8208 16.5211 34.7563 16.7841 34.7563 17.1016C34.7563 17.4588 34.8233 17.7366 34.9572 17.9351C35.0912 18.1285 35.2846 18.2253 35.5377 18.2253C35.6617 18.2253 35.7708 18.198 35.8651 18.1434C35.9643 18.0839 36.0462 18.0045 36.1107 17.9053C36.1752 17.8011 36.2248 17.682 36.2595 17.5481C36.2942 17.4141 36.3116 17.2703 36.3116 17.1165C36.3116 16.7841 36.2446 16.5162 36.1107 16.3128C35.9767 16.1044 35.7783 16.0002 35.5153 16.0002ZM38.9142 16.0374V18.9248H37.9765V15.2933H40.8416V16.0374H38.9142ZM42.9426 19.0067C42.6797 19.0067 42.4416 18.962 42.2282 18.8727C42.0199 18.7834 41.8413 18.6569 41.6924 18.4932C41.5436 18.3295 41.427 18.131 41.3427 17.8979C41.2633 17.6647 41.2236 17.4042 41.2236 17.1165C41.2236 16.8188 41.2658 16.5534 41.3501 16.3202C41.4345 16.0821 41.5535 15.8836 41.7073 15.7249C41.8611 15.5612 42.0447 15.4371 42.258 15.3528C42.4713 15.2635 42.7045 15.2189 42.9575 15.2189C43.2105 15.2189 43.4437 15.2635 43.657 15.3528C43.8704 15.4371 44.0514 15.5612 44.2003 15.7249C44.3541 15.8886 44.4731 16.087 44.5575 16.3202C44.6418 16.5534 44.684 16.8139 44.684 17.1016C44.684 17.3993 44.6393 17.6672 44.55 17.9053C44.4657 18.1385 44.3466 18.3369 44.1928 18.5006C44.039 18.6643 43.8555 18.7909 43.6422 18.8802C43.4288 18.9645 43.1957 19.0067 42.9426 19.0067ZM42.9352 16.0002C42.6871 16.0002 42.4986 16.1044 42.3696 16.3128C42.2406 16.5211 42.1761 16.7841 42.1761 17.1016C42.1761 17.4588 42.2431 17.7366 42.3771 17.9351C42.511 18.1285 42.7045 18.2253 42.9575 18.2253C43.0815 18.2253 43.1907 18.198 43.285 18.1434C43.3842 18.0839 43.466 18.0045 43.5305 17.9053C43.595 17.8011 43.6446 17.682 43.6794 17.5481C43.7141 17.4141 43.7315 17.2703 43.7315 17.1165C43.7315 16.7841 43.6645 16.5162 43.5305 16.3128C43.3966 16.1044 43.1981 16.0002 42.9352 16.0002ZM45.1434 18.203H45.5155C45.6097 18.0988 45.6866 17.9723 45.7462 17.8234C45.8057 17.6746 45.8528 17.4886 45.8876 17.2653C45.9272 17.0371 45.957 16.7642 45.9769 16.4467C46.0017 16.1243 46.0265 15.7423 46.0513 15.3007H48.8121V18.203H49.1768V20.0187H48.3359V18.9248H45.9694V20.0187H45.1434V18.203ZM47.8819 16.0226H46.8475C46.8426 16.1813 46.8351 16.3549 46.8252 16.5435C46.8202 16.727 46.8054 16.9156 46.7806 17.109C46.7607 17.2976 46.7285 17.4861 46.6838 17.6746C46.6392 17.8631 46.5722 18.0392 46.4829 18.203H47.8819V16.0226ZM52.9941 17.3918H50.6425C50.6673 17.6647 50.7541 17.873 50.903 18.0169C51.0518 18.1608 51.2453 18.2327 51.4834 18.2327C51.6273 18.2327 51.7761 18.2054 51.9299 18.1509C52.0837 18.0963 52.2226 18.0268 52.3466 17.9425L52.7559 18.5453C52.5426 18.714 52.3243 18.833 52.1011 18.9025C51.8828 18.967 51.6471 18.9992 51.3941 18.9992C51.1312 18.9992 50.893 18.9571 50.6797 18.8727C50.4713 18.7834 50.2927 18.6569 50.1439 18.4932C50 18.3295 49.8884 18.131 49.809 17.8979C49.7296 17.6647 49.69 17.4017 49.69 17.109C49.69 16.8213 49.7296 16.5608 49.809 16.3277C49.8934 16.0945 50.01 15.896 50.1588 15.7323C50.3076 15.5686 50.4862 15.4421 50.6946 15.3528C50.903 15.2635 51.1336 15.2189 51.3867 15.2189C51.6595 15.2189 51.8952 15.266 52.0936 15.3602C52.297 15.4495 52.4657 15.5761 52.5997 15.7398C52.7336 15.9035 52.8328 16.1019 52.8973 16.3351C52.9618 16.5633 52.9941 16.8163 52.9941 17.0942V17.3918ZM52.0564 16.7816C52.0514 16.5534 51.9944 16.3624 51.8853 16.2086C51.7811 16.0498 51.6025 15.9705 51.3495 15.9705C51.1709 15.9705 51.0121 16.0424 50.8732 16.1863C50.7392 16.3301 50.6623 16.5286 50.6425 16.7816H52.0564ZM54.2252 19.0067C54.0664 19.0067 53.9325 18.9521 53.8233 18.8429C53.7192 18.7338 53.6671 18.5999 53.6671 18.4411C53.6671 18.2625 53.7266 18.1236 53.8457 18.0244C53.9647 17.9251 54.0937 17.8755 54.2326 17.8755C54.3914 17.8755 54.5204 17.9301 54.6196 18.0392C54.7238 18.1484 54.7759 18.2823 54.7759 18.4411C54.7759 18.5999 54.7213 18.7338 54.6122 18.8429C54.508 18.9521 54.379 19.0067 54.2252 19.0067ZM54.2252 16.8709C54.0664 16.8709 53.9325 16.8163 53.8233 16.7072C53.7192 16.598 53.6671 16.4641 53.6671 16.3053C53.6671 16.1218 53.7266 15.9829 53.8457 15.8886C53.9647 15.7894 54.0937 15.7398 54.2326 15.7398C54.3914 15.7398 54.5204 15.7943 54.6196 15.9035C54.7238 16.0126 54.7759 16.1466 54.7759 16.3053C54.7759 16.4641 54.7213 16.598 54.6122 16.7072C54.508 16.8163 54.379 16.8709 54.2252 16.8709ZM58.4486 16.0374V18.9248H57.5109V15.2933H60.376V16.0374H58.4486ZM64.1365 17.109C64.1365 17.4414 64.0919 17.7267 64.0026 17.9648C63.9182 18.203 63.8066 18.3989 63.6677 18.5527C63.5288 18.7016 63.37 18.8132 63.1914 18.8876C63.0178 18.9571 62.8417 18.9918 62.6631 18.9918C62.4745 18.9918 62.3083 18.9645 62.1645 18.9099C62.0256 18.8504 61.899 18.7636 61.7849 18.6495H61.7626V20.0783C61.6039 20.1378 61.4476 20.1973 61.2938 20.2569C61.14 20.3214 60.9837 20.3859 60.825 20.4503V15.2933H61.7626V15.6058H61.7849C61.9238 15.4768 62.0752 15.3801 62.2389 15.3156C62.4026 15.2511 62.5688 15.2189 62.7375 15.2189C62.926 15.2189 63.1046 15.2561 63.2733 15.3305C63.4419 15.3999 63.5908 15.5116 63.7198 15.6654C63.8488 15.8142 63.9505 16.0102 64.0249 16.2532C64.0993 16.4914 64.1365 16.7766 64.1365 17.109ZM63.1765 17.0942C63.1716 16.7221 63.1071 16.4467 62.983 16.2681C62.859 16.0895 62.6879 16.0002 62.4696 16.0002C62.3257 16.0002 62.1917 16.0399 62.0677 16.1193C61.9487 16.1937 61.847 16.283 61.7626 16.3872V17.8309C61.847 17.9351 61.9487 18.0244 62.0677 18.0988C62.1868 18.1732 62.3158 18.2104 62.4547 18.2104C62.6879 18.2104 62.8665 18.1211 62.9905 17.9425C63.1145 17.7639 63.1765 17.4811 63.1765 17.0942ZM66.5176 19.0067C66.2547 19.0067 66.0165 18.962 65.8032 18.8727C65.5948 18.7834 65.4162 18.6569 65.2674 18.4932C65.1186 18.3295 65.002 18.131 64.9176 17.8979C64.8383 17.6647 64.7986 17.4042 64.7986 17.1165C64.7986 16.8188 64.8407 16.5534 64.9251 16.3202C65.0094 16.0821 65.1285 15.8836 65.2823 15.7249C65.4361 15.5612 65.6196 15.4371 65.833 15.3528C66.0463 15.2635 66.2795 15.2189 66.5325 15.2189C66.7855 15.2189 67.0187 15.2635 67.232 15.3528C67.4453 15.4371 67.6264 15.5612 67.7752 15.7249C67.929 15.8886 68.0481 16.087 68.1324 16.3202C68.2168 16.5534 68.259 16.8139 68.259 17.1016C68.259 17.3993 68.2143 17.6672 68.125 17.9053C68.0407 18.1385 67.9216 18.3369 67.7678 18.5006C67.614 18.6643 67.4304 18.7909 67.2171 18.8802C67.0038 18.9645 66.7706 19.0067 66.5176 19.0067ZM66.5102 16.0002C66.2621 16.0002 66.0736 16.1044 65.9446 16.3128C65.8156 16.5211 65.7511 16.7841 65.7511 17.1016C65.7511 17.4588 65.8181 17.7366 65.952 17.9351C66.086 18.1285 66.2795 18.2253 66.5325 18.2253C66.6565 18.2253 66.7657 18.198 66.8599 18.1434C66.9591 18.0839 67.041 18.0045 67.1055 17.9053C67.17 17.8011 67.2196 17.682 67.2543 17.5481C67.2891 17.4141 67.3064 17.2703 67.3064 17.1165C67.3064 16.7841 67.2394 16.5162 67.1055 16.3128C66.9715 16.1044 66.7731 16.0002 66.5102 16.0002ZM71.189 17.0197C71.3031 17.0644 71.3974 17.119 71.4718 17.1835C71.5462 17.243 71.6057 17.31 71.6504 17.3844C71.695 17.4588 71.7248 17.5332 71.7397 17.6076C71.7595 17.682 71.7694 17.7515 71.7694 17.816C71.7694 18.0194 71.7273 18.1955 71.6429 18.3444C71.5636 18.4882 71.4519 18.6073 71.3081 18.7016C71.1692 18.7958 71.003 18.8678 70.8095 18.9174C70.6209 18.962 70.4175 18.9843 70.1993 18.9843C69.9115 18.9843 69.6362 18.9397 69.3732 18.8504C69.1103 18.7561 68.892 18.6222 68.7184 18.4485L69.1872 17.8458C69.3509 17.9996 69.5146 18.1037 69.6783 18.1583C69.8421 18.2079 70.0033 18.2327 70.162 18.2327C70.3853 18.2327 70.5515 18.1881 70.6606 18.0988C70.7698 18.0045 70.8244 17.8979 70.8244 17.7788C70.8244 17.63 70.7698 17.5283 70.6606 17.4737C70.5515 17.4141 70.4101 17.3844 70.2365 17.3844H69.7304V16.7816H70.2365C70.42 16.7816 70.554 16.7394 70.6383 16.6551C70.7227 16.5658 70.7648 16.4765 70.7648 16.3872C70.7648 16.2731 70.7177 16.1788 70.6234 16.1044C70.5341 16.025 70.3977 15.9853 70.2141 15.9853C70.0752 15.9853 69.9239 16.0151 69.7602 16.0746C69.6014 16.1292 69.4625 16.2086 69.3435 16.3128C69.269 16.2185 69.1946 16.1218 69.1202 16.0226C69.0508 15.9184 68.9813 15.8167 68.9118 15.7174C69.1202 15.5488 69.3435 15.4272 69.5816 15.3528C69.8247 15.2734 70.0777 15.2337 70.3406 15.2337C70.5788 15.2337 70.7847 15.261 70.9583 15.3156C71.1319 15.3652 71.2733 15.4347 71.3825 15.524C71.4966 15.6083 71.5809 15.71 71.6355 15.8291C71.6901 15.9432 71.7174 16.0672 71.7174 16.2012C71.7174 16.345 71.6777 16.4889 71.5983 16.6328C71.5189 16.7766 71.385 16.8932 71.1964 16.9825L71.189 17.0197ZM75.9941 18.9248V15.2858H76.9243V18.9248H75.9941ZM75.6071 17.7788C75.6071 17.9772 75.5749 18.1484 75.5104 18.2923C75.4459 18.4361 75.3541 18.5552 75.2351 18.6495C75.1209 18.7437 74.982 18.8132 74.8183 18.8578C74.6596 18.9025 74.481 18.9248 74.2825 18.9248H72.4593V15.2858H73.3895V16.603H74.2453C74.6521 16.603 74.9796 16.7022 75.2276 16.9007C75.4806 17.0991 75.6071 17.3918 75.6071 17.7788ZM74.6546 17.7639C74.6546 17.6151 74.605 17.5034 74.5058 17.429C74.4115 17.3497 74.29 17.31 74.1411 17.31H73.3895V18.2178H74.1486C74.2924 18.2178 74.4115 18.1831 74.5058 18.1137C74.605 18.0392 74.6546 17.9227 74.6546 17.7639ZM77.707 19.5946C77.836 19.5053 77.9377 19.4085 78.0121 19.3043C78.0915 19.2051 78.1435 19.091 78.1683 18.962C78.0245 18.962 77.9004 18.9198 77.7963 18.8355C77.697 18.7512 77.6474 18.6247 77.6474 18.456C77.6474 18.2972 77.6995 18.1633 77.8037 18.0541C77.9079 17.94 78.0394 17.883 78.1981 17.883C78.3866 17.883 78.5355 17.9524 78.6446 18.0913C78.7587 18.2253 78.8158 18.4039 78.8158 18.6271C78.8158 18.9248 78.7339 19.1803 78.5702 19.3936C78.4065 19.607 78.2056 19.7856 77.9674 19.9294C77.9228 19.8749 77.8781 19.8178 77.8335 19.7583C77.7888 19.7037 77.7467 19.6491 77.707 19.5946ZM11.4464 28.0067C11.1834 28.0067 10.9453 27.962 10.732 27.8727C10.5236 27.7834 10.345 27.6569 10.1962 27.4932C10.0473 27.3295 9.93074 27.131 9.8464 26.8979C9.76702 26.6647 9.72734 26.4042 9.72734 26.1165C9.72734 25.8188 9.76951 25.5534 9.85384 25.3202C9.93818 25.0821 10.0572 24.8836 10.211 24.7249C10.3648 24.5612 10.5484 24.4371 10.7617 24.3528C10.9751 24.2635 11.2082 24.2189 11.4612 24.2189C11.7143 24.2189 11.9474 24.2635 12.1608 24.3528C12.3741 24.4371 12.5552 24.5612 12.704 24.7249C12.8578 24.8886 12.9769 25.087 13.0612 25.3202C13.1455 25.5534 13.1877 25.8139 13.1877 26.1016C13.1877 26.3993 13.1431 26.6672 13.0538 26.9053C12.9694 27.1385 12.8504 27.3369 12.6966 27.5006C12.5428 27.6643 12.3592 27.7909 12.1459 27.8802C11.9325 27.9645 11.6994 28.0067 11.4464 28.0067ZM11.4389 25.0002C11.1909 25.0002 11.0023 25.1044 10.8734 25.3128C10.7444 25.5211 10.6799 25.7841 10.6799 26.1016C10.6799 26.4588 10.7468 26.7366 10.8808 26.9351C11.0147 27.1285 11.2082 27.2253 11.4612 27.2253C11.5853 27.2253 11.6944 27.198 11.7887 27.1434C11.8879 27.0839 11.9698 27.0045 12.0343 26.9053C12.0987 26.8011 12.1484 26.682 12.1831 26.5481C12.2178 26.4141 12.2352 26.2703 12.2352 26.1165C12.2352 25.7841 12.1682 25.5162 12.0343 25.3128C11.9003 25.1044 11.7019 25.0002 11.4389 25.0002ZM13.8406 26.1314C13.8406 25.8387 13.8803 25.5757 13.9597 25.3425C14.039 25.1044 14.1507 24.9035 14.2945 24.7398C14.4384 24.5711 14.6145 24.4421 14.8229 24.3528C15.0313 24.2635 15.2669 24.2189 15.5299 24.2189C15.7779 24.2189 16.0111 24.2635 16.2294 24.3528C16.4477 24.4371 16.6486 24.5835 16.8322 24.7919L16.2666 25.3946C16.1376 25.2557 16.0185 25.159 15.9094 25.1044C15.8002 25.0498 15.6762 25.0226 15.5373 25.0226C15.2992 25.0226 15.1156 25.1218 14.9866 25.3202C14.8576 25.5187 14.7931 25.7816 14.7931 26.109C14.7931 26.4365 14.8551 26.6994 14.9792 26.8979C15.1032 27.0963 15.2942 27.1955 15.5522 27.1955C15.8052 27.1955 16.0533 27.0641 16.2964 26.8011L16.8694 27.3741C16.5122 27.7909 16.0607 27.9992 15.515 27.9992C15.257 27.9992 15.0238 27.9571 14.8155 27.8727C14.6121 27.7884 14.4359 27.6668 14.2871 27.5081C14.1432 27.3444 14.0316 27.1484 13.9522 26.9202C13.8778 26.687 13.8406 26.4241 13.8406 26.1314ZM19.5164 27.9248V27.6271L19.5015 27.6197C19.3427 27.7685 19.1691 27.8702 18.9806 27.9248C18.797 27.9794 18.6358 28.0067 18.4969 28.0067C18.3381 28.0067 18.1843 27.9843 18.0355 27.9397C17.8867 27.895 17.7552 27.8256 17.6411 27.7313C17.527 27.6371 17.4352 27.5155 17.3657 27.3667C17.2963 27.2129 17.2616 27.0293 17.2616 26.816C17.2616 26.6225 17.2988 26.4514 17.3732 26.3025C17.4476 26.1537 17.5493 26.0297 17.6783 25.9304C17.8073 25.8312 17.9536 25.7568 18.1174 25.7072C18.286 25.6526 18.4646 25.6253 18.6532 25.6253C18.802 25.6253 18.9434 25.6377 19.0773 25.6625C19.2162 25.6824 19.3626 25.727 19.5164 25.7965V25.5509C19.5164 25.1639 19.2931 24.9705 18.8466 24.9705C18.678 24.9705 18.5142 24.9903 18.3555 25.03C18.1967 25.0697 18.0355 25.1292 17.8718 25.2086L17.6113 24.5165C17.8098 24.4173 18.0231 24.3429 18.2513 24.2933C18.4795 24.2387 18.7201 24.2114 18.9731 24.2114C19.4544 24.2114 19.819 24.3181 20.0671 24.5314C20.3151 24.7447 20.4392 25.0647 20.4392 25.4914V27.9248H19.5164ZM19.5164 26.4662C19.4221 26.4117 19.3179 26.367 19.2038 26.3323C19.0947 26.2926 18.9657 26.2728 18.8169 26.2728C18.6432 26.2728 18.4969 26.3174 18.3778 26.4067C18.2637 26.491 18.2067 26.6151 18.2067 26.7788C18.2067 26.9375 18.2563 27.0616 18.3555 27.1509C18.4597 27.2352 18.6035 27.2774 18.7871 27.2774C18.9111 27.2774 19.0401 27.2451 19.1741 27.1806C19.308 27.1161 19.4221 27.0368 19.5164 26.9425V26.4662ZM20.9725 27.203H21.3446C21.4389 27.0988 21.5157 26.9723 21.5753 26.8234C21.6348 26.6746 21.6819 26.4886 21.7167 26.2653C21.7564 26.0371 21.7861 25.7642 21.806 25.4467C21.8308 25.1243 21.8556 24.7423 21.8804 24.3007H24.6413V27.203H25.0059V29.0187H24.165V27.9248H21.7985V29.0187H20.9725V27.203ZM23.711 25.0226H22.6767C22.6717 25.1813 22.6642 25.3549 22.6543 25.5435C22.6494 25.727 22.6345 25.9156 22.6097 26.109C22.5898 26.2976 22.5576 26.4861 22.5129 26.6746C22.4683 26.8631 22.4013 27.0392 22.312 27.203H23.711V25.0226ZM28.8232 24.3007L27.4018 25.9751L28.8306 27.9248H27.7888L26.4791 26.0718V27.9248H25.5712V24.3007H26.4791V25.9081L27.8186 24.3007H28.8232ZM31.6363 25.7816C31.5718 25.8759 31.5098 25.9726 31.4503 26.0718C31.3907 26.1661 31.3262 26.2628 31.2568 26.3621C31.0831 26.62 30.9095 26.883 30.7359 27.1509C30.5672 27.4138 30.3935 27.6718 30.2149 27.9248H29.2773V24.2858H30.2149V26.5034H30.2522C30.3117 26.4042 30.3712 26.31 30.4308 26.2207C30.4903 26.1314 30.5498 26.0396 30.6094 25.9453L31.6735 24.2858H32.6112V27.9248H31.6735V25.7816H31.6363ZM33.3985 28.5946C33.5275 28.5053 33.6292 28.4085 33.7036 28.3043C33.783 28.2051 33.8351 28.091 33.8599 27.962C33.716 27.962 33.592 27.9198 33.4878 27.8355C33.3886 27.7512 33.339 27.6247 33.339 27.456C33.339 27.2972 33.3911 27.1633 33.4953 27.0541C33.5994 26.94 33.7309 26.883 33.8897 26.883C34.0782 26.883 34.227 26.9524 34.3362 27.0913C34.4503 27.2253 34.5073 27.4039 34.5073 27.6271C34.5073 27.9248 34.4255 28.1803 34.2618 28.3936C34.098 28.607 33.8971 28.7856 33.659 28.9294C33.6143 28.8749 33.5697 28.8178 33.525 28.7583C33.4804 28.7037 33.4382 28.6491 33.3985 28.5946ZM38.8875 28.0067C38.6246 28.0067 38.3864 27.962 38.1731 27.8727C37.9647 27.7834 37.7861 27.6569 37.6373 27.4932C37.4885 27.3295 37.3719 27.131 37.2875 26.8979C37.2082 26.6647 37.1685 26.4042 37.1685 26.1165C37.1685 25.8188 37.2107 25.5534 37.295 25.3202C37.3793 25.0821 37.4984 24.8836 37.6522 24.7249C37.806 24.5612 37.9895 24.4371 38.2029 24.3528C38.4162 24.2635 38.6494 24.2189 38.9024 24.2189C39.1554 24.2189 39.3886 24.2635 39.6019 24.3528C39.8152 24.4371 39.9963 24.5612 40.1451 24.7249C40.2989 24.8886 40.418 25.087 40.5023 25.3202C40.5867 25.5534 40.6289 25.8139 40.6289 26.1016C40.6289 26.3993 40.5842 26.6672 40.4949 26.9053C40.4106 27.1385 40.2915 27.3369 40.1377 27.5006C39.9839 27.6643 39.8004 27.7909 39.587 27.8802C39.3737 27.9645 39.1405 28.0067 38.8875 28.0067ZM38.8801 25.0002C38.632 25.0002 38.4435 25.1044 38.3145 25.3128C38.1855 25.5211 38.121 25.7841 38.121 26.1016C38.121 26.4588 38.188 26.7366 38.3219 26.9351C38.4559 27.1285 38.6494 27.2253 38.9024 27.2253C39.0264 27.2253 39.1356 27.198 39.2298 27.1434C39.329 27.0839 39.4109 27.0045 39.4754 26.9053C39.5399 26.8011 39.5895 26.682 39.6242 26.5481C39.659 26.4141 39.6763 26.2703 39.6763 26.1165C39.6763 25.7841 39.6093 25.5162 39.4754 25.3128C39.3414 25.1044 39.143 25.0002 38.8801 25.0002ZM42.2789 24.777C42.3285 24.7125 42.3906 24.653 42.465 24.5984C42.5394 24.5438 42.6188 24.4992 42.7031 24.4644C42.7924 24.4247 42.8817 24.395 42.971 24.3751C43.0653 24.3553 43.157 24.3454 43.2463 24.3454C43.4746 24.3454 43.6854 24.3851 43.8789 24.4644C44.0773 24.5438 44.246 24.6604 44.3849 24.8142C44.5288 24.963 44.6404 25.1491 44.7198 25.3723C44.7992 25.5956 44.8389 25.8486 44.8389 26.1314C44.8389 26.4241 44.7942 26.687 44.7049 26.9202C44.6206 27.1484 44.499 27.3444 44.3403 27.5081C44.1865 27.6668 44.0004 27.7909 43.7821 27.8802C43.5688 27.9645 43.3307 28.0067 43.0677 28.0067C42.7354 28.0067 42.4551 27.9446 42.2268 27.8206C41.9986 27.6966 41.8126 27.5329 41.6687 27.3295C41.5298 27.1211 41.4281 26.883 41.3636 26.6151C41.3041 26.3472 41.2743 26.0669 41.2743 25.7742C41.2743 25.4219 41.2991 25.097 41.3487 24.7993C41.4033 24.4967 41.4951 24.2263 41.6241 23.9882C41.7531 23.75 41.9242 23.5466 42.1375 23.3779C42.3558 23.2043 42.6287 23.0654 42.9561 22.9612C43.0851 22.9215 43.2042 22.8893 43.3133 22.8645C43.4225 22.8397 43.5291 22.8173 43.6333 22.7975C43.7425 22.7727 43.8541 22.7479 43.9682 22.7231C44.0873 22.6983 44.2162 22.666 44.3552 22.6263L44.5635 23.311C44.3998 23.3705 44.2559 23.4152 44.1319 23.4449C44.0128 23.4747 43.9037 23.4995 43.8045 23.5193C43.7053 23.5392 43.611 23.559 43.5217 23.5789C43.4324 23.5987 43.3381 23.626 43.2389 23.6607C43.1099 23.7054 42.9884 23.76 42.8743 23.8244C42.7651 23.8889 42.6659 23.9658 42.5766 24.0551C42.4923 24.1395 42.4203 24.2412 42.3608 24.3602C42.3062 24.4793 42.2715 24.6157 42.2566 24.7695L42.2789 24.777ZM43.1124 25.097C42.8743 25.097 42.6783 25.1912 42.5245 25.3798C42.3707 25.5633 42.2938 25.8387 42.2938 26.2058C42.2938 26.5034 42.3583 26.7515 42.4873 26.9499C42.6212 27.1484 42.8222 27.2476 43.0901 27.2476C43.353 27.2476 43.5465 27.1434 43.6705 26.9351C43.7995 26.7267 43.864 26.4588 43.864 26.1314C43.864 25.8287 43.7995 25.5807 43.6705 25.3872C43.5415 25.1937 43.3555 25.097 43.1124 25.097ZM46.7992 25.9379C46.7992 26.2008 46.7893 26.4563 46.7695 26.7044C46.7546 26.9524 46.705 27.1732 46.6206 27.3667C46.5412 27.5552 46.4147 27.709 46.2411 27.8281C46.0675 27.9422 45.8244 27.9992 45.5118 27.9992C45.4721 27.9992 45.4324 27.9967 45.3927 27.9918C45.3531 27.9918 45.3134 27.9893 45.2737 27.9843L45.2439 27.2327C45.4027 27.2129 45.5267 27.1831 45.616 27.1434C45.7053 27.0988 45.7698 27.0293 45.8095 26.9351C45.8541 26.8408 45.8814 26.7118 45.8913 26.5481C45.9013 26.3844 45.9062 26.1711 45.9062 25.9081V24.2933H48.6671V27.9248H47.7294V25.0226H46.7992V25.9379ZM52.6888 26.3918H50.3373C50.3621 26.6647 50.4489 26.873 50.5977 27.0169C50.7466 27.1608 50.94 27.2327 51.1782 27.2327C51.322 27.2327 51.4709 27.2054 51.6247 27.1509C51.7785 27.0963 51.9174 27.0268 52.0414 26.9425L52.4507 27.5453C52.2374 27.714 52.0191 27.833 51.7958 27.9025C51.5775 27.967 51.3419 27.9992 51.0889 27.9992C50.8259 27.9992 50.5878 27.9571 50.3745 27.8727C50.1661 27.7834 49.9875 27.6569 49.8387 27.4932C49.6948 27.3295 49.5832 27.131 49.5038 26.8979C49.4244 26.6647 49.3847 26.4017 49.3847 26.109C49.3847 25.8213 49.4244 25.5608 49.5038 25.3277C49.5881 25.0945 49.7047 24.896 49.8536 24.7323C50.0024 24.5686 50.181 24.4421 50.3894 24.3528C50.5977 24.2635 50.8284 24.2189 51.0814 24.2189C51.3543 24.2189 51.5899 24.266 51.7884 24.3602C51.9918 24.4495 52.1605 24.5761 52.2944 24.7398C52.4284 24.9035 52.5276 25.1019 52.5921 25.3351C52.6566 25.5633 52.6888 25.8163 52.6888 26.0942V26.3918ZM51.7512 25.7816C51.7462 25.5534 51.6892 25.3624 51.58 25.2086C51.4758 25.0498 51.2972 24.9705 51.0442 24.9705C50.8656 24.9705 50.7069 25.0424 50.568 25.1863C50.434 25.3301 50.3571 25.5286 50.3373 25.7816H51.7512ZM53.0865 27.203H53.4586C53.5528 27.0988 53.6297 26.9723 53.6893 26.8234C53.7488 26.6746 53.7959 26.4886 53.8307 26.2653C53.8704 26.0371 53.9001 25.7642 53.92 25.4467C53.9448 25.1243 53.9696 24.7423 53.9944 24.3007H56.7552V27.203H57.1199V29.0187H56.279V27.9248H53.9125V29.0187H53.0865V27.203ZM55.825 25.0226H54.7906C54.7857 25.1813 54.7782 25.3549 54.7683 25.5435C54.7634 25.727 54.7485 25.9156 54.7237 26.109C54.7038 26.2976 54.6716 26.4861 54.6269 26.6746C54.5823 26.8631 54.5153 27.0392 54.426 27.203H55.825V25.0226ZM60.9372 26.3918H58.5856C58.6104 26.6647 58.6972 26.873 58.8461 27.0169C58.9949 27.1608 59.1884 27.2327 59.4265 27.2327C59.5704 27.2327 59.7192 27.2054 59.873 27.1509C60.0268 27.0963 60.1657 27.0268 60.2897 26.9425L60.699 27.5453C60.4857 27.714 60.2674 27.833 60.0442 27.9025C59.8259 27.967 59.5902 27.9992 59.3372 27.9992C59.0743 27.9992 58.8361 27.9571 58.6228 27.8727C58.4144 27.7834 58.2358 27.6569 58.087 27.4932C57.9431 27.3295 57.8315 27.131 57.7521 26.8979C57.6728 26.6647 57.6331 26.4017 57.6331 26.109C57.6331 25.8213 57.6728 25.5608 57.7521 25.3277C57.8365 25.0945 57.9531 24.896 58.1019 24.7323C58.2507 24.5686 58.4293 24.4421 58.6377 24.3528C58.8461 24.2635 59.0768 24.2189 59.3298 24.2189C59.6026 24.2189 59.8383 24.266 60.0367 24.3602C60.2401 24.4495 60.4088 24.5761 60.5428 24.7398C60.6767 24.9035 60.7759 25.1019 60.8404 25.3351C60.9049 25.5633 60.9372 25.8163 60.9372 26.0942V26.3918ZM59.9995 25.7816C59.9946 25.5534 59.9375 25.3624 59.8284 25.2086C59.7242 25.0498 59.5456 24.9705 59.2926 24.9705C59.114 24.9705 58.9552 25.0424 58.8163 25.1863C58.6823 25.3301 58.6054 25.5286 58.5856 25.7816H59.9995ZM63.9469 27.9248V26.4141H62.5329V27.9248H61.5953V24.2858H62.5329V25.67H63.9469V24.2858H64.8845V27.9248H63.9469ZM68.9166 26.3918H66.565C66.5898 26.6647 66.6767 26.873 66.8255 27.0169C66.9743 27.1608 67.1678 27.2327 67.406 27.2327C67.5498 27.2327 67.6987 27.2054 67.8525 27.1509C68.0062 27.0963 68.1452 27.0268 68.2692 26.9425L68.6785 27.5453C68.4651 27.714 68.2469 27.833 68.0236 27.9025C67.8053 27.967 67.5697 27.9992 67.3167 27.9992C67.0537 27.9992 66.8156 27.9571 66.6023 27.8727C66.3939 27.7834 66.2153 27.6569 66.0665 27.4932C65.9226 27.3295 65.811 27.131 65.7316 26.8979C65.6522 26.6647 65.6125 26.4017 65.6125 26.109C65.6125 25.8213 65.6522 25.5608 65.7316 25.3277C65.8159 25.0945 65.9325 24.896 66.0813 24.7323C66.2302 24.5686 66.4088 24.4421 66.6171 24.3528C66.8255 24.2635 67.0562 24.2189 67.3092 24.2189C67.5821 24.2189 67.8177 24.266 68.0162 24.3602C68.2196 24.4495 68.3883 24.5761 68.5222 24.7398C68.6562 24.9035 68.7554 25.1019 68.8199 25.3351C68.8844 25.5633 68.9166 25.8163 68.9166 26.0942V26.3918ZM67.979 25.7816C67.974 25.5534 67.9169 25.3624 67.8078 25.2086C67.7036 25.0498 67.525 24.9705 67.272 24.9705C67.0934 24.9705 66.9346 25.0424 66.7957 25.1863C66.6618 25.3301 66.5849 25.5286 66.565 25.7816H67.979ZM71.9263 27.9248V26.4141H70.5124V27.9248H69.5747V24.2858H70.5124V25.67H71.9263V24.2858H72.864V27.9248H71.9263ZM75.9956 25.7816C75.9311 25.8759 75.8691 25.9726 75.8096 26.0718C75.75 26.1661 75.6855 26.2628 75.6161 26.3621C75.4425 26.62 75.2688 26.883 75.0952 27.1509C74.9265 27.4138 74.7529 27.6718 74.5743 27.9248H73.6366V24.2858H74.5743V26.5034H74.6115C74.671 26.4042 74.7305 26.31 74.7901 26.2207C74.8496 26.1314 74.9091 26.0396 74.9687 25.9453L76.0328 24.2858H76.9705V27.9248H76.0328V25.7816H75.9956ZM80.9875 26.3918H78.636C78.6608 26.6647 78.7476 26.873 78.8964 27.0169C79.0452 27.1608 79.2387 27.2327 79.4769 27.2327C79.6207 27.2327 79.7696 27.2054 79.9234 27.1509C80.0772 27.0963 80.2161 27.0268 80.3401 26.9425L80.7494 27.5453C80.5361 27.714 80.3178 27.833 80.0945 27.9025C79.8762 27.967 79.6406 27.9992 79.3876 27.9992C79.1246 27.9992 78.8865 27.9571 78.6732 27.8727C78.4648 27.7834 78.2862 27.6569 78.1374 27.4932C77.9935 27.3295 77.8819 27.131 77.8025 26.8979C77.7231 26.6647 77.6834 26.4017 77.6834 26.109C77.6834 25.8213 77.7231 25.5608 77.8025 25.3277C77.8868 25.0945 78.0034 24.896 78.1522 24.7323C78.3011 24.5686 78.4797 24.4421 78.688 24.3528C78.8964 24.2635 79.1271 24.2189 79.3801 24.2189C79.653 24.2189 79.8886 24.266 80.0871 24.3602C80.2905 24.4495 80.4592 24.5761 80.5931 24.7398C80.7271 24.9035 80.8263 25.1019 80.8908 25.3351C80.9553 25.5633 80.9875 25.8163 80.9875 26.0942V26.3918ZM80.0499 25.7816C80.0449 25.5534 79.9879 25.3624 79.8787 25.2086C79.7745 25.0498 79.5959 24.9705 79.3429 24.9705C79.1643 24.9705 79.0056 25.0424 78.8666 25.1863C78.7327 25.3301 78.6558 25.5286 78.636 25.7816H80.0499ZM82.2038 28.0067C82.045 28.0067 81.9111 27.9521 81.8019 27.8429C81.6977 27.7338 81.6456 27.5999 81.6456 27.4411C81.6456 27.2625 81.7052 27.1236 81.8242 27.0244C81.9433 26.9251 82.0723 26.8755 82.2112 26.8755C82.37 26.8755 82.499 26.9301 82.5982 27.0392C82.7024 27.1484 82.7545 27.2823 82.7545 27.4411C82.7545 27.5999 82.6999 27.7338 82.5907 27.8429C82.4866 27.9521 82.3576 28.0067 82.2038 28.0067ZM12.8975 35.8979H10.9031L10.5459 36.9248H9.51897L11.3571 32.0803H12.4733L14.3188 36.9248H13.2621L12.8975 35.8979ZM11.8929 33.0626C11.878 33.1122 11.8557 33.1816 11.8259 33.2709C11.7961 33.3602 11.7639 33.452 11.7291 33.5463C11.6994 33.6356 11.6696 33.7224 11.6398 33.8067C11.615 33.8911 11.5952 33.9531 11.5803 33.9928L11.1785 35.109H12.6221L12.1831 33.8588C12.1682 33.8191 12.1484 33.7646 12.1236 33.6951C12.1037 33.6257 12.0789 33.5537 12.0491 33.4793C12.0243 33.3999 11.9995 33.323 11.9747 33.2486C11.9499 33.1742 11.9301 33.1122 11.9152 33.0626H11.8929ZM16.9753 35.0197C17.0894 35.0644 17.1837 35.119 17.2581 35.1835C17.3325 35.243 17.392 35.31 17.4367 35.3844C17.4813 35.4588 17.5111 35.5332 17.526 35.6076C17.5458 35.682 17.5557 35.7515 17.5557 35.816C17.5557 36.0194 17.5136 36.1955 17.4292 36.3444C17.3499 36.4882 17.2382 36.6073 17.0944 36.7016C16.9554 36.7958 16.7892 36.8678 16.5958 36.9174C16.4072 36.962 16.2038 36.9843 15.9855 36.9843C15.6978 36.9843 15.4225 36.9397 15.1595 36.8504C14.8966 36.7561 14.6783 36.6222 14.5047 36.4485L14.9735 35.8458C15.1372 35.9996 15.3009 36.1037 15.4646 36.1583C15.6283 36.2079 15.7896 36.2327 15.9483 36.2327C16.1716 36.2327 16.3378 36.1881 16.4469 36.0988C16.5561 36.0045 16.6106 35.8979 16.6106 35.7788C16.6106 35.63 16.5561 35.5283 16.4469 35.4737C16.3378 35.4141 16.1964 35.3844 16.0228 35.3844H15.5167V34.7816H16.0228C16.2063 34.7816 16.3403 34.7394 16.4246 34.6551C16.5089 34.5658 16.5511 34.4765 16.5511 34.3872C16.5511 34.2731 16.504 34.1788 16.4097 34.1044C16.3204 34.025 16.184 33.9853 16.0004 33.9853C15.8615 33.9853 15.7102 34.0151 15.5465 34.0746C15.3877 34.1292 15.2488 34.2086 15.1298 34.3128C15.0553 34.2185 14.9809 34.1218 14.9065 34.0226C14.837 33.9184 14.7676 33.8167 14.6981 33.7174C14.9065 33.5488 15.1298 33.4272 15.3679 33.3528C15.611 33.2734 15.864 33.2337 16.1269 33.2337C16.3651 33.2337 16.571 33.261 16.7446 33.3156C16.9182 33.3652 17.0596 33.4347 17.1688 33.524C17.2829 33.6083 17.3672 33.71 17.4218 33.8291C17.4764 33.9432 17.5036 34.0672 17.5036 34.2012C17.5036 34.345 17.464 34.4889 17.3846 34.6328C17.3052 34.7766 17.1713 34.8932 16.9827 34.9825L16.9753 35.0197ZM21.7804 36.9248V33.2858H22.7106V36.9248H21.7804ZM21.3934 35.7788C21.3934 35.9772 21.3612 36.1484 21.2967 36.2923C21.2322 36.4361 21.1404 36.5552 21.0213 36.6495C20.9072 36.7437 20.7683 36.8132 20.6046 36.8578C20.4459 36.9025 20.2673 36.9248 20.0688 36.9248H18.2456V33.2858H19.1758V34.603H20.0316C20.4384 34.603 20.7658 34.7022 21.0139 34.9007C21.2669 35.0991 21.3934 35.3918 21.3934 35.7788ZM20.4409 35.7639C20.4409 35.6151 20.3913 35.5034 20.2921 35.429C20.1978 35.3497 20.0763 35.31 19.9274 35.31H19.1758V36.2178H19.9349C20.0787 36.2178 20.1978 36.1831 20.2921 36.1137C20.3913 36.0392 20.4409 35.9227 20.4409 35.7639ZM27.5322 36.9248V36.6271L27.5173 36.6197C27.3585 36.7685 27.1849 36.8702 26.9964 36.9248C26.8128 36.9794 26.6516 37.0067 26.5127 37.0067C26.3539 37.0067 26.2001 36.9843 26.0513 36.9397C25.9024 36.895 25.771 36.8256 25.6569 36.7313C25.5428 36.6371 25.451 36.5155 25.3815 36.3667C25.3121 36.2129 25.2773 36.0293 25.2773 35.816C25.2773 35.6225 25.3145 35.4514 25.389 35.3025C25.4634 35.1537 25.5651 35.0297 25.6941 34.9304C25.8231 34.8312 25.9694 34.7568 26.1331 34.7072C26.3018 34.6526 26.4804 34.6253 26.6689 34.6253C26.8178 34.6253 26.9592 34.6377 27.0931 34.6625C27.232 34.6824 27.3784 34.727 27.5322 34.7965V34.5509C27.5322 34.1639 27.3089 33.9705 26.8624 33.9705C26.6937 33.9705 26.53 33.9903 26.3713 34.03C26.2125 34.0697 26.0513 34.1292 25.8876 34.2086L25.6271 33.5165C25.8255 33.4173 26.0389 33.3429 26.2671 33.2933C26.4953 33.2387 26.7359 33.2114 26.9889 33.2114C27.4702 33.2114 27.8348 33.3181 28.0828 33.5314C28.3309 33.7447 28.4549 34.0647 28.4549 34.4914V36.9248H27.5322ZM27.5322 35.4662C27.4379 35.4117 27.3337 35.367 27.2196 35.3323C27.1105 35.2926 26.9815 35.2728 26.8326 35.2728C26.659 35.2728 26.5127 35.3174 26.3936 35.4067C26.2795 35.491 26.2224 35.6151 26.2224 35.7788C26.2224 35.9375 26.272 36.0616 26.3713 36.1509C26.4754 36.2352 26.6193 36.2774 26.8029 36.2774C26.9269 36.2774 27.0559 36.2451 27.1898 36.1806C27.3238 36.1161 27.4379 36.0368 27.5322 35.9425V35.4662ZM31.0645 33.2933C31.2282 33.2933 31.382 33.3131 31.5259 33.3528C31.6698 33.3925 31.7938 33.452 31.898 33.5314C32.0071 33.6058 32.0915 33.7026 32.151 33.8216C32.2155 33.9407 32.2477 34.0796 32.2477 34.2384C32.2477 34.3922 32.2056 34.5335 32.1212 34.6625C32.0419 34.7915 31.9377 34.8932 31.8087 34.9676C31.9823 35.0371 32.1188 35.1462 32.218 35.2951C32.3222 35.4439 32.3742 35.6126 32.3742 35.8011C32.3742 36.1335 32.2601 36.4039 32.0319 36.6123C31.8037 36.8206 31.4788 36.9248 31.0571 36.9248H29.2339V33.2933H31.0645ZM30.1566 34.03V34.6774H30.938C31.062 34.6774 31.1588 34.6477 31.2282 34.5881C31.2977 34.5236 31.3324 34.4418 31.3324 34.3425C31.3324 34.2433 31.3002 34.1664 31.2357 34.1119C31.1712 34.0573 31.0744 34.03 30.9454 34.03H30.1566ZM30.1566 35.3621V36.1955H30.9306C31.2679 36.1955 31.4366 36.0566 31.4366 35.7788C31.4366 35.6349 31.3895 35.5307 31.2952 35.4662C31.2009 35.3968 31.0819 35.3621 30.938 35.3621H30.1566ZM35.3789 34.7816C35.3144 34.8759 35.2524 34.9726 35.1929 35.0718C35.1334 35.1661 35.0689 35.2628 34.9994 35.3621C34.8258 35.62 34.6521 35.883 34.4785 36.1509C34.3098 36.4138 34.1362 36.6718 33.9576 36.9248H33.0199V33.2858H33.9576V35.5034H33.9948C34.0543 35.4042 34.1139 35.31 34.1734 35.2207C34.2329 35.1314 34.2925 35.0396 34.352 34.9453L35.4161 33.2858H36.3538V36.9248H35.4161V34.7816H35.3789ZM39.2397 36.9248V36.6271L39.2248 36.6197C39.0661 36.7685 38.8924 36.8702 38.7039 36.9248C38.5203 36.9794 38.3591 37.0067 38.2202 37.0067C38.0614 37.0067 37.9077 36.9843 37.7588 36.9397C37.61 36.895 37.4785 36.8256 37.3644 36.7313C37.2503 36.6371 37.1585 36.5155 37.0891 36.3667C37.0196 36.2129 36.9849 36.0293 36.9849 35.816C36.9849 35.6225 37.0221 35.4514 37.0965 35.3025C37.1709 35.1537 37.2726 35.0297 37.4016 34.9304C37.5306 34.8312 37.677 34.7568 37.8407 34.7072C38.0094 34.6526 38.188 34.6253 38.3765 34.6253C38.5253 34.6253 38.6667 34.6377 38.8007 34.6625C38.9396 34.6824 39.0859 34.727 39.2397 34.7965V34.5509C39.2397 34.1639 39.0165 33.9705 38.57 33.9705C38.4013 33.9705 38.2376 33.9903 38.0788 34.03C37.9201 34.0697 37.7588 34.1292 37.5951 34.2086L37.3346 33.5165C37.5331 33.4173 37.7464 33.3429 37.9746 33.2933C38.2028 33.2387 38.4435 33.2114 38.6965 33.2114C39.1777 33.2114 39.5423 33.3181 39.7904 33.5314C40.0384 33.7447 40.1625 34.0647 40.1625 34.4914V36.9248H39.2397ZM39.2397 35.4662C39.1454 35.4117 39.0413 35.367 38.9272 35.3323C38.818 35.2926 38.689 35.2728 38.5402 35.2728C38.3666 35.2728 38.2202 35.3174 38.1011 35.4067C37.987 35.491 37.93 35.6151 37.93 35.7788C37.93 35.9375 37.9796 36.0616 38.0788 36.1509C38.183 36.2352 38.3269 36.2774 38.5104 36.2774C38.6345 36.2774 38.7634 36.2451 38.8974 36.1806C39.0313 36.1161 39.1454 36.0368 39.2397 35.9425V35.4662ZM44.6102 38.0187H43.7692V36.9248H40.9414V33.2858H41.8716V36.203H43.3079V33.2858H44.253V36.203H44.6102V38.0187ZM47.5152 34.7816C47.4508 34.8759 47.3887 34.9726 47.3292 35.0718C47.2697 35.1661 47.2052 35.2628 47.1357 35.3621C46.9621 35.62 46.7884 35.883 46.6148 36.1509C46.4461 36.4138 46.2725 36.6718 46.0939 36.9248H45.1562V33.2858H46.0939V35.5034H46.1311C46.1906 35.4042 46.2502 35.31 46.3097 35.2207C46.3692 35.1314 46.4288 35.0396 46.4883 34.9453L47.5525 33.2858H48.4901V36.9248H47.5525V34.7816H47.5152ZM50.9221 37.0067C50.6591 37.0067 50.421 36.962 50.2077 36.8727C49.9993 36.7834 49.8207 36.6569 49.6719 36.4932C49.523 36.3295 49.4065 36.131 49.3221 35.8979C49.2427 35.6647 49.2031 35.4042 49.2031 35.1165C49.2031 34.8188 49.2452 34.5534 49.3296 34.3202C49.4139 34.0821 49.533 33.8836 49.6868 33.7249C49.8406 33.5612 50.0241 33.4371 50.2374 33.3528C50.4508 33.2635 50.6839 33.2189 50.937 33.2189C51.19 33.2189 51.4232 33.2635 51.6365 33.3528C51.8498 33.4371 52.0309 33.5612 52.1797 33.7249C52.3335 33.8886 52.4526 34.087 52.5369 34.3202C52.6213 34.5534 52.6634 34.8139 52.6634 35.1016C52.6634 35.3993 52.6188 35.6672 52.5295 35.9053C52.4451 36.1385 52.3261 36.3369 52.1723 36.5006C52.0185 36.6643 51.8349 36.7909 51.6216 36.8802C51.4083 36.9645 51.1751 37.0067 50.9221 37.0067ZM50.9146 34.0002C50.6666 34.0002 50.4781 34.1044 50.3491 34.3128C50.2201 34.5211 50.1556 34.7841 50.1556 35.1016C50.1556 35.4588 50.2226 35.7366 50.3565 35.9351C50.4905 36.1285 50.6839 36.2253 50.937 36.2253C51.061 36.2253 51.1701 36.198 51.2644 36.1434C51.3636 36.0839 51.4455 36.0045 51.51 35.9053C51.5745 35.8011 51.6241 35.682 51.6588 35.5481C51.6935 35.4141 51.7109 35.2703 51.7109 35.1165C51.7109 34.7841 51.6439 34.5162 51.51 34.3128C51.376 34.1044 51.1776 34.0002 50.9146 34.0002ZM55.7349 36.9248V35.4141H54.3209V36.9248H53.3833V33.2858H54.3209V34.67H55.7349V33.2858H56.6725V36.9248H55.7349ZM59.8191 36.9248V35.4141H58.4051V36.9248H57.4675V33.2858H58.4051V34.67H59.8191V33.2858H60.7567V36.9248H59.8191ZM63.2037 37.0067C62.9408 37.0067 62.7027 36.962 62.4893 36.8727C62.281 36.7834 62.1024 36.6569 61.9535 36.4932C61.8047 36.3295 61.6881 36.131 61.6038 35.8979C61.5244 35.6647 61.4847 35.4042 61.4847 35.1165C61.4847 34.8188 61.5269 34.5534 61.6112 34.3202C61.6956 34.0821 61.8146 33.8836 61.9684 33.7249C62.1222 33.5612 62.3058 33.4371 62.5191 33.3528C62.7324 33.2635 62.9656 33.2189 63.2186 33.2189C63.4716 33.2189 63.7048 33.2635 63.9181 33.3528C64.1315 33.4371 64.3125 33.5612 64.4614 33.7249C64.6152 33.8886 64.7342 34.087 64.8186 34.3202C64.9029 34.5534 64.9451 34.8139 64.9451 35.1016C64.9451 35.3993 64.9004 35.6672 64.8111 35.9053C64.7268 36.1385 64.6077 36.3369 64.4539 36.5006C64.3001 36.6643 64.1166 36.7909 63.9033 36.8802C63.6899 36.9645 63.4568 37.0067 63.2037 37.0067ZM63.1963 34.0002C62.9482 34.0002 62.7597 34.1044 62.6307 34.3128C62.5017 34.5211 62.4372 34.7841 62.4372 35.1016C62.4372 35.4588 62.5042 35.7366 62.6382 35.9351C62.7721 36.1285 62.9656 36.2253 63.2186 36.2253C63.3426 36.2253 63.4518 36.198 63.5461 36.1434C63.6453 36.0839 63.7271 36.0045 63.7916 35.9053C63.8561 35.8011 63.9057 35.682 63.9405 35.5481C63.9752 35.4141 63.9926 35.2703 63.9926 35.1165C63.9926 34.7841 63.9256 34.5162 63.7916 34.3128C63.6577 34.1044 63.4592 34.0002 63.1963 34.0002ZM68.0016 34.7816C67.9371 34.8759 67.8751 34.9726 67.8156 35.0718C67.7561 35.1661 67.6916 35.2628 67.6221 35.3621C67.4485 35.62 67.2748 35.883 67.1012 36.1509C66.9325 36.4138 66.7589 36.6718 66.5803 36.9248H65.6426V33.2858H66.5803V35.5034H66.6175C66.677 35.4042 66.7366 35.31 66.7961 35.2207C66.8556 35.1314 66.9152 35.0396 66.9747 34.9453L68.0388 33.2858H68.9765V36.9248H68.0388V34.7816H68.0016ZM66.8184 31.7156C66.8432 31.8545 66.8953 31.9711 66.9747 32.0654C67.059 32.1547 67.1781 32.1993 67.3319 32.1993C67.4956 32.1993 67.6147 32.1473 67.6891 32.0431C67.7685 31.9339 67.8082 31.8248 67.8082 31.7156H68.4705C68.4705 31.8248 68.4506 31.9438 68.4109 32.0728C68.3762 32.1969 68.3142 32.3159 68.2249 32.43C68.1405 32.5392 68.024 32.631 67.8751 32.7054C67.7313 32.7798 67.5502 32.817 67.3319 32.817C67.1086 32.817 66.9226 32.7798 66.7738 32.7054C66.6249 32.631 66.5059 32.5392 66.4166 32.43C66.3273 32.3159 66.2628 32.1969 66.2231 32.0728C66.1883 31.9438 66.171 31.8248 66.171 31.7156H66.8184ZM11.744 44.31C11.9077 43.9726 12.0715 43.6377 12.2352 43.3053C12.4039 42.9729 12.5701 42.6356 12.7338 42.2933H13.6565V45.9248H12.7263V44.0346H12.704L12.4287 44.5779L11.7068 45.9322L11.0073 44.6002L10.7096 44.0197H10.6948V45.9248H9.76454V42.2933H10.6873C10.8609 42.6306 11.0346 42.968 11.2082 43.3053C11.3819 43.6427 11.5505 43.9776 11.7143 44.31H11.744ZM17.6752 44.3918H15.3236C15.3484 44.6647 15.4353 44.873 15.5841 45.0169C15.7329 45.1608 15.9264 45.2327 16.1646 45.2327C16.3084 45.2327 16.4573 45.2054 16.6111 45.1509C16.7648 45.0963 16.9038 45.0268 17.0278 44.9425L17.4371 45.5453C17.2237 45.714 17.0055 45.833 16.7822 45.9025C16.5639 45.967 16.3283 45.9992 16.0753 45.9992C15.8123 45.9992 15.5742 45.9571 15.3609 45.8727C15.1525 45.7834 14.9739 45.6569 14.8251 45.4932C14.6812 45.3295 14.5696 45.131 14.4902 44.8979C14.4108 44.6647 14.3711 44.4017 14.3711 44.109C14.3711 43.8213 14.4108 43.5608 14.4902 43.3277C14.5745 43.0945 14.6911 42.896 14.8399 42.7323C14.9888 42.5686 15.1674 42.4421 15.3757 42.3528C15.5841 42.2635 15.8148 42.2189 16.0678 42.2189C16.3407 42.2189 16.5763 42.266 16.7748 42.3602C16.9782 42.4495 17.1469 42.5761 17.2808 42.7398C17.4148 42.9035 17.514 43.1019 17.5785 43.3351C17.643 43.5633 17.6752 43.8163 17.6752 44.0942V44.3918ZM16.7376 43.7816C16.7326 43.5534 16.6755 43.3624 16.5664 43.2086C16.4622 43.0498 16.2836 42.9705 16.0306 42.9705C15.852 42.9705 15.6932 43.0424 15.5543 43.1863C15.4204 43.3301 15.3435 43.5286 15.3236 43.7816H16.7376ZM20.0747 43.0374V45.9248H19.1296V43.0374H18.0654V42.2933H21.1537V43.0374H20.0747ZM24.8843 44.3918H22.5328C22.5576 44.6647 22.6444 44.873 22.7932 45.0169C22.9421 45.1608 23.1355 45.2327 23.3737 45.2327C23.5175 45.2327 23.6664 45.2054 23.8202 45.1509C23.974 45.0963 24.1129 45.0268 24.2369 44.9425L24.6462 45.5453C24.4329 45.714 24.2146 45.833 23.9913 45.9025C23.773 45.967 23.5374 45.9992 23.2844 45.9992C23.0214 45.9992 22.7833 45.9571 22.57 45.8727C22.3616 45.7834 22.183 45.6569 22.0342 45.4932C21.8903 45.3295 21.7787 45.131 21.6993 44.8979C21.6199 44.6647 21.5802 44.4017 21.5802 44.109C21.5802 43.8213 21.6199 43.5608 21.6993 43.3277C21.7836 43.0945 21.9002 42.896 22.0491 42.7323C22.1979 42.5686 22.3765 42.4421 22.5849 42.3528C22.7932 42.2635 23.0239 42.2189 23.2769 42.2189C23.5498 42.2189 23.7854 42.266 23.9839 42.3602C24.1873 42.4495 24.356 42.5761 24.4899 42.7398C24.6239 42.9035 24.7231 43.1019 24.7876 43.3351C24.8521 43.5633 24.8843 43.8163 24.8843 44.0942V44.3918ZM23.9467 43.7816C23.9417 43.5534 23.8847 43.3624 23.7755 43.2086C23.6713 43.0498 23.4927 42.9705 23.2397 42.9705C23.0611 42.9705 22.9024 43.0424 22.7635 43.1863C22.6295 43.3301 22.5526 43.5286 22.5328 43.7816H23.9467ZM27.1945 46.0067C26.9316 46.0067 26.6934 45.962 26.4801 45.8727C26.2717 45.7834 26.0931 45.6569 25.9443 45.4932C25.7955 45.3295 25.6789 45.131 25.5945 44.8979C25.5152 44.6647 25.4755 44.4042 25.4755 44.1165C25.4755 43.8188 25.5176 43.5534 25.602 43.3202C25.6863 43.0821 25.8054 42.8836 25.9592 42.7249C26.113 42.5612 26.2965 42.4371 26.5099 42.3528C26.7232 42.2635 26.9564 42.2189 27.2094 42.2189C27.4624 42.2189 27.6956 42.2635 27.9089 42.3528C28.1222 42.4371 28.3033 42.5612 28.4521 42.7249C28.6059 42.8886 28.725 43.087 28.8093 43.3202C28.8937 43.5534 28.9358 43.8139 28.9358 44.1016C28.9358 44.3993 28.8912 44.6672 28.8019 44.9053C28.7176 45.1385 28.5985 45.3369 28.4447 45.5006C28.2909 45.6643 28.1073 45.7909 27.894 45.8802C27.6807 45.9645 27.4475 46.0067 27.1945 46.0067ZM27.1871 43.0002C26.939 43.0002 26.7505 43.1044 26.6215 43.3128C26.4925 43.5211 26.428 43.7841 26.428 44.1016C26.428 44.4588 26.495 44.7366 26.6289 44.9351C26.7629 45.1285 26.9564 45.2253 27.2094 45.2253C27.3334 45.2253 27.4426 45.198 27.5368 45.1434C27.636 45.0839 27.7179 45.0045 27.7824 44.9053C27.8469 44.8011 27.8965 44.682 27.9312 44.5481C27.966 44.4141 27.9833 44.2703 27.9833 44.1165C27.9833 43.7841 27.9163 43.5162 27.7824 43.3128C27.6484 43.1044 27.45 43.0002 27.1871 43.0002ZM32.9673 44.109C32.9673 44.4414 32.9226 44.7267 32.8333 44.9648C32.749 45.203 32.6373 45.3989 32.4984 45.5527C32.3595 45.7016 32.2008 45.8132 32.0222 45.8876C31.8485 45.9571 31.6724 45.9918 31.4938 45.9918C31.3053 45.9918 31.1391 45.9645 30.9952 45.9099C30.8563 45.8504 30.7298 45.7636 30.6157 45.6495H30.5934V47.0783C30.4346 47.1378 30.2783 47.1973 30.1245 47.2569C29.9707 47.3214 29.8145 47.3859 29.6557 47.4503V42.2933H30.5934V42.6058H30.6157C30.7546 42.4768 30.9059 42.3801 31.0696 42.3156C31.2333 42.2511 31.3995 42.2189 31.5682 42.2189C31.7567 42.2189 31.9353 42.2561 32.104 42.3305C32.2727 42.3999 32.4215 42.5116 32.5505 42.6654C32.6795 42.8142 32.7812 43.0102 32.8556 43.2532C32.93 43.4914 32.9673 43.7766 32.9673 44.109ZM32.0073 44.0942C32.0023 43.7221 31.9378 43.4467 31.8138 43.2681C31.6898 43.0895 31.5186 43.0002 31.3003 43.0002C31.1564 43.0002 31.0225 43.0399 30.8985 43.1193C30.7794 43.1937 30.6777 43.283 30.5934 43.3872V44.8309C30.6777 44.9351 30.7794 45.0244 30.8985 45.0988C31.0175 45.1732 31.1465 45.2104 31.2854 45.2104C31.5186 45.2104 31.6972 45.1211 31.8212 44.9425C31.9453 44.7639 32.0073 44.4811 32.0073 44.0942ZM35.3484 46.0067C35.0854 46.0067 34.8473 45.962 34.634 45.8727C34.4256 45.7834 34.247 45.6569 34.0982 45.4932C33.9493 45.3295 33.8327 45.131 33.7484 44.8979C33.669 44.6647 33.6293 44.4042 33.6293 44.1165C33.6293 43.8188 33.6715 43.5534 33.7558 43.3202C33.8402 43.0821 33.9592 42.8836 34.113 42.7249C34.2668 42.5612 34.4504 42.4371 34.6637 42.3528C34.8771 42.2635 35.1102 42.2189 35.3632 42.2189C35.6163 42.2189 35.8494 42.2635 36.0628 42.3528C36.2761 42.4371 36.4572 42.5612 36.606 42.7249C36.7598 42.8886 36.8789 43.087 36.9632 43.3202C37.0475 43.5534 37.0897 43.8139 37.0897 44.1016C37.0897 44.3993 37.0451 44.6672 36.9558 44.9053C36.8714 45.1385 36.7524 45.3369 36.5986 45.5006C36.4448 45.6643 36.2612 45.7909 36.0479 45.8802C35.8345 45.9645 35.6014 46.0067 35.3484 46.0067ZM35.3409 43.0002C35.0929 43.0002 34.9043 43.1044 34.7753 43.3128C34.6464 43.5211 34.5819 43.7841 34.5819 44.1016C34.5819 44.4588 34.6488 44.7366 34.7828 44.9351C34.9167 45.1285 35.1102 45.2253 35.3632 45.2253C35.4873 45.2253 35.5964 45.198 35.6907 45.1434C35.7899 45.0839 35.8718 45.0045 35.9362 44.9053C36.0007 44.8011 36.0504 44.682 36.0851 44.5481C36.1198 44.4141 36.1372 44.2703 36.1372 44.1165C36.1372 43.7841 36.0702 43.5162 35.9362 43.3128C35.8023 43.1044 35.6039 43.0002 35.3409 43.0002ZM39.0523 43.9379C39.0523 44.2008 39.0424 44.4563 39.0226 44.7044C39.0077 44.9524 38.9581 45.1732 38.8737 45.3667C38.7944 45.5552 38.6678 45.709 38.4942 45.8281C38.3206 45.9422 38.0775 45.9992 37.7649 45.9992C37.7252 45.9992 37.6855 45.9967 37.6459 45.9918C37.6062 45.9918 37.5665 45.9893 37.5268 45.9843L37.497 45.2327C37.6558 45.2129 37.7798 45.1831 37.8691 45.1434C37.9584 45.0988 38.0229 45.0293 38.0626 44.9351C38.1072 44.8408 38.1345 44.7118 38.1444 44.5481C38.1544 44.3844 38.1593 44.1711 38.1593 43.9081V42.2933H40.9202V45.9248H39.9825V43.0226H39.0523V43.9379ZM43.3569 46.0067C43.0939 46.0067 42.8558 45.962 42.6425 45.8727C42.4341 45.7834 42.2555 45.6569 42.1067 45.4932C41.9578 45.3295 41.8412 45.131 41.7569 44.8979C41.6775 44.6647 41.6378 44.4042 41.6378 44.1165C41.6378 43.8188 41.68 43.5534 41.7644 43.3202C41.8487 43.0821 41.9678 42.8836 42.1216 42.7249C42.2753 42.5612 42.4589 42.4371 42.6722 42.3528C42.8856 42.2635 43.1187 42.2189 43.3718 42.2189C43.6248 42.2189 43.8579 42.2635 44.0713 42.3528C44.2846 42.4371 44.4657 42.5612 44.6145 42.7249C44.7683 42.8886 44.8874 43.087 44.9717 43.3202C45.056 43.5534 45.0982 43.8139 45.0982 44.1016C45.0982 44.3993 45.0536 44.6672 44.9643 44.9053C44.8799 45.1385 44.7609 45.3369 44.6071 45.5006C44.4533 45.6643 44.2697 45.7909 44.0564 45.8802C43.8431 45.9645 43.6099 46.0067 43.3569 46.0067ZM43.3494 43.0002C43.1014 43.0002 42.9128 43.1044 42.7839 43.3128C42.6549 43.5211 42.5904 43.7841 42.5904 44.1016C42.5904 44.4588 42.6574 44.7366 42.7913 44.9351C42.9253 45.1285 43.1187 45.2253 43.3718 45.2253C43.4958 45.2253 43.6049 45.198 43.6992 45.1434C43.7984 45.0839 43.8803 45.0045 43.9448 44.9053C44.0093 44.8011 44.0589 44.682 44.0936 44.5481C44.1283 44.4141 44.1457 44.2703 44.1457 44.1165C44.1457 43.7841 44.0787 43.5162 43.9448 43.3128C43.8108 43.1044 43.6124 43.0002 43.3494 43.0002ZM46.7483 43.0374V45.9248H45.8106V42.2933H48.6757V43.0374H46.7483ZM51.4614 43.7816C51.3969 43.8759 51.3349 43.9726 51.2753 44.0718C51.2158 44.1661 51.1513 44.2628 51.0818 44.3621C50.9082 44.62 50.7346 44.883 50.5609 45.1509C50.3922 45.4138 50.2186 45.6718 50.04 45.9248H49.1024V42.2858H50.04V44.5034H50.0772C50.1367 44.4042 50.1963 44.31 50.2558 44.2207C50.3153 44.1314 50.3749 44.0396 50.4344 43.9453L51.4986 42.2858H52.4362V45.9248H51.4986V43.7816H51.4614ZM55.5528 43.7816C55.4883 43.8759 55.4263 43.9726 55.3668 44.0718C55.3073 44.1661 55.2428 44.2628 55.1733 44.3621C54.9997 44.62 54.826 44.883 54.6524 45.1509C54.4837 45.4138 54.3101 45.6718 54.1315 45.9248H53.1938V42.2858H54.1315V44.5034H54.1687C54.2282 44.4042 54.2877 44.31 54.3473 44.2207C54.4068 44.1314 54.4663 44.0396 54.5259 43.9453L55.59 42.2858H56.5277V45.9248H55.59V43.7816H55.5528ZM57.8657 46.0067C57.707 46.0067 57.573 45.9521 57.4639 45.8429C57.3597 45.7338 57.3076 45.5999 57.3076 45.4411C57.3076 45.2625 57.3671 45.1236 57.4862 45.0244C57.6053 44.9251 57.7343 44.8755 57.8732 44.8755C58.0319 44.8755 58.1609 44.9301 58.2601 45.0392C58.3643 45.1484 58.4164 45.2823 58.4164 45.4411C58.4164 45.5999 58.3618 45.7338 58.2527 45.8429C58.1485 45.9521 58.0195 46.0067 57.8657 46.0067Z" fill="white"/>
<g clip-path="url(#clip1)">
<rect width="94" height="122.2" rx="4.7" fill="url(#paint1_linear)"/>
<g style="mix-blend-mode:soft-light" opacity="0.818274">
<g style="mix-blend-mode:soft-light" opacity="0.818274">
<mask id="mask1" style="mask-type:alpha" maskUnits="userSpaceOnUse" x="9" y="46" width="100" height="100">
<g style="mix-blend-mode:soft-light" opacity="0.818274">
<g style="mix-blend-mode:soft-light" opacity="0.818274">
<path d="M59.3375 145.308C86.7009 145.308 108.883 123.126 108.883 95.7626C108.883 68.3992 86.7009 46.2168 59.3375 46.2168C31.9741 46.2168 9.79163 68.3992 9.79163 95.7626C9.79163 123.126 31.9741 145.308 59.3375 145.308Z" fill="white"/>
</g>
</g>
</mask>
<g mask="url(#mask1)">
<g style="mix-blend-mode:soft-light" opacity="0.818274">
<path d="M59.3375 145.308C86.7009 145.308 108.883 123.126 108.883 95.7626C108.883 68.3992 86.7009 46.2168 59.3375 46.2168C31.9741 46.2168 9.79163 68.3992 9.79163 95.7626C9.79163 123.126 31.9741 145.308 59.3375 145.308Z" stroke="white" stroke-width="5.875"/>
</g>
<g style="mix-blend-mode:soft-light" opacity="0.818274">
<g style="mix-blend-mode:soft-light" opacity="0.818274">
<g style="mix-blend-mode:soft-light" opacity="0.818274">
<path fill-rule="evenodd" clip-rule="evenodd" d="M47.919 94.4964L57.881 96.6503C58.6505 96.8165 59.2512 97.4169 59.4184 98.1851L61.5767 108.13L66.5585 99.0984C66.9507 98.3864 67.7314 97.9852 68.5435 98.0728L79.3133 99.2886L72.5489 92.5567C71.9902 92.0012 71.8087 91.1709 72.0847 90.4342L75.9341 80.1642L65.6451 84.0063C64.9071 84.2818 64.0747 84.1014 63.519 83.5436L56.9654 76.9779L57.9965 87.5729C58.0745 88.3694 57.6696 89.1368 56.9669 89.5224L47.919 94.4964ZM60.7495 115.793C60.6535 115.793 60.556 115.786 60.4585 115.772C59.6306 115.651 58.9632 115.03 58.7862 114.213L55.767 100.296L41.8266 97.2829C41.0084 97.1055 40.386 96.4407 40.2645 95.6134C40.143 94.7862 40.5487 93.9709 41.2829 93.5673L53.8712 86.6483L52.4238 71.786C52.3421 70.943 52.7988 70.139 53.5667 69.7781C54.3339 69.4187 55.2465 69.576 55.845 70.1764L65.4508 79.7981L78.6563 74.8667C79.3927 74.5905 80.2229 74.7716 80.7801 75.3271C81.3366 75.8826 81.5165 76.7114 81.2413 77.4473L76.3008 90.6289L86.2253 100.507C86.8305 101.109 86.9888 102.026 86.6176 102.795C86.2471 103.564 85.4312 104.014 84.5815 103.919L69.4269 102.209L62.5074 114.757C62.1519 115.402 61.474 115.793 60.7495 115.793Z" fill="white"/>
</g>
<g style="mix-blend-mode:soft-light" opacity="0.818274">
<path fill-rule="evenodd" clip-rule="evenodd" d="M35.0637 137.143C34.55 137.143 34.0356 136.947 33.6441 136.556C32.8597 135.772 32.8597 134.504 33.6441 133.721L48.4994 118.89C49.2831 118.107 50.5557 118.107 51.3394 118.89C52.1238 119.673 52.1238 120.942 51.3394 121.725L36.4833 136.556C36.0919 136.947 35.5782 137.143 35.0637 137.143Z" fill="white"/>
</g>
<g style="mix-blend-mode:soft-light" opacity="0.818274">
<path fill-rule="evenodd" clip-rule="evenodd" d="M34.337 123.254C33.8233 123.254 33.3089 123.058 32.9174 122.666C32.133 121.883 32.133 120.615 32.9174 119.832L47.7728 105.001C48.5564 104.218 49.8291 104.218 50.6127 105.001C51.3972 105.784 51.3972 107.052 50.6127 107.836L35.7566 122.666C35.3652 123.058 34.8515 123.254 34.337 123.254Z" fill="white"/>
</g>
<g style="mix-blend-mode:soft-light" opacity="0.818274">
<path fill-rule="evenodd" clip-rule="evenodd" d="M19.5905 123.361C19.076 123.361 18.5623 123.165 18.1701 122.773C17.3857 121.99 17.3857 120.72 18.1701 119.938L33.0254 105.109C33.8091 104.326 35.0817 104.326 35.8662 105.109C36.6498 105.892 36.6498 107.161 35.8662 107.944L21.0108 122.772C20.6186 123.165 20.1042 123.361 19.5905 123.361Z" fill="white"/>
</g>
</g>
</g>
</g>
</g>
</g>
<path d="M12.2548 19.0067C11.9026 19.0067 11.5925 18.9446 11.3246 18.8206C11.0617 18.6916 10.8409 18.518 10.6623 18.2997C10.4837 18.0765 10.3473 17.8135 10.253 17.5109C10.1637 17.2033 10.1191 16.8709 10.1191 16.5137C10.1191 16.1565 10.1637 15.8241 10.253 15.5165C10.3473 15.2089 10.4837 14.9435 10.6623 14.7203C10.8459 14.497 11.0691 14.3234 11.3321 14.1993C11.6 14.0704 11.91 14.0059 12.2623 14.0059C12.5947 14.0059 12.8923 14.0654 13.1553 14.1845C13.4232 14.3035 13.6489 14.4747 13.8325 14.6979C14.021 14.9162 14.1624 15.1792 14.2566 15.4868C14.3558 15.7943 14.4055 16.1342 14.4055 16.5063C14.4055 16.8833 14.3558 17.2256 14.2566 17.5332C14.1624 17.8408 14.021 18.1037 13.8325 18.322C13.6489 18.5403 13.4232 18.709 13.1553 18.8281C12.8923 18.9471 12.5922 19.0067 12.2548 19.0067ZM12.2548 14.8914C12.0663 14.8914 11.9026 14.9311 11.7637 15.0105C11.6248 15.0899 11.5082 15.2015 11.4139 15.3454C11.3196 15.4892 11.2502 15.6604 11.2055 15.8588C11.1609 16.0523 11.1386 16.2656 11.1386 16.4988C11.1386 16.732 11.1609 16.9478 11.2055 17.1462C11.2552 17.3397 11.3271 17.5109 11.4214 17.6597C11.5156 17.8036 11.6322 17.9177 11.7711 18.002C11.91 18.0814 12.0737 18.1211 12.2623 18.1211C12.4508 18.1211 12.6145 18.0789 12.7534 17.9946C12.8973 17.9053 13.0139 17.7887 13.1032 17.6448C13.1974 17.496 13.2669 17.3248 13.3115 17.1314C13.3611 16.9329 13.386 16.7246 13.386 16.5063C13.386 16.2731 13.3611 16.0573 13.3115 15.8588C13.2669 15.6604 13.1974 15.4892 13.1032 15.3454C13.0089 15.2015 12.8898 15.0899 12.746 15.0105C12.6071 14.9311 12.4433 14.8914 12.2548 14.8914ZM17.4793 18.9248V17.4141H16.0654V18.9248H15.1278V15.2858H16.0654V16.67H17.4793V15.2858H18.417V18.9248H17.4793ZM20.4547 16.9379C20.4547 17.2008 20.4448 17.4563 20.425 17.7044C20.4101 17.9524 20.3605 18.1732 20.2761 18.3667C20.1967 18.5552 20.0702 18.709 19.8966 18.8281C19.723 18.9422 19.4799 18.9992 19.1673 18.9992C19.1276 18.9992 19.0879 18.9967 19.0482 18.9918C19.0086 18.9918 18.9689 18.9893 18.9292 18.9843L18.8994 18.2327C19.0582 18.2129 19.1822 18.1831 19.2715 18.1434C19.3608 18.0988 19.4253 18.0293 19.465 17.9351C19.5096 17.8408 19.5369 17.7118 19.5468 17.5481C19.5568 17.3844 19.5617 17.1711 19.5617 16.9081V15.2933H22.3226V18.9248H21.3849V16.0226H20.4547V16.9379ZM25.2132 18.9248V18.6271L25.1983 18.6197C25.0396 18.7685 24.8659 18.8702 24.6774 18.9248C24.4938 18.9794 24.3326 19.0067 24.1937 19.0067C24.0349 19.0067 23.8811 18.9843 23.7323 18.9397C23.5835 18.895 23.452 18.8256 23.3379 18.7313C23.2238 18.6371 23.132 18.5155 23.0626 18.3667C22.9931 18.2129 22.9584 18.0293 22.9584 17.816C22.9584 17.6225 22.9956 17.4514 23.07 17.3025C23.1444 17.1537 23.2461 17.0297 23.3751 16.9304C23.5041 16.8312 23.6505 16.7568 23.8142 16.7072C23.9828 16.6526 24.1614 16.6253 24.35 16.6253C24.4988 16.6253 24.6402 16.6377 24.7741 16.6625C24.9131 16.6824 25.0594 16.727 25.2132 16.7965V16.5509C25.2132 16.1639 24.99 15.9705 24.5435 15.9705C24.3748 15.9705 24.2111 15.9903 24.0523 16.03C23.8935 16.0697 23.7323 16.1292 23.5686 16.2086L23.3081 15.5165C23.5066 15.4173 23.7199 15.3429 23.9481 15.2933C24.1763 15.2387 24.4169 15.2114 24.67 15.2114C25.1512 15.2114 25.5158 15.3181 25.7639 15.5314C26.0119 15.7447 26.136 16.0647 26.136 16.4914V18.9248H25.2132ZM25.2132 17.4662C25.1189 17.4117 25.0148 17.367 24.9007 17.3323C24.7915 17.2926 24.6625 17.2728 24.5137 17.2728C24.34 17.2728 24.1937 17.3174 24.0746 17.4067C23.9605 17.491 23.9035 17.6151 23.9035 17.7788C23.9035 17.9375 23.9531 18.0616 24.0523 18.1509C24.1565 18.2352 24.3004 18.2774 24.4839 18.2774C24.6079 18.2774 24.7369 18.2451 24.8709 18.1806C25.0048 18.1161 25.1189 18.0368 25.2132 17.9425V17.4662ZM29.2665 16.7816C29.202 16.8759 29.14 16.9726 29.0804 17.0718C29.0209 17.1661 28.9564 17.2628 28.8869 17.3621C28.7133 17.62 28.5397 17.883 28.366 18.1509C28.1973 18.4138 28.0237 18.6718 27.8451 18.9248H26.9075V15.2858H27.8451V17.5034H27.8823C27.9419 17.4042 28.0014 17.31 28.0609 17.2207C28.1205 17.1314 28.18 17.0396 28.2395 16.9453L29.3037 15.2858H30.2413V18.9248H29.3037V16.7816H29.2665ZM28.0832 13.7156C28.108 13.8545 28.1601 13.9711 28.2395 14.0654C28.3239 14.1547 28.4429 14.1993 28.5967 14.1993C28.7604 14.1993 28.8795 14.1473 28.9539 14.0431C29.0333 13.9339 29.073 13.8248 29.073 13.7156H29.7353C29.7353 13.8248 29.7154 13.9438 29.6758 14.0728C29.641 14.1969 29.579 14.3159 29.4897 14.43C29.4054 14.5392 29.2888 14.631 29.14 14.7054C28.9961 14.7798 28.815 14.817 28.5967 14.817C28.3735 14.817 28.1874 14.7798 28.0386 14.7054C27.8898 14.631 27.7707 14.5392 27.6814 14.43C27.5921 14.3159 27.5276 14.1969 27.4879 14.0728C27.4532 13.9438 27.4358 13.8248 27.4358 13.7156H28.0832ZM33.351 18.9248V17.4141H31.9371V18.9248H30.9994V15.2858H31.9371V16.67H33.351V15.2858H34.2887V18.9248H33.351ZM35.0985 16.2309H37.1152V17.0793H35.0985V16.2309ZM41.155 15.3007L39.7336 16.9751L41.1624 18.9248H40.1206L38.8109 17.0718V18.9248H37.903V15.3007H38.8109V16.9081L40.1504 15.3007H41.155ZM42.2268 20.3462L42.703 19.0364L41.304 15.2933H42.2789L42.8221 16.9156L43.1272 17.9425H43.157L43.4844 16.9156L44.0351 15.2933H44.9727L43.1272 20.3462H42.2268ZM48.7583 17.109C48.7583 17.4414 48.7136 17.7267 48.6243 17.9648C48.54 18.203 48.4284 18.3989 48.2895 18.5527C48.1506 18.7016 47.9918 18.8132 47.8132 18.8876C47.6396 18.9571 47.4634 18.9918 47.2848 18.9918C47.0963 18.9918 46.9301 18.9645 46.7862 18.9099C46.6473 18.8504 46.5208 18.7636 46.4067 18.6495H46.3844V20.0783C46.2256 20.1378 46.0694 20.1973 45.9156 20.2569C45.7618 20.3214 45.6055 20.3859 45.4467 20.4503V15.2933H46.3844V15.6058H46.4067C46.5456 15.4768 46.6969 15.3801 46.8607 15.3156C47.0244 15.2511 47.1906 15.2189 47.3593 15.2189C47.5478 15.2189 47.7264 15.2561 47.8951 15.3305C48.0637 15.3999 48.2126 15.5116 48.3416 15.6654C48.4705 15.8142 48.5722 16.0102 48.6467 16.2532C48.7211 16.4914 48.7583 16.7766 48.7583 17.109ZM47.7983 17.0942C47.7934 16.7221 47.7289 16.4467 47.6048 16.2681C47.4808 16.0895 47.3096 16.0002 47.0914 16.0002C46.9475 16.0002 46.8135 16.0399 46.6895 16.1193C46.5704 16.1937 46.4687 16.283 46.3844 16.3872V17.8309C46.4687 17.9351 46.5704 18.0244 46.6895 18.0988C46.8086 18.1732 46.9376 18.2104 47.0765 18.2104C47.3096 18.2104 47.4882 18.1211 47.6123 17.9425C47.7363 17.7639 47.7983 17.4811 47.7983 17.0942ZM49.4204 17.1314C49.4204 16.8387 49.4601 16.5757 49.5394 16.3425C49.6188 16.1044 49.7304 15.9035 49.8743 15.7398C50.0182 15.5711 50.1943 15.4421 50.4027 15.3528C50.611 15.2635 50.8467 15.2189 51.1096 15.2189C51.3577 15.2189 51.5908 15.2635 51.8091 15.3528C52.0274 15.4371 52.2284 15.5835 52.4119 15.7919L51.8463 16.3946C51.7174 16.2557 51.5983 16.159 51.4891 16.1044C51.38 16.0498 51.256 16.0226 51.1171 16.0226C50.8789 16.0226 50.6954 16.1218 50.5664 16.3202C50.4374 16.5187 50.3729 16.7816 50.3729 17.109C50.3729 17.4365 50.4349 17.6994 50.5589 17.8979C50.683 18.0963 50.874 18.1955 51.1319 18.1955C51.385 18.1955 51.633 18.0641 51.8761 17.8011L52.4491 18.3741C52.0919 18.7909 51.6405 18.9992 51.0947 18.9992C50.8368 18.9992 50.6036 18.9571 50.3952 18.8727C50.1918 18.7884 50.0157 18.6668 49.8669 18.5081C49.723 18.3444 49.6114 18.1484 49.532 17.9202C49.4576 17.687 49.4204 17.4241 49.4204 17.1314ZM12.0018 22.9984C12.3441 22.9984 12.6591 23.0505 12.9469 23.1547C13.2346 23.2589 13.4926 23.4077 13.7208 23.6012L13.1553 24.3156C12.9667 24.1568 12.7683 24.0427 12.5599 23.9733C12.3565 23.8989 12.1506 23.8617 11.9423 23.8617C11.6992 23.8617 11.5206 23.9113 11.4065 24.0105C11.2973 24.1097 11.2428 24.2288 11.2428 24.3677C11.2428 24.457 11.2676 24.5339 11.3172 24.5984C11.3668 24.6579 11.4313 24.71 11.5107 24.7547C11.595 24.7993 11.6893 24.839 11.7934 24.8737C11.8976 24.9084 12.0068 24.9432 12.1209 24.9779C12.2995 25.0275 12.4905 25.087 12.6939 25.1565C12.8973 25.221 13.0858 25.3103 13.2594 25.4244C13.4331 25.5385 13.577 25.6849 13.6911 25.8635C13.8052 26.0371 13.8622 26.2604 13.8622 26.5332C13.8622 26.7713 13.8176 26.9822 13.7283 27.1658C13.639 27.3493 13.51 27.5031 13.3413 27.6271C13.1776 27.7512 12.9791 27.8454 12.746 27.9099C12.5128 27.9744 12.2523 28.0067 11.9646 28.0067C11.5975 28.0067 11.2502 27.9446 10.9228 27.8206C10.5953 27.6966 10.3175 27.5254 10.0893 27.3071L10.6846 26.6076C10.8781 26.7813 11.089 26.9127 11.3172 27.002C11.5503 27.0913 11.7761 27.136 11.9944 27.136C12.5599 27.136 12.8427 26.9475 12.8427 26.5704C12.8427 26.4067 12.7683 26.2802 12.6195 26.1909C12.4756 26.0966 12.2226 25.9999 11.8604 25.9007C11.6024 25.8263 11.3717 25.7494 11.1683 25.67C10.9699 25.5906 10.8012 25.4963 10.6623 25.3872C10.5284 25.2731 10.4242 25.1391 10.3498 24.9853C10.2803 24.8316 10.2456 24.643 10.2456 24.4198C10.2456 24.1965 10.2927 23.9981 10.387 23.8244C10.4812 23.6458 10.6077 23.497 10.7665 23.3779C10.9252 23.2539 11.1113 23.1597 11.3246 23.0952C11.5379 23.0307 11.7637 22.9984 12.0018 22.9984ZM17.7562 26.109C17.7562 26.4414 17.7115 26.7267 17.6222 26.9648C17.5379 27.203 17.4263 27.3989 17.2874 27.5527C17.1484 27.7016 16.9897 27.8132 16.8111 27.8876C16.6375 27.9571 16.4613 27.9918 16.2827 27.9918C16.0942 27.9918 15.928 27.9645 15.7841 27.9099C15.6452 27.8504 15.5187 27.7636 15.4046 27.6495H15.3823V29.0783C15.2235 29.1378 15.0673 29.1973 14.9135 29.2569C14.7597 29.3214 14.6034 29.3859 14.4446 29.4503V24.2933H15.3823V24.6058H15.4046C15.5435 24.4768 15.6948 24.3801 15.8586 24.3156C16.0223 24.2511 16.1885 24.2189 16.3572 24.2189C16.5457 24.2189 16.7243 24.2561 16.893 24.3305C17.0616 24.3999 17.2105 24.5116 17.3395 24.6654C17.4684 24.8142 17.5701 25.0102 17.6446 25.2532C17.719 25.4914 17.7562 25.7766 17.7562 26.109ZM16.7962 26.0942C16.7912 25.7221 16.7268 25.4467 16.6027 25.2681C16.4787 25.0895 16.3075 25.0002 16.0893 25.0002C15.9454 25.0002 15.8114 25.0399 15.6874 25.1193C15.5683 25.1937 15.4666 25.283 15.3823 25.3872V26.8309C15.4666 26.9351 15.5683 27.0244 15.6874 27.0988C15.8065 27.1732 15.9355 27.2104 16.0744 27.2104C16.3075 27.2104 16.4861 27.1211 16.6102 26.9425C16.7342 26.7639 16.7962 26.4811 16.7962 26.0942ZM21.7224 26.3918H19.3708C19.3956 26.6647 19.4824 26.873 19.6313 27.0169C19.7801 27.1608 19.9736 27.2327 20.2117 27.2327C20.3556 27.2327 20.5044 27.2054 20.6582 27.1509C20.812 27.0963 20.9509 27.0268 21.0749 26.9425L21.4842 27.5453C21.2709 27.714 21.0526 27.833 20.8294 27.9025C20.6111 27.967 20.3754 27.9992 20.1224 27.9992C19.8595 27.9992 19.6213 27.9571 19.408 27.8727C19.1996 27.7834 19.021 27.6569 18.8722 27.4932C18.7283 27.3295 18.6167 27.131 18.5373 26.8979C18.458 26.6647 18.4183 26.4017 18.4183 26.109C18.4183 25.8213 18.458 25.5608 18.5373 25.3277C18.6217 25.0945 18.7383 24.896 18.8871 24.7323C19.0359 24.5686 19.2145 24.4421 19.4229 24.3528C19.6313 24.2635 19.8619 24.2189 20.115 24.2189C20.3878 24.2189 20.6235 24.266 20.8219 24.3602C21.0253 24.4495 21.194 24.5761 21.328 24.7398C21.4619 24.9035 21.5611 25.1019 21.6256 25.3351C21.6901 25.5633 21.7224 25.8163 21.7224 26.0942V26.3918ZM20.7847 25.7816C20.7798 25.5534 20.7227 25.3624 20.6136 25.2086C20.5094 25.0498 20.3308 24.9705 20.0778 24.9705C19.8992 24.9705 19.7404 25.0424 19.6015 25.1863C19.4675 25.3301 19.3906 25.5286 19.3708 25.7816H20.7847ZM22.3135 26.1314C22.3135 25.8387 22.3532 25.5757 22.4326 25.3425C22.512 25.1044 22.6236 24.9035 22.7675 24.7398C22.9113 24.5711 23.0874 24.4421 23.2958 24.3528C23.5042 24.2635 23.7398 24.2189 24.0028 24.2189C24.2508 24.2189 24.484 24.2635 24.7023 24.3528C24.9206 24.4371 25.1215 24.5835 25.3051 24.7919L24.7395 25.3946C24.6105 25.2557 24.4914 25.159 24.3823 25.1044C24.2731 25.0498 24.1491 25.0226 24.0102 25.0226C23.7721 25.0226 23.5885 25.1218 23.4595 25.3202C23.3305 25.5187 23.266 25.7816 23.266 26.109C23.266 26.4365 23.3281 26.6994 23.4521 26.8979C23.5761 27.0963 23.7671 27.1955 24.0251 27.1955C24.2781 27.1955 24.5262 27.0641 24.7693 26.8011L25.3423 27.3741C24.9851 27.7909 24.5336 27.9992 23.9879 27.9992C23.7299 27.9992 23.4967 27.9571 23.2884 27.8727C23.085 27.7884 22.9088 27.6668 22.76 27.5081C22.6161 27.3444 22.5045 27.1484 22.4251 26.9202C22.3507 26.687 22.3135 26.4241 22.3135 26.1314ZM26.0321 24.2933H26.9698V27.9248H26.0321V24.2933ZM25.9428 23.2961C25.9428 23.1423 25.9949 23.0108 26.0991 22.9017C26.2083 22.7925 26.3422 22.738 26.501 22.738C26.6498 22.738 26.7788 22.7925 26.8879 22.9017C26.9971 23.0108 27.0516 23.1423 27.0516 23.2961C27.0516 23.4449 26.9971 23.5739 26.8879 23.6831C26.7788 23.7922 26.6498 23.8468 26.501 23.8468C26.3422 23.8468 26.2083 23.7922 26.0991 23.6831C25.9949 23.5739 25.9428 23.4449 25.9428 23.2961ZM29.9951 27.9248V27.6271L29.9802 27.6197C29.8214 27.7685 29.6478 27.8702 29.4593 27.9248C29.2757 27.9794 29.1145 28.0067 28.9755 28.0067C28.8168 28.0067 28.663 27.9843 28.5142 27.9397C28.3653 27.895 28.2339 27.8256 28.1198 27.7313C28.0056 27.6371 27.9139 27.5155 27.8444 27.3667C27.775 27.2129 27.7402 27.0293 27.7402 26.816C27.7402 26.6225 27.7774 26.4514 27.8519 26.3025C27.9263 26.1537 28.028 26.0297 28.157 25.9304C28.2859 25.8312 28.4323 25.7568 28.596 25.7072C28.7647 25.6526 28.9433 25.6253 29.1318 25.6253C29.2807 25.6253 29.422 25.6377 29.556 25.6625C29.6949 25.6824 29.8413 25.727 29.9951 25.7965V25.5509C29.9951 25.1639 29.7718 24.9705 29.3253 24.9705C29.1566 24.9705 28.9929 24.9903 28.8342 25.03C28.6754 25.0697 28.5142 25.1292 28.3504 25.2086L28.09 24.5165C28.2884 24.4173 28.5018 24.3429 28.73 24.2933C28.9582 24.2387 29.1988 24.2114 29.4518 24.2114C29.933 24.2114 30.2977 24.3181 30.5457 24.5314C30.7938 24.7447 30.9178 25.0647 30.9178 25.4914V27.9248H29.9951ZM29.9951 26.4662C29.9008 26.4117 29.7966 26.367 29.6825 26.3323C29.5734 26.2926 29.4444 26.2728 29.2955 26.2728C29.1219 26.2728 28.9755 26.3174 28.8565 26.4067C28.7424 26.491 28.6853 26.6151 28.6853 26.7788C28.6853 26.9375 28.7349 27.0616 28.8342 27.1509C28.9383 27.2352 29.0822 27.2774 29.2658 27.2774C29.3898 27.2774 29.5188 27.2451 29.6527 27.1806C29.7867 27.1161 29.9008 27.0368 29.9951 26.9425V26.4662ZM31.7712 27.9248V23.0133L32.7088 22.6338V27.9248H31.7712ZM35.5574 23.0803H38.9731V23.9286H36.5397V24.9556H38.2438V25.8114H36.5397V27.069H39.055V27.9248H35.5574V23.0803ZM39.5077 26.176C39.5077 25.8436 39.5498 25.5559 39.6342 25.3128C39.7185 25.0647 39.8301 24.8613 39.969 24.7026C40.1079 24.5388 40.2642 24.4173 40.4379 24.3379C40.6165 24.2585 40.7975 24.2189 40.9811 24.2189C41.1696 24.2189 41.3333 24.2511 41.4723 24.3156C41.6112 24.3751 41.7377 24.4595 41.8518 24.5686H41.8815V23.0207L42.8192 22.6412V27.9248H41.8815V27.6123H41.8592C41.7153 27.7512 41.5616 27.8504 41.3978 27.9099C41.2391 27.9695 41.0729 27.9992 40.8992 27.9992C40.7107 27.9992 40.5321 27.967 40.3634 27.9025C40.1997 27.838 40.0534 27.7338 39.9244 27.5899C39.7954 27.4411 39.6937 27.2526 39.6193 27.0244C39.5449 26.7912 39.5077 26.5084 39.5077 26.176ZM40.4676 26.176C40.4676 26.5431 40.5296 26.8086 40.6537 26.9723C40.7777 27.136 40.9489 27.2178 41.1671 27.2178C41.311 27.2178 41.4425 27.1806 41.5616 27.1062C41.6856 27.0268 41.7922 26.9351 41.8815 26.8309V25.3872C41.7972 25.288 41.6955 25.2012 41.5764 25.1267C41.4574 25.0474 41.3259 25.0077 41.182 25.0077C40.9538 25.0077 40.7777 25.1069 40.6537 25.3053C40.5296 25.4988 40.4676 25.789 40.4676 26.176ZM43.757 24.2933H44.6946V27.9248H43.757V24.2933ZM43.6677 23.2961C43.6677 23.1423 43.7198 23.0108 43.8239 22.9017C43.9331 22.7925 44.067 22.738 44.2258 22.738C44.3746 22.738 44.5036 22.7925 44.6128 22.9017C44.7219 23.0108 44.7765 23.1423 44.7765 23.2961C44.7765 23.4449 44.7219 23.5739 44.6128 23.6831C44.5036 23.7922 44.3746 23.8468 44.2258 23.8468C44.067 23.8468 43.9331 23.7922 43.8239 23.6831C43.7198 23.5739 43.6677 23.4449 43.6677 23.2961ZM46.8715 24.2933H47.6306V25.0151H46.8715V26.6969C46.8715 26.8706 46.9013 26.9921 46.9608 27.0616C47.0204 27.1261 47.1295 27.1583 47.2883 27.1583C47.3478 27.1583 47.4123 27.1558 47.4817 27.1509C47.5562 27.1409 47.6405 27.131 47.7348 27.1211L47.8092 27.8504C47.6802 27.8901 47.5363 27.9248 47.3776 27.9546C47.2238 27.9843 47.0774 27.9992 46.9385 27.9992C46.6309 27.9992 46.3878 27.9198 46.2092 27.7611C46.0356 27.6023 45.9488 27.3394 45.9488 26.9723V25.0151H45.4055V24.2933H45.9636V23.4524L46.8715 23.0952V24.2933ZM48.5533 24.2933H49.491V27.9248H48.5533V24.2933ZM48.464 23.2961C48.464 23.1423 48.5161 23.0108 48.6203 22.9017C48.7295 22.7925 48.8634 22.738 49.0222 22.738C49.171 22.738 49.3 22.7925 49.4091 22.9017C49.5183 23.0108 49.5729 23.1423 49.5729 23.2961C49.5729 23.4449 49.5183 23.5739 49.4091 23.6831C49.3 23.7922 49.171 23.8468 49.0222 23.8468C48.8634 23.8468 48.7295 23.7922 48.6203 23.6831C48.5161 23.5739 48.464 23.4449 48.464 23.2961ZM52.0623 28.0067C51.7994 28.0067 51.5613 27.962 51.3479 27.8727C51.1396 27.7834 50.961 27.6569 50.8121 27.4932C50.6633 27.3295 50.5467 27.131 50.4624 26.8979C50.383 26.6647 50.3433 26.4042 50.3433 26.1165C50.3433 25.8188 50.3855 25.5534 50.4698 25.3202C50.5541 25.0821 50.6732 24.8836 50.827 24.7249C50.9808 24.5612 51.1644 24.4371 51.3777 24.3528C51.591 24.2635 51.8242 24.2189 52.0772 24.2189C52.3302 24.2189 52.5634 24.2635 52.7767 24.3528C52.9901 24.4371 53.1711 24.5612 53.32 24.7249C53.4738 24.8886 53.5928 25.087 53.6772 25.3202C53.7615 25.5534 53.8037 25.8139 53.8037 26.1016C53.8037 26.3993 53.759 26.6672 53.6697 26.9053C53.5854 27.1385 53.4663 27.3369 53.3125 27.5006C53.1587 27.6643 52.9752 27.7909 52.7618 27.8802C52.5485 27.9645 52.3153 28.0067 52.0623 28.0067ZM52.0549 25.0002C51.8068 25.0002 51.6183 25.1044 51.4893 25.3128C51.3603 25.5211 51.2958 25.7841 51.2958 26.1016C51.2958 26.4588 51.3628 26.7366 51.4968 26.9351C51.6307 27.1285 51.8242 27.2253 52.0772 27.2253C52.2012 27.2253 52.3104 27.198 52.4046 27.1434C52.5039 27.0839 52.5857 27.0045 52.6502 26.9053C52.7147 26.8011 52.7643 26.682 52.7991 26.5481C52.8338 26.4141 52.8511 26.2703 52.8511 26.1165C52.8511 25.7841 52.7842 25.5162 52.6502 25.3128C52.5163 25.1044 52.3178 25.0002 52.0549 25.0002ZM57.7458 27.9248H56.8007V25.8337C56.8007 25.5757 56.7511 25.3773 56.6519 25.2384C56.5526 25.0995 56.3914 25.03 56.1682 25.03C55.9995 25.03 55.8556 25.0771 55.7365 25.1714C55.6224 25.2656 55.5455 25.3922 55.5058 25.5509C55.4959 25.5956 55.486 25.6477 55.4761 25.7072C55.4662 25.7618 55.4612 25.8188 55.4612 25.8783V27.9248H54.5235V24.2933H55.4612V24.6802H55.491C55.6199 24.5314 55.7737 24.4173 55.9523 24.3379C56.1359 24.2585 56.312 24.2189 56.4807 24.2189C56.9272 24.2189 57.2497 24.3503 57.4481 24.6133C57.6466 24.8712 57.7458 25.221 57.7458 25.6625V27.9248Z" fill="white"/>
</g>
</g>
<defs>
<linearGradient id="paint0_linear" x1="0" y1="0" x2="102.358" y2="39.3686" gradientUnits="userSpaceOnUse">
<stop stop-color="#B24592"/>
<stop offset="1" stop-color="#F15F79"/>
</linearGradient>
<linearGradient id="paint1_linear" x1="47" y1="0" x2="47" y2="122.2" gradientUnits="userSpaceOnUse">
<stop stop-color="#33D9D1"/>
<stop offset="1" stop-color="#8DEBC8"/>
</linearGradient>
<clipPath id="clip0">
<rect width="94" height="122.2" fill="white"/>
</clipPath>
<clipPath id="clip1">
<rect width="94" height="122.2" fill="white"/>
</clipPath>
</defs>
</svg>
