<svg fill="none" height="40" viewBox="0 0 136 40" width="136" xmlns="http://www.w3.org/2000/svg" xmlns:xlink="http://www.w3.org/1999/xlink"><linearGradient id="a" gradientUnits="userSpaceOnUse" x1="21.7615" x2="3.58427" y1="-4.76247" y2=".349261"><stop offset="0" stop-color="#00a0ff"/><stop offset=".00657445" stop-color="#00a1ff"/><stop offset=".2601" stop-color="#00beff"/><stop offset=".5122" stop-color="#00d2ff"/><stop offset=".7604" stop-color="#00dfff"/><stop offset="1" stop-color="#00e3ff"/></linearGradient><linearGradient id="b" gradientUnits="userSpaceOnUse" x1="36.8477" x2="14.5866" y1="10.5391" y2="10.5391"><stop offset="0" stop-color="#ffe000"/><stop offset=".4087" stop-color="#ffbd00"/><stop offset=".7754" stop-color="#ffa500"/><stop offset="1" stop-color="#ff9c00"/></linearGradient><linearGradient id="c" gradientUnits="userSpaceOnUse" x1="14.9962" x2="1.14249" y1="13.7624" y2="37.9518"><stop offset="0" stop-color="#ff3a44"/><stop offset="1" stop-color="#c31162"/></linearGradient><linearGradient id="d" gradientUnits="userSpaceOnUse" x1="6.34817" x2="12.484" y1="5.41641" y2="16.2299"><stop offset="0" stop-color="#32a071"/><stop offset=".0685" stop-color="#2da771"/><stop offset=".4762" stop-color="#15cf74"/><stop offset=".8009" stop-color="#06e775"/><stop offset="1" stop-color="#00f076"/></linearGradient><rect fill="#000" height="40" rx="4" width="136"/><path clip-rule="evenodd" d="m47.6 24v1.8h4.3c-.1 1-.5 1.8-1 2.3-.6.6-1.6 1.3-3.3 1.3-2.7 0-4.7-2.1-4.7-4.8s2.1-4.8 4.7-4.8c1.4 0 2.5.6 3.3 1.3l1.3-1.3c-1.1-1-2.5-1.8-4.5-1.8-3.6 0-6.7 3-6.7 6.6s3.1 6.6 6.7 6.6c2 0 3.4-.6 4.6-1.9 1.2-1.2 1.6-2.9 1.6-4.2 0-.4 0-.8-.1-1.1zm11.1-1.2998c-2.4 0-4.3 1.8-4.3 4.3 0 2.4 1.9 4.3 4.3 4.3s4.3-1.8 4.3-4.3c0-2.6-1.9-4.3-4.3-4.3zm5 4.3c0-2.5 1.9-4.3 4.3-4.3s4.3 1.7 4.3 4.3c0 2.5-1.9 4.3-4.3 4.3s-4.3-1.9-4.3-4.3zm1.9-.1004c0 1.5 1.1 2.6 2.4 2.6s2.4-1.1 2.4-2.6c0-1.6-1.1-2.6-2.4-2.6s-2.4 1.1-2.4 2.6zm-9.3 0c0 1.5 1.1 2.6 2.4 2.6s2.4-1.1 2.4-2.6c0-1.6-1.1-2.6-2.4-2.6s-2.4 1.1-2.4 2.6zm33.1-4.1996c2.2 0 3.2 1.7 3.6 2.7l.2.5-5.7 2.4c.5.9 1.1 1.3 2.1 1.3s1.6-.5 2.1-1.2l1.4 1c-.4.7-1.6 1.9-3.5 1.9-2.4 0-4.2-1.9-4.2-4.3 0-2.6 1.8-4.3 4-4.3zm-2.2 4.0996c0-1.6 1.3-2.5 2.2-2.5.7 0 1.4.4 1.6.9zm-2.8 4.1001h-1.9v-12.5h1.9zm-4.9-7.2998c-.5-.5-1.3-1-2.3-1-2.1 0-4.1 1.9-4.1 4.3s1.9 4.2 4.1 4.2c1 0 1.8-.5 2.2-1h.1v.6c0 1.6-.9 2.5-2.3 2.5-1.1 0-1.9-.8-2.1-1.5l-1.6.7c.5 1.1 1.7 2.5 3.8 2.5 2.2 0 4-1.3 4-4.4v-7.6h-1.8zm-4.6 3.2997c0 1.5 1.1 2.6 2.4 2.6s2.3-1.1 2.3-2.6-1-2.6-2.3-2.6-2.4 1.1-2.4 2.6zm26.8-8.4999h-4.5v12.5h1.9v-4.7h2.6c2.1 0 4.1-1.5 4.1-3.9s-2-3.9-4.1-3.9zm-2.6 6.0002h2.7c1.3 0 2.1-1.1 2.2-2.2 0-.9-.8-2.1-2.2-2.1h-2.7zm14.2-1.8c-1.4 0-2.8.6-3.3 1.9l1.7.7c.4-.7 1-.9 1.7-.9 1 0 1.9.6 2 1.6v.1c-.3-.2-1.1-.5-1.9-.5-1.8 0-3.6 1-3.6 2.8 0 1.7 1.5 2.8 3.1 2.8 1.3 0 1.9-.6 2.4-1.2h.1v1h1.8v-4.8c-.2-2.2-1.9-3.5-4-3.5zm-1.7 5.8c0 .8.9 1.1 1.5 1.1 1 0 2-.8 2.2-2-.05-.0201-.1-.0403-.149-.0602v-.0002c-.436-.178-.832-.3396-1.551-.3396-.9 0-2 .3-2 1.3zm12-5.5002-2.1 5.4h-.1l-2.2-5.4h-2l3.3 7.6-1.9 4.2h1.9l5.1-11.8zm-14.9 8h-1.9v-12.5h1.9z" fill="#fff" fill-rule="evenodd"/><path clip-rule="evenodd" d="m15.2881 8.44238c-.276.26539-.46.7077-.46 1.23846v19.54996c0 .5308.184.9731.46 1.2385l.092.0885 11.408-10.9693v-.0884-.0885z" fill="url(#a)" fill-rule="evenodd"/><path clip-rule="evenodd" d="m30.5601 23.3044-3.772-3.6269v-.177-.0884l3.772-3.6269.092.0884 4.508 2.4769c1.288.7077 1.288 1.8577 0 2.5654z" fill="url(#b)" fill-rule="evenodd"/><path clip-rule="evenodd" d="m30.6521 23.2154-3.864-3.7154-11.5 11.0577c.46.4423 1.104.4423 1.932.0885z" fill="url(#c)" fill-rule="evenodd"/><path clip-rule="evenodd" d="m30.6521 15.7845-13.432-7.34234c-.828-.4423-1.472-.35384-1.932.08846l11.5 10.96928z" fill="url(#d)" fill-rule="evenodd"/><path clip-rule="evenodd" d="m30.5601 23.127-13.34 7.2538c-.736.4423-1.38.3538-1.84 0l-.092.0885.092.0884c.46.3539 1.104.4423 1.84 0z" fill="#000" fill-rule="evenodd" opacity=".2"/><path clip-rule="evenodd" d="m15.2884 30.381c-.276-.2653-.368-.7077-.368-1.2384v.0884c0 .5308.184.9731.46 1.2385v-.0885z" fill="#000" fill-rule="evenodd" opacity=".12"/><path clip-rule="evenodd" d="m35.1605 20.65-4.6 2.4769.092.0885 4.508-2.4769c.644-.3539.92-.7962.92-1.2385 0 .4423-.368.7962-.92 1.15z" fill="#000" fill-rule="evenodd" opacity=".12"/><g fill="#fff"><path clip-rule="evenodd" d="m17.2209 8.53094 17.94 9.81926c.552.3538.92.7077.92 1.15 0-.4423-.276-.8846-.92-1.2385l-17.94-9.81922c-1.288-.70769-2.3-.08846-2.3 1.32693v.08846c0-1.41539 1.012-2.03462 2.3-1.32693z" fill-rule="evenodd" opacity=".25"/><path clip-rule="evenodd" d="m41.4004 15.3h.7.1v-1.3h4.6v1.3h.7v-2h-.7v-5.3h-4v3c0 1.1-.3 1.9-.8 2.3h-.6zm1.5-2.0002c.4-.6.6-1.4.6-2.3h-.1v-2.2h2.5v4.5z" fill-rule="evenodd"/><path d="m41.4004 15.3h-.3125v.3125h.3125zm.8 0v.3125h.3125v-.3125zm0-1.3v-.3125h-.3125v.3125zm4.6 0h.3125v-.3125h-.3125zm0 1.3h-.3125v.3125h.3125zm.7 0v.3125h.3125v-.3125zm0-2h.3125v-.3125h-.3125zm-.7 0h-.3125v.3125h.3125zm0-5.3h.3125v-.3125h-.3125zm-4 0v-.3125h-.3125v.3125zm-.8 5.3v.3125h.1096l.0856-.0685zm-.6 0v-.3125h-.3125v.3125zm2.1-2.3002h.3125v-.3125h-.3125zm-.6 2.3-.26-.1733-.3239.4858h.5839zm.5-2.3h-.3125v.3125h.3125zm0-2.2v-.3125h-.3125v.3125zm2.5 0h.3125v-.3125h-.3125zm0 4.5v.3125h.3125v-.3125zm-3.8 1.6877h-.7v.625h.7zm.1 0h-.1v.625h.1zm-.3125-.9875v1.3h.625v-1.3zm4.9125-.3125h-4.6v.625h4.6zm.3125 1.6125v-1.3h-.625v1.3zm.3875-.3125h-.7v.625h.7zm-.3125-1.6875v2h.625v-2zm-.3875.3125h.7v-.625h-.7zm-.3125-5.6125v5.3h.625v-5.3zm-3.6875.3125h4v-.625h-4zm.3125 2.6875v-3h-.625v3zm-.9173 2.544c.6084-.4867.9173-1.404.9173-2.544h-.625c0 1.06-.2911 1.7427-.6827 2.056zm-.7952.0685h.6v-.625h-.6zm.3125 1.6875v-2h-.625v2zm1.475-4.3002c0 .8576-.1911 1.592-.5475 2.1267l.52.3466c.4435-.6653.6525-1.5309.6525-2.4733zm.2125.3125h.1v-.625h-.1zm-.3125-2.5125v2.2h.625v-2.2zm2.8125-.3125h-2.5v.625h2.5zm.3125 4.8125v-4.5h-.625v4.5zm-3.3125.3125h3v-.625h-3z"/><path clip-rule="evenodd" d="m51.2006 14.1004c.9 0 1.6-.3 2.2-.9s.9-1.3.9-2.2-.3-1.60001-.9-2.20001-1.3-.9-2.2-.9-1.6.3-2.2.9-.9 1.30001-.9 2.20001.3 1.6.9 2.2 1.3.9 2.2.9zm0-.6998c-.6 0-1.2-.3-1.6-.7-.5-.4-.7-1-.7-1.7s.3-1.30001.7-1.70001c.4-.5 1-.7 1.6-.7s1.2.3 1.6.7c.5.4.7 1.00001.7 1.70001s-.3 1.3-.7 1.7c-.4.5-1 .7-1.6.7z" fill-rule="evenodd"/><path d="m49.6006 12.7006.2209-.221-.0122-.0122-.0135-.0108zm0-3.40001.2209.22097.0123-.01224.0108-.01352zm3.2 0-.221.22097.0122.01224.0136.01081zm0 3.40001-.221-.221-.0122.0123-.0108.0135zm.379.2788c-.5413.5413-1.1617.8085-1.979.8085v.625c.9827 0 1.7622-.3328 2.421-.9915zm.8085-1.979c0 .8173-.2672 1.4377-.8085 1.979l.442.442c.6587-.6588.9915-1.4383.9915-2.421zm-.8085-1.97904c.5413.54128.8085 1.16174.8085 1.97904h.625c0-.9827-.3328-1.76226-.9915-2.42098zm-1.979-.80847c.8173 0 1.4377.26719 1.979.80847l.442-.44194c-.6588-.65872-1.4383-.99153-2.421-.99153zm-1.979.80847c.5412-.54128 1.1617-.80847 1.979-.80847v-.625c-.9827 0-1.7623.33281-2.421.99153zm-.8085 1.97904c0-.8173.2672-1.43776.8085-1.97904l-.442-.44194c-.6587.65872-.9915 1.43828-.9915 2.42098zm.8085 1.979c-.5413-.5413-.8085-1.1617-.8085-1.979h-.625c0 .9827.3328 1.7622.9915 2.421zm1.979.8085c-.8173 0-1.4378-.2672-1.979-.8085l-.442.442c.6587.6587 1.4383.9915 2.421.9915zm-1.821-.8663c.4473.4473 1.1234.7915 1.821.7915v-.625c-.5025 0-1.0264-.2558-1.3791-.6085zm-.7915-1.921c0 .7576.2182 1.4647.8173 1.944l.3904-.488c-.4009-.3208-.5827-.8136-.5827-1.456zm.7915-1.92098c-.4529.45293-.7915 1.13038-.7915 1.92098h.625c0-.6094.2614-1.13197.6084-1.47904zm1.821-.79153c-.6657 0-1.3686.22295-1.844.81728l.488.39043c.3245-.40566.8216-.58271 1.356-.58271zm1.8209.79153c-.4473-.44735-1.1234-.79153-1.8209-.79153v.625c.5024 0 1.0263.25581 1.379.60847zm.7916 1.92098c0-.7576-.2182-1.46477-.8173-1.94404l-.3904.48805c.4009.32073.5827.81359.5827 1.45599zm-.7916 1.921c.453-.453.7916-1.1304.7916-1.921h-.625c0 .6094-.2614 1.1319-.6085 1.479zm-1.8209.7915c.6656 0 1.3685-.223 1.844-.8173l-.488-.3904c-.3246.4056-.8217.5827-1.356.5827z"/><path clip-rule="evenodd" d="m58.2006 14.1004c-.9 0-1.6-.3-2.2-.9s-.9-1.3-.9-2.2.3-1.60001.9-2.20001 1.3-.9 2.2-.9 1.6.3 2.2 1l-.5.5c-.4-.5-1-.8-1.7-.8s-1.2.2-1.7.7c-.5.4-.7 1.00001-.7 1.70001s.2 1.3.7 1.7c.4.4 1 .7 1.7.7s1.3-.3 1.8-.9l.5.5c-.3.3-.6.6-1 .8s-.8.3-1.3.3z" fill-rule="evenodd" stroke="#fff" stroke-width=".625"/><path clip-rule="evenodd" d="m63.7002 14h-.8v-5.3h-1.7v-.7h4.1v.7h-1.7v5.3z" fill-rule="evenodd" stroke="#fff" stroke-width=".625"/><path clip-rule="evenodd" d="m70.6008 8-2.3 5.1c-.3.7-.8 1.1-1.4 1.1-.2 0-.4 0-.6-.1l.2-.7c.1.1.3.1.4.1.2 0 .3 0 .4-.1s.2-.2.3-.4l.2-.5-2-4.4h.9l1.5 3.4 1.4-3.4h1z" fill-rule="evenodd" stroke="#fff" stroke-width=".625"/><path clip-rule="evenodd" d="m71.5 14v-6h4.3v6h-.8v-5.3h-2.8v5.3z" fill-rule="evenodd" stroke="#fff" stroke-width=".625"/><path clip-rule="evenodd" d="m77.2002 14v-6h.8v2.6h3v-2.6h.8v6h-.8v-2.7h-3v2.7z" fill-rule="evenodd" stroke="#fff" stroke-width=".625"/><path clip-rule="evenodd" d="m85.9008 14.1004c.9 0 1.6-.3 2.2-.9.5-.6.8-1.3.9-2.2 0-.9-.3-1.60001-.9-2.20001s-1.3-.9-2.2-.9-1.6.3-2.2.9-.9 1.30001-.9 2.20001.3 1.6.9 2.2 1.3.9 2.2.9zm-.1-.6998c-.6 0-1.2-.3-1.6-.7s-.7-1-.7-1.7.3-1.30001.7-1.70001c.4-.5 1-.7 1.6-.7s1.2.3 1.6.7c.5.4.7 1.00001.7 1.70001s-.3 1.3-.7 1.7c-.4.5-1 .7-1.6.7z" fill-rule="evenodd"/><path d="m88.1008 13.2004.221.221.01-.0101.0091-.0109zm.9-2.2.3106.0345.0019-.0172v-.0173zm-4.8 1.7002.2209-.221zm0-3.40001.2209.22097.0123-.01224.0108-.01352zm3.2 0-.221.22097.0122.01224.0136.01081zm0 3.40001-.221-.221-.0122.0123-.0108.0135zm.479.2788c-.5413.5413-1.1617.8085-1.979.8085v.625c.9827 0 1.7622-.3328 2.421-.9915zm.8104-2.0135c-.0937.8436-.3716 1.4849-.8295 2.0344l.4802.4001c.542-.6504.8642-1.4092.9705-2.3655zm-.8104-1.94454c.5413.54128.8085 1.16174.8085 1.97904h.625c0-.9827-.3328-1.76226-.9915-2.42098zm-1.979-.80847c.8173 0 1.4377.26719 1.979.80847l.442-.44194c-.6588-.65872-1.4383-.99153-2.421-.99153zm-1.979.80847c.5412-.54128 1.1617-.80847 1.979-.80847v-.625c-.9827 0-1.7623.33281-2.421.99153zm-.8085 1.97904c0-.8173.2672-1.43776.8085-1.97904l-.442-.44194c-.6587.65872-.9915 1.43828-.9915 2.42098zm.8085 1.979c-.5413-.5413-.8085-1.1617-.8085-1.979h-.625c0 .9827.3328 1.7622.9915 2.421zm1.979.8085c-.8173 0-1.4378-.2672-1.979-.8085l-.442.442c.6587.6587 1.4383.9915 2.421.9915zm-1.921-.8663c.4474.4473 1.1234.7915 1.821.7915v-.625c-.5025 0-1.0264-.2558-1.3791-.6085zm-.7915-1.921c0 .7906.3386 1.468.7915 1.921l.4419-.442c-.347-.3471-.6084-.8696-.6084-1.479zm.7915-1.92098c-.4529.45293-.7915 1.13038-.7915 1.92098h.625c0-.6094.2614-1.13197.6084-1.47904zm1.821-.79153c-.6657 0-1.3686.22295-1.844.81728l.488.39043c.3245-.40566.8216-.58271 1.356-.58271zm1.8209.79153c-.4473-.44735-1.1234-.79153-1.8209-.79153v.625c.5024 0 1.0264.25581 1.379.60847zm.7916 1.92098c0-.7576-.2182-1.46477-.8173-1.94404l-.3904.48805c.4009.32073.5827.81359.5827 1.45599zm-.7916 1.921c.453-.453.7916-1.1304.7916-1.921h-.625c0 .6094-.2614 1.1319-.6085 1.479zm-1.8209.7915c.6656 0 1.3685-.223 1.844-.8173l-.488-.3904c-.3246.4056-.8217.5827-1.356.5827z"/><path clip-rule="evenodd" d="m92.1006 14v-6h2.2c.5 0 .9.2 1.2.5s.5.7.5 1.2c0 .23739-.0626.4122-.1383.6234-.02.0557-.0408.114-.0617.1766-.1.2-.3.4-.6.5.3.1.5.3.7.5s.3.5.3.9c0 .5-.2.9-.5 1.2-.4.3-.8.5-1.3.5h-2.3zm.8-3.4002h1.4c.3 0 .5-.1.7-.3s.3-.4.3-.6-.1-.4-.3-.6-.4-.3-.7-.3h-1.4zm1.6 2.7h-1.5v-2h1.5c.3 0 .5.1.7.3s.3.5.3.7c0 .3-.1.5-.3.7s-.4.3-.7.3z" fill-rule="evenodd"/><path d="m92.1006 8v-.3125h-.3125v.3125zm3.7617 2.3234-.2942-.1054-.0011.0032zm0 0 .2942.1054.0011-.0032zm-.0617.1766.2795.1398.0099-.0199.007-.0211zm-.6.5-.0988-.2965-.8894.2965.8894.2965zm.5 2.6.1875.25.0178-.0133.0157-.0157zm-3.6.5h-.3125v.3125h.3125zm.8-3.5002h-.3125v.3125h.3125zm2.1-1.5.2209-.22097zm-2.1-.3v-.3125h-.3125v.3125zm.1 4.5h-.3125v.3125h.3125zm0-2v-.3125h-.3125v.3125zm2.2 1.7-.221-.221zm-3.4125-4.9998v6h.625v-6zm2.5125-.3125h-2.2v.625h2.2zm1.421.59153c-.3522-.35217-.8295-.59153-1.421-.59153v.625c.4084 0 .7312.16064.979.40847zm.5915 1.42097c0-.59156-.2394-1.0688-.5915-1.42097l-.442.44194c.2478.24783.4085.57059.4085.97903zm-.1566.7288c.0749-.209.1566-.43075.1566-.7288h-.625c0 .17672-.0435.3045-.12.518zm.0011-.0032-.5906-.2044zm-.0606.1732c.0197-.0588.0394-.1139.0595-.17l-.5884-.2108c-.0198.0554-.0418.1168-.064.1832zm-.7976.6977c.3805-.1269.6445-.3844.7807-.6567l-.559-.2796c-.0638.1277-.1998.2702-.4193.3433zm.8222-.0175c-.1945-.1944-.4425-.4489-.8222-.5755l-.1976.593c.2203.0734.3723.2189.5778.4245zm.3915 1.121c0-.4482-.1123-.8417-.3915-1.121l-.442.442c.1207.1207.2085.3272.2085.679zm-.5915 1.421c.3521-.3522.5915-.8294.5915-1.421h-.625c0 .4084-.1607.7312-.4085.979zm-1.521.5915c.5947 0 1.0601-.2419 1.4875-.5625l-.375-.5c-.3726.2794-.7072.4375-1.1125.4375zm-2.3 0h2.3v-.625h-2.3zm-.3125-.4125v.1h.625v-.1zm2.5125-3.7127h-1.4v.625h1.4zm.479-.2085c-.0815.0816-.1507.1303-.2184.1604-.0664.0296-.1471.0481-.2606.0481v.625c.1864 0 .3558-.0314.5144-.1019.1572-.0699.2881-.1712.4065-.2896zm.2085-.379c0 .08789-.0426.2131-.2085.379l.4419.442c.2341-.2341.3916-.5089.3916-.821zm-.2085-.37902c.1659.16593.2085.29114.2085.37902h.625c0-.31211-.1575-.5869-.3916-.82097zm-.479-.20848c.1135 0 .1942.01856.2606.04807.0677.03012.1369.07885.2184.16041l.4419-.44195c-.1184-.11844-.2493-.21971-.4065-.28959-.1586-.07049-.328-.10194-.5144-.10194zm-1.4 0h1.4v-.625h-1.4zm.3125 1.4875v-1.8h-.625v1.8zm-.2125 3.0125h1.5v-.625h-1.5zm-.3125-2.3125v2h.625v-2zm1.8125-.3125h-1.5v.625h1.5zm.9209.3915c-.1184-.1184-.2493-.2197-.4065-.2896-.1586-.0704-.328-.1019-.5144-.1019v.625c.1135 0 .1942.0186.2606.0481.0677.0301.1369.0788.2184.1604zm.3916.921c0-.2773-.1291-.6585-.3916-.921l-.4419.442c.1376.1375.2085.3563.2085.479zm-.3916.921c.1185-.1185.2198-.2493.2896-.4066.0705-.1586.102-.3279.102-.5144h-.625c0 .1135-.0186.1942-.0481.2606-.0301.0677-.0788.1369-.1604.2184zm-.9209.3915c.1864 0 .3558-.0314.5144-.1019.1572-.0699.2881-.1712.4065-.2896l-.4419-.442c-.0815.0816-.1507.1303-.2184.1604-.0664.0296-.1471.0481-.2606.0481z"/></g></svg>