<svg fill="none" height="67" viewBox="0 0 70 67" width="70" xmlns="http://www.w3.org/2000/svg"><path d="m33.3333 0c-18.38 0-33.3333 14.9533-33.3333 33.3333s14.9533 33.3334 33.3333 33.3334 33.3334-14.9534 33.3334-33.3334c0-3.7533-.6534-7.3526-1.8034-10.7226l-5.3971 5.3971c.35 1.72.5338 3.5022.5338 5.3255 0 14.7034-11.9633 26.6667-26.6667 26.6667-14.7033 0-26.66663-11.9633-26.66663-26.6667 0-14.7033 11.96333-26.66663 26.66663-26.66663 5.4434 0 10.5064 1.6463 14.7331 4.45963l4.7721-4.77213c-5.4933-3.98-12.2218-6.35417-19.5052-6.35417zm30.9766 4.3099-34.3099 34.3099-10.9766-10.9766-4.7135 4.7136 15.6901 15.6901 39.0234-39.02346z" fill="#2462f2"/></svg>