<svg fill="none" height="128" viewBox="0 0 128 128" width="128" xmlns="http://www.w3.org/2000/svg"><path d="m64 12c-28.6 0-51.8 23.3-51.8 52s23.2 52 51.8 52 51.8-23.3 51.8-52-23.2-52-51.8-52zm0 81c-16 0-28.9001-13-28.9001-29s12.9001-29 28.9001-29 28.9 13 28.9 29-12.9 29-28.9 29z" fill="#f7f7fb"/><path d="m115.8 64h-22.9c0 5-1.2 10-3.9 14.6-2.6 4.5-6.2 8-10.4 10.5l11.4 19.8c15.5-9 25.8-25.7 25.8-44.9z" fill="#f37778"/><path d="m90 108.9-3.832-6.656c-7.741 7.151-17.66 11.975-28.646 13.353 0 0 17.456 2.292 32.478-6.697z" fill="#c8c9cd"/><path d="m38.2 18.9 11.5 20c4.2-2.4 9.0999-3.8 14.3-3.8 5.2999 0 10.2999 1.5 14.5999 4l11.5-20c-7.7-4.5-16.5999-7.1-26.0999-7.1-9.4 0-18.2 2.5-25.8 6.9z" fill="#f37778"/><path d="m90.1001 19.1001-3.863 6.719c10.248 9.503 16.6629 23.097 16.6629 38.181h12.9c0-30.5-25.6999-44.9-25.6999-44.9z" fill="#c8c9cd"/><path d="m115.8 64h-12.9c0 15.118-6.444 28.738-16.733 38.244l3.833 6.656c6.215-3.608 11.594-8.456 15.808-14.205 6.258-8.572 9.963-19.14 9.992-30.567 0-.002 0-.004 0-.006 0-.005 0-.011 0-.016 0-.004 0-.008 0-.012 0-.005 0-.011 0-.017s0-.012 0-.018c0-.002 0-.008 0-.009 0-.006 0-.012 0-.017 0-.002 0-.006 0-.008 0-.008 0-.017 0-.025z" fill="#c56264"/><path d="m35.2 63.7998h-22.8c0 8.9 2.2 17.9 6.9 26.2 4.7 8.1 11.3 14.5002 18.8 18.9002l11.5-19.9002c-9.3-5.3-14.5-15.1-14.4-25.2z" fill="#f37778"/><path d="m64 12c-2.152 0-4.303.191-6.361.387-.041.005-.082.01-.123.015 11.022 1.381 20.967 6.228 28.72 13.417l3.864-6.719c-7.684-4.491-16.564-7.09-26.042-7.1-.002 0-.003 0-.005 0-.007 0-.013 0-.02 0-.002 0-.005 0-.007 0-.009 0-.018 0-.026 0z" fill="#c56264"/><path d="m64 119c-30.2001 0-54.80005-24.7-54.80005-55s24.59995-55 54.80005-55c30.2 0 54.8 24.7 54.8 55s-24.6 55-54.8 55zm0-104c-26.9 0-48.8 22-48.8 49s21.9 49 48.8 49c26.8999 0 48.8-22 48.8-49s-21.9001-49-48.8-49zm0 80.9c-17.6001 0-31.8-14.3-31.8-31.9s14.1999-31.9 31.8-31.9c17.6 0 31.8 14.3 31.8 31.9s-14.2 31.9-31.8 31.9zm0-57.8c-14.3 0-25.8 11.6-25.8 25.9s11.5 25.9 25.8 25.9c14.2999 0 25.8-11.6 25.8-25.9s-11.5001-25.9-25.8-25.9z" fill="#454b54"/></svg>