<svg fill="none" height="96" viewBox="0 0 96 96" width="96" xmlns="http://www.w3.org/2000/svg"><path d="m84.8963 53.7648c.288-.5914.5433-1.2135.7641-1.8653 2.5277-7.4592-1.295-16.3949-9.3436-18.552-.8698-10.9287-8.5498-18.4253-17.2234-19.705-9.9273-1.464-19.0214 4.8423-22.0473 14.8656-3.6471-1.2921-7.201-1.1347-10.5504.8227-1.5197.7028-2.9098 1.7396-4.1568 3.1037-1.8308 2.0026-3.0212 4.5303-3.506 7.1952-.718.1133-1.4236.2266-2.0889.4647-3.8784 1.391-6.3255 4.2537-6.99651 8.566-.4176 2.6852.42531 5.3636.89571 6.4455 1.8576 4.2768 6.1651 6.7008 10.5417 6.0595.218-.0317.5348.0662.722.2237.2313 6.8352 3.55 12.8803 8.5286 16.3334 7.9882 5.5411 18.2659 3.8343 24.7498-3.7641 2.7782 2.8416 6.0844 4.222 9.9686 3.7209 3.8621-.4982 6.8611-2.6294 9.049-6.095 1.0108.2717 1.9689.6633 2.9596.7718 3.8803.4243 7.0311-1.1184 9.3427-4.608.8852-1.3353 1.7213-3.0662 1.7213-6.0998.001-3.1248-1.2403-5.9731-3.3302-7.8835z" fill="#c7ede6"/><path d="m69.3186 47.9217h11.2915c2.592 0 4.6925-2.1014 4.6925-4.6934 0-2.2608-1.5993-4.1482-3.7286-4.5926.0249-.1978.0413-.3984.0413-.6029 0-2.6842-2.1764-4.8605-4.8605-4.8605-1.585 0-2.9885.7622-3.8755 1.9363-.2266-2.9885-2.8964-5.2934-6.0192-4.9113-2.2839.2793-4.1722 2.0448-4.5927 4.3065-.1344.7258-.1209 1.4295.0135 2.0899-.6106-.6595-1.4823-1.0742-2.4528-1.0742-1.776 0-3.2266 1.3834-3.3408 3.1306-.8064-.1786-1.6839-.1671-2.6084.1804-1.7664.6634-3.024 2.3261-3.0979 4.2116-.1046 2.6774 2.0352 4.8816 4.6896 4.8816h1.0733 9.745" fill="#fdfcef"/><path d="m80.6101 48.4019h-11.2906c-.2649 0-.48-.215-.48-.48 0-.2649.2151-.48.48-.48h11.2916c2.3232 0 4.2134-1.8902 4.2134-4.2134 0-1.9834-1.4073-3.7181-3.3465-4.1232-.2439-.0509-.409-.2803-.3783-.528.0211-.1795.0374-.36.0374-.5443 0-2.4154-1.9651-4.3805-4.3804-4.3805-1.3805 0-2.6544.6365-3.4935 1.7453-.119.1593-.3293.2275-.5174.1708-.192-.0566-.3283-.2246-.3437-.4233-.0998-1.3219-.7469-2.5642-1.776-3.4071-1.0387-.8515-2.353-1.2297-3.7056-1.0646-2.0784.2544-3.7968 1.8653-4.1789 3.9178-.119.6403-.1152 1.2816.0125 1.9065.0423.2112-.0595.4243-.2515.5223-.1891.0979-.4234.0585-.5712-.0999-.5511-.5942-1.2989-.9206-2.1024-.9206-1.5053 0-2.7629 1.1789-2.8618 2.6822-.0096.1402-.0787.2688-.191.3523-.1114.0836-.2563.1143-.3917.0845-.8093-.1805-1.5715-.1257-2.3347.1603-1.6023.601-2.7226 2.1197-2.7869 3.7805-.0451 1.1587.3715 2.256 1.1731 3.0893.8016.8342 1.8807 1.2931 3.0365 1.2931h10.8154c.2649 0 .48.2151.48.48 0 .265-.2151.48-.48.48h-10.8173c-1.4199 0-2.7437-.5635-3.7287-1.5869-.9849-1.0233-1.4966-2.3702-1.4409-3.7929.0806-2.0419 1.4505-3.9072 3.4099-4.6416.769-.288 1.5619-.384 2.3683-.2871.3629-1.75 1.9181-3.0547 3.7488-3.0547.6576 0 1.2999.1719 1.8663.4896-.001-.3705.0336-.7421.1027-1.1126.4569-2.4595 2.5142-4.3911 5.0054-4.6954 1.6176-.1997 3.1872.2554 4.4304 1.2749.9639.7901 1.6483 1.873 1.9565 3.0662.9725-.8793 2.2263-1.3689 3.5655-1.3689 2.9443 0 5.3404 2.3961 5.3404 5.3405 0 .0796-.0019.1603-.0067.239 2.1639.6461 3.6941 2.6659 3.6941 4.9574.001 2.8522-2.3194 5.1725-5.1725 5.1725z" fill="#472b29"/><path d="m66.5987 37.5847c-1.7357-.1143-3.2304 1.0848-3.3369 2.6774-.0135.1978-.0048.3927.024.5818-.3351-.3783-.8304-.6346-1.3997-.672-1.0416-.0682-1.9411.6192-2.0717 1.5552-.1891-.0519-.3869-.0864-.5913-.0999-1.5188-.0998-2.8263.9495-2.9204 2.3434" fill="#fdfcef"/><path d="m56.3032 44.2096c-.0058 0-.0106 0-.0164 0-.1324-.0087-.2323-.1229-.2227-.2554.1018-1.5235 1.5168-2.6803 3.1757-2.5661.1315.0087.2611.025.3926.0509.2631-.9283 1.2029-1.5734 2.2704-1.5053.408.0269.7901.1546 1.1165.3668.001-.0173.0019-.0356.0039-.0528.1152-1.7223 1.7299-3.0125 3.5923-2.9012.1324.0087.2323.1229.2227.2554-.0077.1315-.0998.2448-.2554.2237-1.5984-.097-2.9836.9965-3.0825 2.4547-.0115.1786-.0039.3571.022.529.0164.1056-.0383.2083-.1353.2544-.0979.0432-.2122.0211-.2822-.0586-.3044-.3446-.7556-.5606-1.2356-.5923-.9091-.0557-1.704.5337-1.8172 1.3488-.0106.0681-.049.1286-.1056.167-.0567.0384-.1268.0509-.1949.0317-.1853-.0499-.3639-.0797-.5443-.0922-1.3968-.1017-2.5805.8592-2.666 2.1197-.0076.1248-.1123.2218-.238.2218z" fill="#472b29"/><path d="m82.5109 39.1859c-1.631-.769-3.5175-.2247-4.2135 1.2163-.0864.1785-.1507.3638-.1929.551" fill="#fdfcef"/><path d="m78.1046 41.1931c-.0173 0-.0345-.0019-.0528-.0058-.1296-.0297-.2112-.1584-.1814-.287.047-.2083.1181-.4118.2121-.6029.7517-1.5561 2.7831-2.1523 4.5312-1.3277.12.0567.1719.1997.1152.3197-.0576.121-.2025.1699-.3196.1152-1.513-.7123-3.2573-.2179-3.8948 1.1031-.0777.1593-.1372.3264-.1756.4992-.025.1104-.1248.1862-.2343.1862z" fill="#472b29"/><path d="m17.3735 46.1197h-9.62885c-.26496 0-.48-.2151-.48-.48 0-.265.21504-.48.48-.48h9.62885c.2649 0 .48.215.48.48 0 .2649-.2141.48-.48.48z" fill="#fff"/><path d="m20.1406 46.1197h-1.3881c-.265 0-.48-.2151-.48-.48 0-.265.215-.48.48-.48h1.3881c.265 0 .48.215.48.48 0 .2649-.215.48-.48.48z" fill="#fff"/><path d="m24.0316 46.1197h-2.4432c-.265 0-.48-.2151-.48-.48 0-.265.215-.48.48-.48h2.4432c.265 0 .48.215.48.48 0 .2649-.215.48-.48.48z" fill="#fff"/><path d="m24.0326 47.9097h-9.2313c-.265 0-.48-.215-.48-.48s.215-.48.48-.48h9.2313c.265 0 .48.215.48.48s-.215.48-.48.48z" fill="#fff"/><path d="m13.1384 47.9097h-.5568c-.265 0-.48-.215-.48-.48s.215-.48.48-.48h.5568c.2649 0 .48.215.48.48s-.2151.48-.48.48z" fill="#fff"/><path d="m10.8563 47.9097h-1.39778c-.26496 0-.48-.215-.48-.48s.21504-.48.48-.48h1.39778c.2649 0 .48.215.48.48s-.2151.48-.48.48z" fill="#fff"/><path d="m19.6262 44.3291h-4.8259c-.2649 0-.48-.215-.48-.48 0-.2649.2151-.48.48-.48h4.8259c.265 0 .48.2151.48.48 0 .265-.215.48-.48.48z" fill="#fff"/><path d="m19.6262 42.5396h-1.2067c-.265 0-.48-.2151-.48-.48 0-.265.215-.48.48-.48h1.2067c.2649 0 .48.215.48.48 0 .2649-.2151.48-.48.48z" fill="#fff"/><path d="m16.488 49.7002h-1.6887c-.2649 0-.48-.215-.48-.48 0-.2649.2151-.48.48-.48h1.6887c.2649 0 .48.2151.48.48 0 .265-.2141.48-.48.48z" fill="#fff"/><path d="m68.4252 20.8936h-9.6298c-.2649 0-.48-.215-.48-.48s.2151-.48.48-.48h9.6298c.265 0 .48.215.48.48s-.215.48-.48.48z" fill="#fff"/><path d="m71.1914 20.8936h-1.3891c-.265 0-.48-.215-.48-.48s.215-.48.48-.48h1.3881c.265 0 .48.215.48.48s-.2141.48-.479.48z" fill="#fff"/><path d="m75.0833 20.8936h-2.4441c-.265 0-.48-.215-.48-.48s.215-.48.48-.48h2.4441c.265 0 .48.215.48.48s-.214.48-.48.48z" fill="#fff"/><path d="m73.1381 17.3135h-9.2313c-.265 0-.48-.215-.48-.48 0-.2649.215-.48.48-.48h9.2313c.265 0 .48.2151.48.48 0 .265-.215.48-.48.48z" fill="#fff"/><path d="m62.2438 17.3135h-.5568c-.2649 0-.48-.215-.48-.48 0-.2649.2151-.48.48-.48h.5568c.265 0 .48.2151.48.48 0 .265-.2141.48-.48.48z" fill="#fff"/><path d="m59.9617 17.3135h-1.3977c-.265 0-.48-.215-.48-.48 0-.2649.215-.48.48-.48h1.3977c.265 0 .48.2151.48.48 0 .265-.214.48-.48.48z" fill="#fff"/><path d="m70.678 19.1031h-4.8259c-.265 0-.48-.2151-.48-.48 0-.265.215-.48.48-.48h4.8259c.2649 0 .48.215.48.48 0 .2649-.2151.48-.48.48z" fill="#fff"/><path d="m70.6779 17.3135h-1.2077c-.2649 0-.48-.215-.48-.48 0-.2649.2151-.48.48-.48h1.2077c.265 0 .48.2151.48.48 0 .265-.215.48-.48.48z" fill="#fff"/><path d="m64.4538 19.1031h-1.6886c-.265 0-.48-.2151-.48-.48 0-.265.215-.48.48-.48h1.6886c.265 0 .48.215.48.48 0 .2649-.2141.48-.48.48z" fill="#fff"/><path d="m52.5462 23.4884c-1.1607-1.0887-2.9751-1.0887-4.1722 0l-16.3603 15.0182v24.6317c0 1.7049 1.3785 3.0835 3.0835 3.0835h30.7622c1.705 0 3.0836-1.3786 3.0836-3.0835v-24.6317z" fill="#fdfcef"/><path d="m63.3486 63.9448h-25.7395c-1.7827 0-3.2409-1.4583-3.2409-3.241v-19.8124c0-1.7828 1.4582-3.241 3.2409-3.241h25.7395c1.7828 0 3.241 1.4582 3.241 3.241v19.8115c0 1.7836-1.4582 3.2419-3.241 3.2419z" fill="#efeddf"/><path d="m63.3494 64.3526h-25.7405c-2.0121 0-3.6489-1.6368-3.6489-3.649v-19.8125c0-2.0121 1.6368-3.6489 3.6489-3.6489h25.7395c2.0122 0 3.649 1.6368 3.649 3.6489v19.8125c.001 2.0122-1.6358 3.649-3.648 3.649zm-25.7405-26.2944c-1.5619 0-2.8329 1.271-2.8329 2.8329v19.8125c0 1.562 1.271 2.833 2.8329 2.833h25.7395c1.562 0 2.833-1.271 2.833-2.833v-19.8125c0-1.5619-1.271-2.8329-2.833-2.8329z" fill="#472b29"/><path d="m53.8527 52.3639-1.2701-1.1606c-1.1606-1.0886-2.975-1.0886-4.1721 0l-1.2701 1.1606-15.1267-13.8576v24.6317c0 1.1971.6528 2.2128 1.632 2.7207.0729.0364.1814.0729.2544.1084h.0365c.0729.0365.1449.073.2544.073.0364 0 .0729 0 .0729.0365.073.0365.145.0365.2179.0365.0365 0 .1085 0 .145.0364.0365 0 .1085 0 .145.0365h.3264 30.7622.3264c.0365 0 .1085 0 .145-.0365.0364 0 .1084 0 .1449-.0364.073 0 .145-.0365.2179-.0365.0365 0 .073 0 .073-.0365.073-.0365.145-.0365.2544-.073h.0365c.0729-.0364.1814-.0729.2544-.1084.9792-.5079 1.632-1.5236 1.632-2.7207v-24.6317z" fill="#f8ab97"/><path d="m32.5996 65.5403 14.953-13.5418s1.3833-1.63 2.952-1.5561c1.5686.0739 3.1584 1.9219 3.1584 1.9219l14.4854 13.4016" fill="#ee8670"/><path d="m67.8711 66.0653-14.4864-13.4016c-.046-.0499-1.5283-1.7481-2.9001-1.8134-1.3383-.0269-2.6074 1.3987-2.6199 1.4131l-14.9913 13.5792-.5472-.6048 14.9529-13.5408c.024-.0345 1.4804-1.7645 3.2448-1.6608 1.7242.0807 3.3792 1.9815 3.4484 2.0621l14.4547 13.368z" fill="#472b29"/><path d="m32.2914 38.2069-.5512.6017 15.1279 13.858.5513-.6017z" fill="#472b29"/><path d="m53.6621 52.7724c-.1104 0-.2199-.0441-.3005-.1325-.1517-.166-.1402-.4243.025-.5769l1.7107-1.5667c.167-.1527.4243-.1402.5769.0249.1517.1661.1402.4243-.0249.577l-1.7107 1.5667c-.0797.072-.1776.1075-.2765.1075z" fill="#472b29"/><path d="m57.0781 49.6426c-.1104 0-.2198-.0441-.3005-.1325-.1517-.166-.1401-.4243.025-.5769l.6537-.5991c.168-.1526.4234-.1401.577.025.1517.1661.1401.4243-.025.577l-.6547.6c-.0787.072-.1776.1065-.2755.1065z" fill="#472b29"/><path d="m59.0529 47.9307c-.1094 0-.2198-.0432-.2995-.1305-.1536-.1651-.143-.4234.0211-.577l9.7364-9.0163c.166-.1526.4233-.144.5769.0221.1536.1651.1431.4233-.0211.5769l-9.7363 9.0164c-.0787.0729-.1776.1084-.2775.1084z" fill="#472b29"/><path d="m65.8596 66.8937h-30.7623c-.5481 0-1.0905-.1258-1.6099-.3725-.024-.0086-.0893-.0355-.1421-.0614-.0902-.0471-.1661-.0951-.2409-.1431-.0778-.047-.1076-.0662-.1373-.0864-.7767-.5193-1.3258-1.3305-1.5303-2.2742l-.0259-.1229c-.047-.2506-.0691-.4781-.0691-.695v-24.9264l16.5792-15.2189c1.4477-1.3162 3.6806-1.3123 5.0851.0048l16.6109 15.2131v24.9274c0 .2381-.0278.4675-.0691.6921l-.0221.1114c-.2083.9581-.7574 1.7702-1.5504 2.3002l-.1181.0729c-.0768.049-.1536.0979-.2352.1402-.0557.0278-.1229.0566-.1901.0835-.4809.2304-1.0233.3552-1.5724.3552zm1.032-1.5859.4079.5568-.2947-.6039c.0413-.0211.0836-.0489.1258-.0768l.097-.0604c.5001-.3351.8496-.8506.9801-1.4525.0432-.2275.0634-.3773.0634-.5328v-24.336l-16.1789-14.8186c-.9024-.8467-2.3347-.8429-3.265.0019l-16.1414 14.8167v24.336c0 .1545.0202.3024.047.4483.1479.6854.4973 1.2019.9994 1.5379l-.2659.6259.3629-.5654c.0422.0269.0844.0547.1296.0787l.1065.0442c.3379.1603.6845.2419 1.032.2419h30.7623c.3475 0 .696-.0816 1.032-.2419z" fill="#472b29"/><path d="m38.6281 71.1031h3.3984c2.0256 0 3.6681-1.607 3.6681-3.5894 0-1.7299-1.2499-3.1728-2.9136-3.5136.0192-.1517.0327-.3043.0327-.4608 0-2.0535-1.7012-3.7181-3.7988-3.7181-1.2384 0-2.3356.5827-3.0288 1.4813-.1776-2.2858-2.2636-4.0493-4.704-3.7565-1.7846.2141-3.2611 1.5638-3.5894 3.2938-.1056.5548-.0941 1.0934.0106 1.5984-.4781-.504-1.1597-.8218-1.9181-.8218-1.3882 0-2.5219 1.0579-2.6112 2.3943-.6307-.1364-1.3162-.1277-2.0381.1372-1.3805.5069-2.3635 1.7789-2.4211 3.2218-.0816 2.0477 1.5907 3.7334 3.6653 3.7334h.839 7.6166zm-6.2189 0h.3456z" fill="#fdfcef"/><path d="m42.0263 71.5832h-3.3985c-.2649 0-.4799-.2151-.4799-.48 0-.265.215-.48.4799-.48h3.3985c1.7577 0 3.1872-1.3949 3.1872-3.1095 0-1.463-1.0637-2.7427-2.5306-3.0432-.2448-.0499-.4109-.2803-.3802-.5289.0163-.1325.0279-.266.0279-.4023 0-1.7856-1.489-3.2381-3.3187-3.2381-1.0484 0-2.0141.4714-2.6497 1.2941-.1209.1575-.3283.2237-.5164.1661-.1901-.0566-.3264-.2246-.3408-.4224-.0759-.9782-.5424-1.8662-1.3152-2.4998-.7949-.6528-1.8106-.9447-2.8532-.818-1.5801.1892-2.8867 1.3844-3.1756 2.9069-.0903.4762-.0874.9504.0086 1.4122.0442.2102-.0576.4233-.2477.5222-.1891.0999-.4205.0605-.5712-.095-.4109-.433-.9677-.672-1.5696-.672-1.1222 0-2.0592.8553-2.1321 1.9469-.0096.1392-.0788.2668-.1901.3513-.1123.0835-.2525.1143-.3898.0855-.6144-.1335-1.1933-.0941-1.7712.119-1.2115.4445-2.0592 1.5658-2.1072 2.7898-.0336.84.2707 1.6396.8592 2.2502.6096.6346 1.4362.984 2.3271.984h8.4547c.265 0 .48.215.48.48s-.215.48-.48.48h-8.4538c-1.1385 0-2.2377-.4656-3.0192-1.2787-.7709-.8016-1.1702-1.8509-1.127-2.9539.0653-1.608 1.1645-3.0759 2.736-3.6528.5865-.216 1.1894-.2957 1.8057-.2352.3312-1.3402 1.5639-2.3271 3.0096-2.3271.4733 0 .938.1085 1.3575.3101.0086-.2314.0345-.4637.0787-.696.3658-1.9296 2.0131-3.4426 4.0042-3.6816 1.3084-.1546 2.5776.2093 3.5769 1.0291.7181.5885 1.2269 1.3536 1.4842 2.2099.7594-.622 1.7146-.9667 2.7293-.9667 2.3596 0 4.2787 1.8826 4.2787 4.1981 0 .0326-.001.0653-.0019.0979 1.6944.5328 2.8838 2.1005 2.8838 3.8765-.0009 2.2454-1.8614 4.0714-4.1481 4.0714zm-9.2717 0h-.3447c-.2649 0-.48-.2151-.48-.48 0-.265.2151-.48.48-.48h.3447c.2649 0 .48.215.48.48 0 .2649-.2151.48-.48.48z" fill="#472b29"/><path d="m40.3868 66.0123c-.0172 0-.0345-.0019-.0528-.0057-.1296-.0288-.2112-.1575-.1814-.2871.0355-.1593.0912-.3139.1642-.4598.5788-1.1751 2.182-1.6071 3.5721-.9658.121.0557.1738.1987.1171.3187-.0556.12-.1996.1719-.3177.1172-1.1559-.5338-2.4759-.2016-2.9405.743-.0566.1133-.0989.2314-.1258.3523-.0259.1114-.1257.1872-.2352.1872z" fill="#472b29"/><path d="m35.4353 71.583h-1.0627c-.265 0-.48-.215-.48-.48 0-.2649.215-.48.48-.48h1.0627c.265 0 .48.2151.48.48 0 .265-.215.48-.48.48z" fill="#472b29"/><path d="m50.7809 39.478c-.001 0-.002 0-.0029 0-1.1971 0-2.3242.4666-3.1728 1.3152-.8496.8487-1.3181 1.9767-1.3191 3.1747 0 1.1981.4666 2.3261 1.3152 3.1757.8496.8506 1.9767 1.3191 3.1748 1.3191h.0028c2.4759 0 4.4909-2.0132 4.4919-4.49.0009-2.4777-2.0131-4.4937-4.4899-4.4947zm1.4928 6.6442c-.4157-.1306-.8554-.2055-1.3095-.2218l.001-1.7433 1.7261.0009c-.0221.6874-.1623 1.3479-.4176 1.9642zm.2016.4723c.2995.119.5952.2765.8803.4685-.5203.4339-1.1405.7286-1.8029.8582.3686-.3849.6787-.8304.9226-1.3267zm-1.5092-2.8128.001-1.441c.4838-.0182.96-.1046 1.415-.2582.1863.5328.2909 1.104.3101 1.7011zm1.6263-2.1763c-.2583-.6029-.6058-1.1357-1.0359-1.5859.7498.1468 1.4362.502 1.992 1.03-.3024.2276-.623.4138-.9561.5559zm1.0464 5.1993c-.3245-.2284-.6643-.4156-1.0128-.5548.2707-.6576.4185-1.3613.4416-2.0928l1.7318.0028c-.047.9994-.4579 1.9364-1.1606 2.6448zm-.9053-4.8528c.3763-.1603.7373-.3724 1.0752-.6316.599.6854.9494 1.5571.9917 2.4633l-1.7319-.0009c-.0192-.6404-.1315-1.2567-.335-1.8308zm-1.7664.0125.001-1.9872c.5337.457.9724 1.0627 1.2729 1.7568-.4099.1363-.8381.2141-1.2739.2304zm-.0019 4.3114c.4041.0173.7929.0806 1.1539.1891-.2918.5837-.6902 1.1002-1.1549 1.4976zm-1.8864.3168c.2429.4963.552.9417.9216 1.3277-.6634-.1306-1.2835-.4263-1.8019-.8602.2812-.191.5769-.3485.8803-.4675zm-.5904-2.4365c.0221.7315.1699 1.4352.4387 2.0928-.3485.1382-.6893.3245-1.0138.553-.7017-.7104-1.1116-1.6484-1.1568-2.6477zm2.1005 1.7434c-.4541.0163-.8938.0912-1.3095.2208-.2544-.6173-.3945-1.2778-.4166-1.9642l1.7261.001zm-1.6224-4.296c-.3303-.1412-.6519-.3293-.9552-.5568.5568-.5271 1.2422-.8804 1.9929-1.0272-.431.4492-.7795.982-1.0377 1.584zm.2102.4771c.456.1545.9312.2419 1.4141.2601l-.001 1.441-1.7261-.001c.0202-.599.1258-1.1702.313-1.7001zm1.4141-.1162c-.4368-.0182-.865-.096-1.273-.2313.2976-.6855.7306-1.2855 1.2749-1.7559zm-2.8387-.647c.3398.2601.6998.4733 1.0723.6326-.2026.5731-.3159 1.1885-.336 1.8298l-1.7319-.001c.0432-.9062.3956-1.7779.9956-2.4614zm2.8368 4.9584-.001 1.6857c-.4646-.3974-.8611-.9139-1.153-1.4976.361-.1094.7488-.1728 1.154-.1881z" fill="#b7b4a5"/><path d="m66.6192 67.4813c-5.5661-2.807-7.8317-9.5885-5.0611-15.1478 2.7705-5.5584 9.528-7.7895 15.0941-4.9824 5.566 2.807 7.8316 9.5884 5.0611 15.1478-2.7706 5.5594-9.528 7.7894-15.0941 4.9824z" fill="#bd977c"/><path d="m71.6892 69.1788c-1.8134 0-3.6163-.4253-5.2867-1.2682-5.7917-2.9203-8.1581-10.0041-5.2743-15.7901 1.393-2.7964 3.793-4.8787 6.7575-5.8627 2.9798-.9897 6.168-.7517 8.9817.6663 5.7917 2.9212 8.1581 10.0041 5.2743 15.79-1.394 2.7965-3.793 4.8788-6.7575 5.8628-1.2096.4022-2.4547.6019-3.695.6019zm-.1075-22.5629c-1.1395 0-2.2819.1824-3.3936.552-2.7197.9034-4.9219 2.8138-6.2007 5.3798-2.6486 5.3136-.4732 11.8205 4.849 14.5047 2.5824 1.3027 5.5123 1.5206 8.2473.6125 2.7197-.9034 4.921-2.8138 6.2007-5.3799 2.6486-5.3136.4733-11.8205-4.849-14.5046-1.534-.7738-3.19-1.1645-4.8537-1.1645z" fill="#472b29"/><path d="m77.2042 47.7324-1.0339-.5184c-.4205-.2103-.5914-.7267-.3811-1.1472.2102-.4205.7267-.5914 1.1472-.3811l1.0339.5184c.4205.2102.5914.7267.3811 1.1472-.2112.4204-.7267.5923-1.1472.3811z" fill="#836f61"/><path d="m77.5844 48.1825c-.1824 0-.3677-.0404-.5415-.1277l-1.0329-.5184c-.289-.145-.505-.3946-.6077-.7037-.1018-.3082-.0787-.6374.0662-.9264.144-.289.3936-.505.7018-.6077.3072-.1017.6364-.0797.9273.0653l1.033.5184c.2899.145.5049.3955.6086.7037.1018.3081.0787.6384-.0662.9273-.2131.4244-.6423.6692-1.0886.6692zm-.2199-.7719c.2429.121.5414.0231.6643-.2198.0595-.1171.0682-.2515.0259-.3773-.0422-.1258-.1305-.2285-.2476-.287l-1.033-.5184c-.1171-.0586-.2515-.0682-.3773-.026-.1267.0413-.2275.1296-.287.2458-.0595.1181-.0682.2525-.0259.3782.0422.1258.1296.2276.2467.2861z" fill="#472b29"/><path d="m71.7967 66.7463c5.2564 0 9.5175-4.2611 9.5175-9.5174 0-5.2564-4.2611-9.5175-9.5175-9.5175-5.2563 0-9.5174 4.2611-9.5174 9.5175 0 5.2563 4.2611 9.5174 9.5174 9.5174z" fill="#fdfcee"/><path d="m78.5206 47.3742c-.1757 0-.3293-.1277-.3562-.3062-.0288-.1968.1056-.3802.3024-.409.6854-.1037 1.2797-.5347 1.5898-1.153.2553-.5088.2966-1.0867.1171-1.6262-.1795-.5405-.5587-.9782-1.0666-1.2336-.5107-.2563-1.0877-.2976-1.6272-.1171-.5395.1795-.9782.5587-1.2326 1.0675-.3322.6614-.3226 1.3574.0249 1.9594.0999.1728.0413.3926-.1315.4924-.1689.098-.3917.0413-.4915-.1315-.4742-.8198-.4906-1.7577-.0461-2.6429.3399-.6796.9264-1.1875 1.6493-1.4275.7238-.24 1.4976-.1843 2.1773.1565.6806.3418 1.1875.9274 1.4275 1.6502.24.7229.1834 1.4967-.1574 2.1764-.4148.8275-1.2087 1.4044-2.1264 1.5417-.0164.0019-.0346.0029-.0528.0029z" fill="#472b29"/><path d="m76.5929 58.664c.1344.0029.2544-.0211.2918-.1737.0375-.1498-.0259-.2554-.1632-.3197-.0316-.0144-.0614-.0317-.0921-.0471-.9226-.4569-1.8451-.9129-2.784-1.3785.0585-.0615.1046-.1114.1536-.1584.3686-.3562.7344-.7152 1.1078-1.0666.1152-.1085.1738-.2074.0787-.359-.0902-.144-.2044-.1335-.3417-.0864-.4848.167-.9715.3283-1.4573.4905-.0605.0202-.1229.0355-.2006.0576.0211-1.0848.0403-2.136.0614-3.1862.0029-.1344-.0221-.2544-.1718-.2947-.1604-.0432-.242.0537-.3053.1833-.3139.6394-1.5197 3.7728-1.5197 3.7728s-3.4435-.1603-4.2163-.1747c-.1459-.0029-.2861.0039-.3264.1815-.0375.1641.0691.239.1987.2947.0317.0134.0614.0326.0922.048.9283.4598 1.8556.9197 2.7993 1.3872-.0509.0566-.0902.1037-.1334.1449-.3831.3716-.7651.7431-1.1511 1.1117-.095.0912-.1833.1795-.1036.3207.0873.1545.216.1094.3456.0652.551-.1862 1.102-.3696 1.6732-.5606.0029.071.0077.1238.0068.1776-.0173 1.0099-.0356 2.0189-.0548 3.0288-.0028.1421.0164.2688.1796.3072.1622.0384.238-.0643.2995-.193.1709-.3552 1.5379-3.48 1.5379-3.48s3.6835-.1036 4.1952-.0931z" fill="#cdcbbd"/><path d="m70.7263 62.6289c-.0346 0-.072-.0048-.1104-.0135-.337-.0797-.3303-.3955-.3283-.4982.0201-.9792.0364-1.9584.0547-2.9366l-1.4256.478c-.1239.0413-.409.1392-.5741-.1526-.1546-.2736.0432-.4627.1382-.5539.313-.2995.625-.601.937-.9024l.1632-.1584-2.567-1.272c-.0029-.001-.0413-.0221-.0432-.0231-.361-.1584-.385-.3753-.3495-.5347.0768-.3379.3946-.3331.5175-.3302l2.3193.0422c.1056.0019.1901.0893.1882.1958-.0019.1047-.0883.1892-.192.1892-.001 0-.0019 0-.0039 0l-2.3193-.0423c-.0682-.0009-.1143.002-.1296.0106-.0087.0451.0057.0643.0816.097.0249.0105.0489.024.0729.0374l2.8272 1.4026c.0548.0268.0932.0777.1028.1372.0115.0596-.0068.12-.0471.1652l-.0489.0537c-.0317.0365-.0605.0682-.0922.0989l-.215.2083c-.312.3024-.624.6048-.938.9043-.023.0212-.07.0663-.0777.0855.0307.0153.0864-.0067.1209-.0183l1.6781-.5616c.0567-.0211.121-.0115.1699.024.05.0346.0807.0903.0836.1508l.0028.0624c.002.0451.0048.0854.0039.1248-.0183 1.0185-.0355 2.0236-.0557 3.0288-.0019.0864.0086.1065.0115.1104.0471.0086.0663-.0048.1027-.0826.0874-.1805.2996-.7344.4877-1.223.1824-.4752.3399-.8852.4032-1.0138.0471-.095.1613-.1344.2573-.0883.096.047.1354.1612.0883.2572-.0557.1133-.2246.5549-.3888.9821-.1997.5194-.407 1.057-.5001 1.2519-.098.2035-.2352.3072-.4061.3072zm5.9837-3.7728c-.0068 0-.0125 0-.0192 0-.2372-.0048-.5952-.0144-.961-.0231-.4224-.0105-.8582-.022-1.1328-.0268-.1056-.002-.1901-.0893-.1882-.1959.002-.1046.0884-.1891.192-.1891h.0039c.2745.0048.7104.0163 1.1347.0269.3658.0096.7219.0182.959.023.0826.0067.0951-.0086.097-.0105.0154-.0576.0211-.0817-.0538-.1172l-.0576-.0288-2.8224-1.3987c-.0547-.0269-.094-.0787-.1036-.1392-.0106-.0595.0086-.1219.0508-.1661l.0509-.0528c.0384-.0403.072-.0758.1075-.1104l.2333-.2265c.2909-.2823.5808-.5645.8765-.8419.0586-.0557.0643-.0768.0643-.0788l-.0413-.0662c-.0009-.001-.0144-.0058-.094.0211-.3802.1315-.7632.2592-1.1444.3859l-.3139.1047c-.0441.0153-.0893.0269-.1382.0403l-.0711.0202c-.0595.0182-.1219.0048-.1699-.0327-.048-.0374-.0758-.095-.0749-.1555l.0605-3.1862c.0019-.0797-.0105-.0989-.0115-.0999-.0413-.0105-.0634 0-.0998.0759-.314.6393-.6288 1.2787-.9447 1.9171-.048.096-.1651.1325-.2582.0864-.0951-.0471-.1344-.1623-.0874-.2573.3159-.6374.6307-1.2768.9447-1.9162.1536-.312.3763-.3235.528-.2832.2131.0576.3187.2208.3129.4848l-.0566 2.9232.2573-.0864c.3801-.1267.7612-.2544 1.1404-.3849.096-.0327.3831-.1306.5684.1661.1958.311-.0336.528-.1085.6-.2947.2774-.5827.5587-.8727.839l-.1977.1929 2.5469 1.2615c.0009 0 .0451.023.047.024 0 0 .0422.0221.0432.0221.2237.1056.3245.3081.2659.5395-.0355.1469-.1449.3197-.4617.3197z" fill="#472b29"/><path d="m69.3285 52.3901c-.0989-.1545-.3619-.1632-.5856-.0211-.2237.1431-.3254.3859-.2266.5395l2.4615 4.7943 3.3206 4.2441c.0989.1546.3619.1632.5856.0212.2237-.1431.3254-.386.2266-.5396l-2.4615-4.7942zm2.7264 5.1562c-.2083.1334-.4848.072-.6182-.1363-.1335-.2083-.072-.4848.1363-.6183.2083-.1334.4848-.072.6182.1364.1325.2073.072.4848-.1363.6182z" fill="#ee3e54"/><g fill="#472b29"><path d="m74.5606 62.3099c-.048 0-.096-.0048-.1402-.0154-.1392-.0307-.2544-.1075-.3245-.2188l-3.3072-4.2259-2.4854-4.8317c-.0595-.0893-.0816-.2266-.0518-.3648.0412-.1891.1737-.3658.3619-.4867.1872-.12.4061-.1652.5923-.1248.1344.0297.2458.1027.3168.2064l3.3149 4.2374 2.4854 4.8317c.0595.0893.0816.2265.0518.3648-.0412.1891-.1737.3657-.3619.4867-.142.0931-.3004.1411-.4521.1411zm-5.4931-9.8016c-.048 0-.1181.0144-.1949.0634-.1277.0816-.1594.1872-.1527.2093l2.472 4.8124 3.2967 4.2067c.0278.0317.1382.0471.2659-.0336.1277-.0816.1594-.1872.1526-.2092l-2.472-4.8125-3.2966-4.2067c-.0038-.0058-.0086-.0115-.0125-.0173-.0067-.0067-.0288-.0125-.0585-.0125zm2.7465 5.3482c-.2265 0-.4493-.1123-.5798-.3168-.2045-.3197-.1095-.7459.2093-.9504.3196-.2035.7449-.1104.9494.2083.0998.1546.1325.3389.0931.5184s-.1469.3331-.3014.432c-.1152.073-.2439.1085-.3706.1085zm-.0009-.8957c-.0394 0-.0778.0106-.1114.0326-.097.0615-.1248.1911-.0624.288.0298.0461.0758.0788.1306.0903.0537.0125.1094.0019.1555-.0279h.0009c.0471-.0297.0788-.0758.0912-.1305.0116-.0538.002-.1095-.0278-.1565-.0307-.047-.0768-.0797-.1315-.0912-.0154-.0029-.0307-.0048-.0451-.0048z"/><path d="m62.1582 57.983c-.1805 0-.3283-.1412-.336-.3226-.0048-.121-.0048-.1757-.0048-.2986 0-5.4451 4.4294-9.8764 9.8755-9.8764 3.0768 0 5.9654 1.3852 7.7261 3.7065.1123.1479.0835.3591-.0634.4704-.1468.1114-.3581.0845-.4704-.0643-1.6358-2.1542-4.3238-3.4406-7.1913-3.4406-5.0746 0-9.2045 4.1289-9.2045 9.2035 0 .1113 0 .1603.0048.2707.0077.1853-.1373.3418-.3216.3494-.0058.002-.0106.002-.0144.002z"/><path d="m62.2976 59.3615c-.1612 0-.3024-.1152-.3312-.2793l-.0326-.2007c-.0288-.1833.097-.3552.2794-.384.1891-.0278.3552.097.384.2804l.0307.191c.0316.1824-.0912.3571-.2736.3878-.0192.0029-.0375.0048-.0567.0048z"/><path d="m71.6927 67.2388c-4.6051 0-8.5584-3.1268-9.6134-7.6032-.0423-.1805.0691-.361.2505-.4042.1786-.0422.3619.0701.4042.2506.9821 4.1712 4.6665 7.0848 8.9587 7.0848 5.0745 0 9.2045-4.129 9.2045-9.2036 0-1.4006-.3072-2.7465-.912-3.9984-.0807-.167-.0106-.3676.1564-.4483.1652-.0797.3677-.0115.4493.1565.649 1.344.9783 2.7869.9783 4.2902-.001 5.4452-4.4304 9.8756-9.8765 9.8756z"/><path d="m79.8286 52.7121c-.1123 0-.2217-.0567-.2861-.1604-.0748-.1209-.1526-.2409-.2332-.36-.1047-.1536-.0644-.3619.0883-.4665.1536-.1027.3629-.0653.4665.0883.0864.1267.17.2554.2506.3859.0979.1575.049.3648-.1094.4618-.0548.0345-.1162.0509-.1767.0509z"/><path d="m71.8494 49.9988c-.1325 0-.24-.1076-.24-.24v-1.7146c0-.1325.1075-.24.24-.24s.24.1075.24.24v1.7146c0 .1324-.1075.24-.24.24z"/><path d="m71.8484 67.1472c-.1325 0-.24-.1075-.24-.24v-1.7155c0-.1325.1075-.24.24-.24s.24.1075.24.24v1.7155c0 .1325-.1075.24-.24.24z"/><path d="m81.0669 57.9737h-1.7146c-.1325 0-.24-.1076-.24-.24 0-.1325.1075-.24.24-.24h1.7146c.1324 0 .24.1075.24.24 0 .1324-.1076.24-.24.24z"/><path d="m63.9194 57.9737h-1.7146c-.1324 0-.24-.1076-.24-.24 0-.1325.1076-.24.24-.24h1.7146c.1325 0 .24.1075.24.24 0 .1324-.1085.24-.24.24z"/><path d="m70.6823 62.4386c-.0048 0-.0096 0-.0154-.0009-.0528-.0077-.0883-.0576-.0797-.1095l.2909-1.8787c.0077-.0518.048-.095.1095-.0797.0528.0077.0883.0576.0796.1095l-.2908 1.8787c-.0068.0461-.0471.0806-.0941.0806z"/><path d="m76.9564 58.5359c-.0057 0-.0125 0-.0182-.0019l-1.7328-.3293c-.0528-.0096-.0864-.0595-.0768-.1123.0115-.0518.0605-.0893.1123-.0768l1.7328.3293c.0528.0096.0864.0595.0768.1123-.0096.0461-.0499.0787-.0941.0787z"/><path d="m68.5716 59.4655c-.0317 0-.0633-.0163-.0816-.0461-.0278-.0451-.0144-.1046.0317-.1325l1.1424-.6969c.0432-.0269.1037-.0135.1315.0316.0279.0452.0144.1047-.0317.1325l-1.1424.697c-.0153.0096-.0326.0144-.0499.0144z"/><path d="m74.1681 55.9076c-.0326 0-.0643-.0173-.0826-.048-.0269-.0461-.0115-.1047.0336-.1315l1.1175-.6519c.047-.0269.1027-.0115.1315.0346.0269.0461.0115.1046-.0336.1315l-1.1175.6518c-.0163.0087-.0316.0135-.0489.0135z"/><path d="m68.2031 56.4835c-.0067 0-.0134-.001-.0192-.0019l-1.3958-.2842c-.0528-.0106-.0864-.0614-.0749-.1133.0106-.0518.0672-.0816.1123-.0749l1.3959.2842c.0528.0106.0864.0614.0748.1133-.0086.0451-.048.0768-.0931.0768z"/><path d="m72.8033 53.599c-.0087 0-.0183-.001-.026-.0038-.0508-.0144-.0806-.0672-.0652-.1191l.3734-1.3065c.0144-.05.0662-.0797.1181-.0663.0508.0144.0806.0672.0652.1191l-.3734 1.3065c-.0115.0423-.0499.0701-.0921.0701z"/><path d="m78.3881 52.2435c-.0739 0-.1459-.0336-.1929-.0979-.0788-.1066-.0557-.2573.0518-.336l.7795-.5712c.1047-.0787.2563-.0566.3351.0518.0787.1066.0556.2573-.0519.336l-.7795.5712c-.0432.0308-.0922.0461-.1421.0461z"/><path d="m64.5954 63.995c-.0672 0-.1354-.0288-.1824-.0845-.0864-.1008-.0739-.2525.0269-.3389l.5769-.4915c.0999-.0854.2525-.0739.3389.0269s.0739.2524-.0269.3388l-.5769.4916c-.0461.0393-.1018.0576-.1565.0576z"/><path d="m77.5561 65.0611c-.0672 0-.1354-.0288-.1824-.0845l-.4109-.481c-.0864-.1008-.0739-.2525.0269-.3389.0998-.0854.2525-.0739.3389.0269l.4108.481c.0864.1008.074.2525-.0268.3389-.0461.0393-.1018.0576-.1565.0576z"/><path d="m65.7165 51.1663c-.0672 0-.1353-.0288-.1824-.0845l-.3936-.4627c-.0864-.1008-.0739-.2525.0269-.3389.0999-.0845.2525-.0749.3389.0269l.3936.4627c.0864.1008.0739.2525-.0269.3389-.0461.0394-.1017.0576-.1565.0576z"/></g></svg>