<svg fill="none" height="16" viewBox="0 0 20 16" width="20" xmlns="http://www.w3.org/2000/svg"><path d="m2 0c-1.1 0-2 .9-2 2v3.15039c0 .415.237859.82017.630859.95117.794001.266 1.369141 1.01844 1.369141 1.89844s-.57514 1.63244-1.369141 1.89844c-.393.13096-.630859.53616-.630859.95116v3.1504c0 1.1.9 2 2 2h16c1.1 0 2-.9 2-2v-3.1504c0-.415-.2379-.8202-.6309-.95116-.794-.266-1.3691-1.01844-1.3691-1.89844s.5751-1.63244 1.3691-1.89844c.393-.131.6309-.53617.6309-.95117v-3.15039c0-1.1-.9-2-2-2zm8 2.80078 1.4004 3.29883 3.5996.30078-2.6992 2.40039.7988 3.39842-3.0996-1.7988-3.09961 1.9004.79883-3.50002-2.69922-2.40039 3.59961-.30078z" fill="#f4a734"/></svg>